<?xml version="1.0" encoding="utf-8"?>
<!-- Generator: Adobe Illustrator 18.0.0, SVG Export Plug-In . SVG Version: 6.00 Build 0)  -->
<!DOCTYPE svg PUBLIC "-//W3C//DTD SVG 1.1//EN" "http://www.w3.org/Graphics/SVG/1.1/DTD/svg11.dtd">
<svg version="1.1" id="Layer_1" xmlns="http://www.w3.org/2000/svg" xmlns:xlink="http://www.w3.org/1999/xlink" x="0px" y="0px"
	 viewBox="0 0 14 16" enable-background="new 0 0 14 16" xml:space="preserve">
<g>
	<path d="M13,0H4L0,4v11c0,0.6,0.4,1,1,1h12c0.6,0,1-0.4,1-1V1C14,0.4,13.6,0,13,0z M4,1.5V4H1.5L4,1.5z M13,15H1V5h3
		c0.6,0,1-0.4,1-1V1h8V15z"/>
	<rect x="3" y="8" width="8" height="1"/>
	<rect x="5" y="6" width="6" height="1"/>
	<rect x="7" y="4" width="4" height="1"/>
	<rect x="3" y="10" width="8" height="1"/>
	<rect x="3" y="12" width="8" height="1"/>
</g>
</svg>
