<?xml version="1.0" encoding="utf-8"?>
<!-- Generator: Adobe Illustrator 18.0.0, SVG Export Plug-In . SVG Version: 6.00 Build 0)  -->
<!DOCTYPE svg PUBLIC "-//W3C//DTD SVG 1.1//EN" "http://www.w3.org/Graphics/SVG/1.1/DTD/svg11.dtd">
<svg version="1.1" id="Layer_1" xmlns="http://www.w3.org/2000/svg" xmlns:xlink="http://www.w3.org/1999/xlink" x="0px" y="0px"
	 viewBox="0 0 16 16" enable-background="new 0 0 16 16" xml:space="preserve">
<g>
	<path d="M6.5,0h-3C1.8,0,0,1.3,0,3v10c0,1.7,1.8,3,3.5,3h3C7.1,16,7,15.6,7,15v-3c0-0.6,0.1-1-0.5-1H4V5h2.5C7.1,5,7,4.6,7,4V1
		C7,0.4,7.1,0,6.5,0z M6,4H3v8h3v3H3.5C2.4,15,1,14.1,1,13V3c0-1.1,1.4-2,2.5-2H6V4z"/>
	<path d="M15,7h-2V5c0-0.6-0.4-1-1-1c-0.6,0-1,0.4-1,1v2H9C8.4,7,8,7.4,8,8s0.4,1,1,1h2v2c0,0.6,0.4,1,1,1c0.6,0,1-0.4,1-1V9h2
		c0.6,0,1-0.4,1-1S15.6,7,15,7z"/>
</g>
</svg>
