<?xml version="1.0" encoding="utf-8"?>
<!-- Generator: Adobe Illustrator 18.0.0, SVG Export Plug-In . SVG Version: 6.00 Build 0)  -->
<!DOCTYPE svg PUBLIC "-//W3C//DTD SVG 1.1//EN" "http://www.w3.org/Graphics/SVG/1.1/DTD/svg11.dtd">
<svg version="1.1" id="Layer_1" xmlns="http://www.w3.org/2000/svg" xmlns:xlink="http://www.w3.org/1999/xlink" x="0px" y="0px"
	 viewBox="0 0 16 16" enable-background="new 0 0 16 16" xml:space="preserve">
<path d="M5.6,15.7l0.6-0.5c0.4-0.4,0.3-1.1,0-1.5L5.5,13h4c3.6,0,6.5-2.9,6.5-6.5C16,2.9,13.1,0,9.5,0h-5C3.7,0,3,0.7,3,1.5
	C3,2.3,3.7,3,4.5,3h5C11.4,3,13,4.6,13,6.5c0,1.9-1.6,3.5-3.5,3.5h-4l0.7-0.6c0.4-0.4,0.4-1,0-1.4L5.5,7.2c-0.4-0.4-1-0.4-1.4,0
	L1,10.1l-0.7,0.7c-0.4,0.4-0.4,1,0,1.4l1.9,1.7l2,1.8C4.6,16.1,5.3,16.1,5.6,15.7z M4.6,14.7l-3.2-2.9c-0.2-0.2-0.2-0.5,0-0.7
	l3.1-2.8c0.2-0.2,0.5-0.2,0.7,0c0.2,0.2,0.2,0.5,0,0.7l-2.2,2h6.6C12,11,14,9,14,6.5C14,4,12,2,9.5,2h-5C4.2,2,4,1.8,4,1.5
	C4,1.2,4.2,1,4.5,1h5c3,0,5.5,2.5,5.5,5.5c0,3-2.5,5.5-5.5,5.5H2.9l2.4,2c0.2,0.2,0.2,0.5,0,0.7C5.1,14.9,4.8,14.9,4.6,14.7z"/>
</svg>
