<?xml version="1.0" encoding="utf-8"?>
<!-- Generator: Adobe Illustrator 18.0.0, SVG Export Plug-In . SVG Version: 6.00 Build 0)  -->
<!DOCTYPE svg PUBLIC "-//W3C//DTD SVG 1.1//EN" "http://www.w3.org/Graphics/SVG/1.1/DTD/svg11.dtd">
<svg version="1.1" id="Layer_1" xmlns="http://www.w3.org/2000/svg" xmlns:xlink="http://www.w3.org/1999/xlink" x="0px" y="0px"
	 viewBox="0 0 16 12" enable-background="new 0 0 16 12" xml:space="preserve">
<g>
	<g>
		<path d="M15,0H1C0.4,0,0,0.4,0,1v10c0,0.6,0.4,1,1,1h14c0.6,0,1-0.4,1-1V1C16,0.4,15.6,0,15,0z M15,10.5c0,0.3-0.2,0.5-0.5,0.5
			h-13C1.2,11,1,10.8,1,10.5V5h14V10.5z M15,2v1H1V2V1.5C1,1.2,1.2,1,1.5,1h13C14.8,1,15,1.2,15,1.5V2z M7,7H3v1h4V7z M10,7H8v1h2V7
			z"/>
	</g>
</g>
</svg>
