<?xml version="1.0" encoding="utf-8"?>
<!-- Generator: Adobe Illustrator 18.0.0, SVG Export Plug-In . SVG Version: 6.00 Build 0)  -->
<!DOCTYPE svg PUBLIC "-//W3C//DTD SVG 1.1//EN" "http://www.w3.org/Graphics/SVG/1.1/DTD/svg11.dtd">
<svg version="1.1" id="Layer_1" xmlns="http://www.w3.org/2000/svg" xmlns:xlink="http://www.w3.org/1999/xlink" x="0px" y="0px"
	 viewBox="0 0 141.8 141.8" enable-background="new 0 0 141.8 141.8" xml:space="preserve">
<g>
	<path fill="#060606" d="M141.8,64.8c0,4.2,0,8.3,0,12.5c-0.4,1.5-0.3,3.1-0.4,4.7c-0.4,4.5-1.7,8.9-3.2,13.1
		c-2.6,7.2-6.1,13.8-10.9,19.8c-6.5,8.2-14.3,14.9-23.7,19.7c-6,3.1-12.3,5.3-19,6.6c-2.4,0.5-4.8,0.4-7.2,0.6c-0.2,0-0.3,0-0.4,0.1
		c-4.2,0-8.3,0-12.5,0c-1.6-0.5-3.3-0.3-4.9-0.4c-2.9-0.3-5.7-0.9-8.4-1.7c-0.3-0.1-0.7-0.2-1-0.5c-0.5-0.8-0.3-1.2,0.6-1.4
		c1.6-0.4,3-1.4,4.8-1.3c0.2,0,0.5-0.1,0.6-0.3c0.8-1.3,1.9-1.7,3.4-1.5c-0.5-0.9-0.7-1.8-0.4-2.7c0.2-0.5,0.1-1.1,0.1-1.7
		c0-0.6,0.2-1.1,1-0.9c0.1,0.1,0.1,0.2,0.2,0.3c0.4,0.9,0.3,2,0.7,2.9c0.7-0.8,0.2-1.8,0.3-2.6c0-0.5-0.2-1-0.5-1.5
		c-0.6-1.1-0.5-1.3,0.6-1.9c1-0.5,1.7-1.3,1.8-2.5c0.1-1-0.3-1.8-1.1-2.4c-1.2-0.8-2.6-1.1-4.1-1.2c-0.9-0.1-1.2,0.6-1.4,1.4
		c-0.7,3.4-1.7,6.7-2.3,10c-0.3,0.5-0.7,1.2-1.5,0.7c-0.7-0.4-0.8-1.6-0.2-2.2c0.6-0.6,0.8-1.5,1.2-2.2c0.2-0.4,0.2-0.9-0.1-1.3
		c-0.7-0.9-0.2-1.6,0.2-2.3c0,0,0,0.1-0.1,0.1c-1,0.6-1.2,1.1-0.2,2.1c0.9,0.8,0,2.3-1.2,2.4c-0.5,0-1,0-1.4,0
		c-0.4,0-0.8,0.2-0.9,0.7c-0.1,0.5-0.4,1.1-1,1c-0.7-0.1-0.9-0.7-0.9-1.4c0-0.2,0-0.3,0.1-0.5c0.4-3.4,0.7-6.7,1-10.1
		c0.1-0.7,0.1-1.4,0.7-1.8c1.1,0.1,0.4,0.9,0.5,1.4c-0.1,0.4,0,0.9,0.2,1.3c0.4,1.1,0.5,2.2-0.1,3.3c1-1.4,0.1-2.8,0-4.2
		c-0.1-0.7,0.2-1,0.9-0.8c0.7,0.2,1.1-0.1,1.6-0.7c1.1-1.5,2.4-2.8,4.1-3.6c0.6-0.3,1.6-0.2,1.9,0.1c0.7,0.7,1.7,0.7,2.4,0.7
		c1.1,0.1,2.3,0.4,3.1,1c1.3,1,2.4,0.2,3.6,0.2c0.7,0,1.3-0.2,2-0.1c0.7,0,1.4,0.1,2.1-0.3c0.9-0.5,1.9,0,2.4,0.9
		c0.3,0.5,0.6,0.9,0.9,1.4c0.2,0.5,0.7,0.7,1.2,0.7c1.1,0,2.1,0.2,2.7,1.2c0.2,0.3,0.5,0.4,0.8,0.2c0.1-0.1,0.2-0.1,0.2-0.2
		c1-1.1,2-1,2.5,0.4c0.4,1,0.6,1.1,1.4,0.5c0.6-0.4,1.2-0.8,1.5-1.5c0.7-1.5,2-2.1,3.4-2.5c1-0.3,1.8-0.6,2.3-1.5
		c0.1-0.3,0.3-0.5,0.6-0.5c0.9-0.2,1.2-0.8,1.3-1.7c0-0.5,0.3-0.9,0.8-1.1c0.8-0.3,1.3-0.8,1.7-1.4c0.6-0.8,1.1-1.8,2.4-1.9
		c-0.8-0.4-1.9,0.3-2.3-0.9c0-0.5,0.3-0.7,0.6-1c4.3-3.2,8-7.1,10.9-11.6c0.2-0.4,0.5-0.7,1-0.7c0.3,0,0.5,0.2,0.7,0.4
		c0.3,0.4,0.7,0.4,1.1,0.1c0.5-0.4,1.2-0.7,1.4-1.3c0.5-1.5,1.6-2.6,2.2-4c0.2-0.5,0.4-1,0.9-1.3c1.8-1,2.4-2.8,3-4.6
		c0.1-0.3,0-0.6,0.2-0.8c1.5-1.5,1.9-3.8,3.6-5.1c0.7-0.5,1.1-1.2,1.3-2.1c0.1-0.7,0.5-1.1,1.1-1.1c-0.4,0.1-0.8,0-1.3-0.3
		c-0.6-0.5-1.2-0.5-1.4,0.4c-0.2,0.8-0.8,1.1-1.5,1.1c-0.4,0-0.8,0.1-1.2,0c-0.8-0.1-1.9,0.3-2.4-0.6c-0.6-1.1-1.2-2.3-0.6-3.7
		c0.2-0.4,0.3-0.9,0.8-0.9c0.6,0,0.7,0.4,0.9,0.8c0,0.2,0.1,0.3,0.2,0.4c0.1,0.2,0.2,0.4,0.4,0.3c0.2,0,0.3-0.2,0.4-0.4
		c0.1-0.3,0.2-0.5,0.2-0.8c0-0.7,0.2-1.3,1.1-1.4c-0.8,0.1-1.1-0.3-1-0.9c0.1-1.4,0.4-2.8,0.6-4.2c0.1-0.5,0.4-1,1-1
		c0.5-0.1,0.9,0.1,1.1,0.7c0,0.9-0.2,1.8-0.3,2.7c-0.2,1.6,0,3.2,1,4.6c1.4,2.1,4.3,2,5.6-0.2c0.3-0.6,0.5-1.2,0.8-1.8
		c0.1-0.3,0.2-0.7,0.4-1c0.3-0.7,0.7-1.5,1.7-1.3c1,0.2,1.2,1,1.2,1.8c0,0.5,0,1,0,1.4c0,0.6,0,1.2,0.7,1.3c0.8,0.1,0.9-0.6,1-1.2
		c0.3-1.5,0-2.9-0.7-4.2c-0.8-1.6-2.5-2.1-4.2-1.5c-0.4,0.2-0.7,0.5-1.2,0.5c-0.9-0.6-0.8-1.6,0.2-1.9c1.1-0.3,1.5-0.8,1.2-1.9
		c-0.3-0.9,0.1-1.8,0.2-2.7c0.2-0.3,0.5-0.5,0.8-0.7c1.4-1,1.7-2.4,1.4-4c-0.3-1.7-1.1-3.3-1.5-5c0.3-0.9,0.8-1.4,1.8-1.1
		c0.6,0.2,0.9,0.5,0.8,1.2c0.3-0.3,0.3-0.5,0.2-0.8c-0.3-1.6-0.2-3.1,0.7-4.6c0.5-0.7,0.5-1.6,0.8-2.4c0.2-0.5,0.4-0.9,1-0.9
		c0.6,0.1,0.8,0.6,1,1.1c2.4,5.5,4.4,11.2,5.2,17.2C141.6,60.7,141.4,62.8,141.8,64.8z"/>
	<path fill="#4F4F4F" d="M0.5,78.1c-0.3-0.5,0.1-1.2-0.5-1.7c0-3.2,0-6.4,0-9.6c1.1-0.5,0.8,0.6,1.1,0.9c1.9-1.3,3-3.5,4.7-5
		c1-0.9,1.7-2.1,2.4-3.2c0.5-0.8,1-1.6,2-1.9c1.1,0.3,2.2,0.5,3.2,1c0.2,0.1,0.3,0.4,0.5,0.5c1.2,1.1,1.2,1.1,0.2,2.3
		c-0.5,0.5-0.9,1-1.2,1.7c-0.6,1.6-0.6,1.6-2.3,1.5c-1.9-0.4-2.3-0.1-2.3,1.8c0,0.6,0,1.3,0,1.9c0,0.5,0,1-0.7,1.1
		c-0.5-1-0.1-2.1-0.3-3.1c0.5,2.4-0.3,4.2-2.1,5.8c-0.6,0.5-1,1.4-1.4,2.1c-0.5,1-0.8,2.2-1.7,3c-0.5,0.5-0.1,1.5-0.8,1.9
		c-0.9-0.1-0.5-0.9-0.7-1.3C0.6,77.6,0.7,77.9,0.5,78.1z"/>
	<path fill="#595959" d="M10.1,58.1c0,0-0.1,0-0.1,0L9.2,59c-0.6,0.4-0.7,1.2-1.1,1.8c-0.4,0.5-0.9,1.1-1.2,1.6
		c-0.4,0.6-1.2,0.9-1.6,1.4c-1,1.6-2.6,2.7-3.6,4.3c-0.2,0.3-0.5,0.7-0.9,0.6c-0.5-0.1-0.2-0.6-0.3-0.9c0-0.4,0-0.9-0.5-1.1
		c0-0.3,0-0.6,0-1c0.6-1.3,0.2-2.8,0.7-4.1c3-2,5.1-5.1,7.8-7.5c0.6-0.5,1.1-0.9,1.5,0C9.8,55.5,9.7,56.8,10.1,58.1z"/>
	<path fill="#5A5A5A" d="M61.9,0.7c1.2-0.3,2.4-0.2,3.6-0.7c1.6,0,3.2,0,4.8,0c0.4,0.5,0.1,1-0.2,1.4c-1.3,1.5-2.7,2.9-4.3,4
		c-0.6,0.4-1.1,0.8-1.5,1.3c-1.2,1.4-2.9,1.9-4.5,2.5c-2,0.2-3.9,0.9-5.8,1.3c-0.7,0.1-1.3,0.4-2,0.3c-0.4-0.2-0.8-0.3-0.8-0.9
		c0.1-0.5,0.5-0.6,0.9-0.6c2-0.3,3.4-1.4,4.8-2.6c0.5-0.5,1.1-0.8,1.7-1.2c0.8-0.5,1.6-1.1,2.1-1.9c0.5-0.9,1.5-1.2,2.2-1.8
		C62.6,1.4,61.7,1.6,61.9,0.7z"/>
	<path fill="#545454" d="M59.7,8.9c0.2-0.2,0.3-0.4,0.5-0.5c2.9-1,4.9-3.3,7.1-5.3c1.1-1,2.2-1.9,3-3.2c1,0,2.1,0,3.1,0
		c0.3,0.4,0.8,0.1,1,0.4c0.2,0.8-0.4,1.3-0.9,1.7c-1.5,1-2.6,2.6-4.1,3.7c-2.7,2-5.2,4.1-8.4,5.3c-0.4,0.2-0.9,0.1-1.3-0.1
		C59.5,10.3,59,9.6,59.7,8.9z"/>
	<path fill="#4D4D4D" d="M74.4,0.5c-0.3-0.3-1.1,0.5-1-0.5c0.9,0,1.8,0,2.6,0c0.5,0.5,1.2,0.1,1.8,0.4c0.4,0.5,1,0.2,1.6,0.3
		c0.5,0.1,1.1,0.1,1.3,0.5c0.3,0.6-0.4,0.8-0.7,1.1c-0.6,0.6-1.5,1-2.2,1.4c-1.5,0.8-2.7,2.1-4.1,3.1c-0.7,0.5-1.4,0.8-2.3,0.8
		c-0.8-0.1-1.7,0.2-2.5-0.2c-0.4-1.1,0.5-1.7,1.2-2.1c1.2-0.8,2.3-1.9,3.6-2.5C74.6,2.4,74.8,1.5,74.4,0.5z"/>
	<path fill="#090909" d="M127.2,27.8c3.1,3.9,5.7,8.1,7.7,12.7c-0.1,1.9-1.5,3.5-1.8,5.3c-0.2,0.9-0.1,1.8,0.1,2.7
		c0.1,0.4,0.2,1.1-0.5,1.1c-0.4,0-1.2-0.1-0.7-1c0.1-0.2,0-0.5-0.2-0.3c-0.4,0.3-1.2-0.8-1.4,0.3c-3.6,0.9-7.1,2-10.7,3.2
		c-0.6,0.2-1.2,0.5-1.1,1.3c0.2,0.7,0.6,1.1,1.4,0.9c0.7-0.2,1.3-0.3,2-0.5c0.8-0.2,1.3,0.1,1.6,0.9c0.2,0.5,0.3,1,0.6,1.4
		c0.8,1.6,2,2.6,3.9,2.5c0.5,0,1.1-0.2,1.4,0.4c0,0.6,0,1.2,0,1.8c0,0.3,0.1,0.5,0.1,0.8c0.1,0.5,1,0.5,0.7,0.9
		c-0.4,0.5-1,1-1.8,1.2c-0.7,0.2-1.2,0.4-1.1,1.2c0.1,0.1,0.2,0.1,0.1,0.2c-0.4,1.7-0.8,3.3-1.9,4.6c-0.7,0.8-1.7,0.6-2.2-0.5
		c-0.5-0.8-0.5-1.7-0.3-2.6c0.2-1.1,0-1.9-1.2-2.1c-0.3-0.1-0.6-0.3-0.7-0.6c-0.3-0.3-0.7-0.4-1,0c-0.4,0.6-0.6,1.4-0.3,2
		c0.3,0.5,0.3,0.8-0.1,1.2c-0.5,0.5-0.4,1.1-0.4,1.8c0.8-0.2,0.3-0.9,0.7-1.4c0.3,1-0.1,2.1,0.7,3c-0.7,0.1-0.8-0.6-1.3-0.5
		c0.1,0.8-0.2,1.5-0.4,2.3c-0.1,0.5-0.4,0.7-0.9,0.7c-0.5,0-0.8-0.2-0.9-0.7c-0.1-0.5-0.2-1-0.4-1.8c-0.3,1.1-1.4,1.8-0.1,2.6
		c0.1,0.1,0.1,0.4,0.1,0.6c0,1,0.5,1.4,1.4,1.3c0.4,0,0.9,0,1.3,0c1,0.1,1.6-0.3,1.6-1.4c0-0.7,0.2-0.9,0.9-0.7
		c0.4,0.1,0.9,0.2,1.2,0.5c0.8,0.6,1.6,1.2,2.7,0.4c-0.3,0.4-0.5,0.8-1,0.8c-1-0.1-1.2,0.5-1.2,1.2c-0.1,0.8-0.6,1.4-1.1,1.9
		c-1,1-2.1,2-2.4,3.5c0,0.2-0.2,0.4-0.3,0.5c-1.3,0.8-1.4,2.3-1.8,3.5c-0.4,1.4-1.3,2.3-2.3,3.1c-0.7,0.6-1.3,1.1-0.9,2.1
		c0.2,0.4-0.1,0.6-0.4,0.7c-1,0.1-1.2,0.9-1.4,1.6c-0.2,0.8-0.4,1.5-1.3,1.8c-0.2,0.1-0.4,0.4-0.6,0.6c-1.5,1.4-1.7,1.4-2.3-0.6
		c-0.1-0.2-0.1-0.3,0-0.5c1.2-0.9,1.7-2.1,1.7-3.6c0.1-0.2,0.3-0.4,0.5-0.5c1-0.2,1.6-1.2,1.3-2.3c-0.1-0.3-0.3-0.7-0.2-1
		c0.3-1,0.5-2,1.1-2.9c0.4-0.2,0.3-0.6,0.2-0.9c0-0.3,0.2-0.5,0.4-0.7c0.7-0.4,0-0.8,0.1-1.2c0-0.3,0-0.5-0.1-0.8
		c0.4-2.7,1-5.3,1.1-8c-0.1-0.8-0.2-1.7-0.3-2.5c0.8-1.7-0.2-3.3-0.4-4.9c0-0.9,0-1.8-0.3-2.7c-0.7-2.1-1-4.3-2.1-6.3
		c-0.6-1-0.8-2.2-1.1-3.4c-0.2-0.6-0.5-1.2-0.9-1.6c-0.2-0.3-0.3-0.7-0.3-1c0.3-1.1-0.3-2-0.8-2.8c-1-1.6-2-3.2-3.4-4.4
		c-0.6-0.5-0.4-1.1-0.2-1.8c0.2-0.6,0.7-0.7,1.2-0.8c0.8-0.1,1.5,0,2.3,0c0.7,0,1.4-0.2,2-0.7c0.9-0.8,1.2-0.7,1.7,0.6
		c-0.2,2.5,1,4.4,3,5.8c2.2,1.5,4.4,0.9,6.5-0.3c2.2-1.3,3.4-3.8,3-5.9c-0.5-2.7-2.5-4.6-5.1-5c-0.9-0.1-1.7,0.1-2.5,0.2
		c-0.4,0.1-0.8,0.4-1.3,0.1c-0.8-0.6-0.5-1.1,0.2-1.4c1.7-0.7,3.4-1.4,5.3-0.6c0.6,0.2,0.9,0.1,1.2-0.5c0.5-0.8,1.6-1.2,2.4-0.6
		c1.1,0.9,2.2,0.7,3.5,0.7c0-0.6-0.3-1.1-0.8-1.4c-0.8-0.4-1-1.4-1.8-1.8c-0.5-0.3-0.3-0.8,0.3-1C126.3,27.7,126.7,27.7,127.2,27.8z
		"/>
	<path fill="#090909" d="M50.4,138.7c-3.8-1-7.5-2.6-11-4.3c-2.6-1.3-5.1-2.6-7.5-4.3c-0.1-0.4-0.3-0.8-0.5-1.2
		c-0.8-1.3-0.2-2.5,1.3-2.8c0.4-0.1,0.9-0.1,1.1-0.5c0.7-1.6,2.4-1.9,3.8-2.5c0.8-0.4,1.6-0.7,2.3-1.2c0.4-0.2,0.7-0.6,1.1-0.2
		c0.5,0.4,0.5,1,0.1,1.4c-0.3,0.4-0.3,0.8-0.2,1.2c0,0.5-0.7,0.8-0.7,1.4c0.6,0.1,0.9-0.3,1.3-0.7c2.3-2.2,1.7-2.1,4.6-0.7
		c2.2,1.1,2.2,1.1,1.9,3.6c-0.2,1.3-0.2,1.3,1.1,1.3c0.1,0.4-0.1,0.9,0.3,1.2c0.4-0.2,0.1-0.4,0.1-0.6c-0.1-0.8,0.3-1.2,1.1-1.2
		c0.7,0,1.4,0,2.2,0c0.7,0,1-0.2,1.1-1c0-0.7-0.3-0.9-0.9-1c-0.6,0-1-0.2-1.1-0.9c0-0.7,0.4-1,1-1.1c0.6,0,0.8-0.4,1-0.9
		c0.1-0.3-0.1-1,0.6-0.7c0.5,0.2,0.8,0.9,0.6,1.1c-1.4,1.6-0.3,3.6-0.9,5.2c-0.2,0.5,0,1.1-0.8,1.4c-0.6,0.2-0.1,0.8,0.1,1.1
		c0.4,0.5,0.5-0.1,0.7-0.3c0.9,0.1,1.3-0.4,1.5-1.2c0.2-0.9,0.4-1.8,0.6-2.7c0.2-0.9,0.8-1.3,1.7-1.1c0.9,0.2,1.9,0.4,2.5,1.2
		c0.3,0.4,0.6,0.9,0,1.4c-0.5,1.3-0.3,2.7-0.4,4c-0.1,0.6,0.6,0.9,1.2,1c0.2,0.1,0.5,0.2,0.4,0.5c-0.1,0.3-0.4,0.3-0.6,0.3
		c-0.7,0-1.4,0-2,0c-0.8,0.1-1.7,0.2-1.6,1.4c0,0.6-0.5,0.5-0.9,0.5c-1.7-0.1-3.2,0.4-4.5,1.4C51.3,138.7,50.7,137.9,50.4,138.7z"/>
	<path fill="#B1B1B1" d="M113.5,83.7c-0.3,1-0.7,1.9-1,2.9c-0.3,1.2-0.2,2.5-1.4,3.4c-0.1,0.2-0.2,0.3-0.3,0.5c-0.4,1.4-1,2.6-2,3.6
		c-0.1,0.1-0.1,0.2-0.2,0.3c-2.7,4.1-5.8,7.9-9.7,11c-0.8,0.7-1.7,1.3-2.5,2c-0.1,0.3-0.2,0.6-0.5,0.8c-0.5,0.3-1,0.6-1.5,1
		c-0.4,0.4-0.7,0.8-1.2,0.9c-2.1,1.1-4.3,2.2-6.6,2.9c-0.3,0.1-0.5,0.3-0.8,0.5c-0.7,0.3-1.5,0.1-2.2,0.6c-1.2,0.4-2.3,0.6-3.6,0.5
		c-0.6-1.1,0-2.8,1.2-3.1c1.2-0.3,1.9-1,2.6-2c0.5-0.8,1.4-1.3,1.9-2.1c0.3-0.5,0.7-0.9,0.9-1.4c0.2-0.4,0.4-0.8,0.8-0.8
		c1.8-0.2,2.5-1.9,3.6-2.9c0.7-0.7,1.4-1.7,2.2-2.3c2.2-1.6,3.7-3.8,5.6-5.7c0.9-0.9,1.7-2,2.8-2.7c0.2-0.2,0.5-0.3,0.6-0.6
		c0.4-1.7,2-2.4,3-3.5c1.4-1.5,2.9-2.8,4.6-3.9c0.8-0.5,1.1-1.5,1.5-2.4c0.6-1.2,1.4-1.5,2.7-0.9c0,0.2,0,0.5,0,0.7
		c0,0.4,0.1,0.8-0.3,1.2c-0.2,0.2-0.2,0.5-0.2,0.8C113.8,83.1,113.8,83.5,113.5,83.7z"/>
	<path fill="#0A0A0A" d="M95.8,107.8c0.2-0.2,0.5-0.3,0.7-0.5c0.5,0.2,0.9,0.4,1.4-0.1c0.4-0.3,1,0.1,1.5,0.2c0.3,0,0.4,0.4,0.3,0.7
		c-0.1,0.6-0.6,0.8-1.1,0.8c-1.3,0-1.7,1.1-2.3,1.8c-0.2,0.2-0.3,0.6-0.6,0.8c-1.1,0.5-1.9,1-1.7,2.4c0,0.1-0.2,0.3-0.3,0.4
		c-1.3,0.2-1.8,1.4-2.7,2.1c-0.4,0.3-0.8,0.3-1.2,0.5c-1.2,0.4-2.6,0.5-3.1,2.2c-0.2,0.6-1.1,1.1-1.8,1.6c-0.6,0.4-1,0.7-1.2,1.5
		c-0.3-1-2.1-1-1.5-2.5c0.1-0.2-0.3-0.4-0.5-0.4c-0.3,0-0.6-0.1-0.7,0.3c0,0.2-0.1,0.4-0.3,0.5c-0.3,0.1-0.5,0.3-0.8,0.3
		c-0.4,0-1.4,1-1.1-0.5c0.1-0.3-0.5-0.7-0.9-0.8c-0.6-0.1-1.2-0.1-1.8-0.2c-0.6,0-1.1-0.2-1.2-0.9c-0.1-0.5-0.3-0.9-0.8-1.1
		c-0.3-0.1-0.4-0.3-0.4-0.6c0-0.7-0.8-1.1-1.2-0.6c-0.4,0.5-0.8,0.5-1.1,0.4c-2.4-0.3-4.6,0.5-6.8,1c-0.3,0.1-0.8,0.2-0.8-0.2
		c-0.1-0.6,0.8-0.2,1-0.7c-2.2-1.4-4.9-1.2-7.3-2.3c0,0.5,0.5,1.1-0.4,1c-1.9-0.1-2.7,1.5-3.4,2.7c-0.7,1.2-1.3,1.5-2.5,1.1
		c-0.1,0-0.5-0.6-0.5,0.1c-0.1,0.2-0.2,0.2-0.2,0c0-0.6,0.1-1.2-0.2-1.7c-1.8-0.3-2.9,0.8-3.9,1.9c-0.2,0.2-0.5,0.4-0.8,0.4
		c-0.6-0.1-1.1,0.3-1.7,0.5c-1,0.4-1.5,0.1-1.5-1c0-0.8-0.2-1.3-1-1.4c-0.8-0.1-1.1-0.6-1.3-1.2c-0.1-0.9,0.6-1.4,1.1-2
		c0.2-0.3,0.5-0.6,0.3-1c-0.2-0.3-0.6,0-0.9-0.1c-0.9-0.7-1-1.1-0.2-1.8c0.9-0.8,1.3-1.8,1.2-3c-0.1-0.9,0.4-1.6,0.5-2.4
		c0.1-0.6,0.6-0.8,1.1-0.3c0.6,0.5,1.2,1,1.9,1.4c1.1,0.7,2.1,1.7,3.4,2.1c0.4,0.1,0.7,0.1,1,0c0.9,0.1,1.6,0.6,2.3,1
		c1,0.5,2.1,0.8,3.1,1.3c2,0.6,3.9,1.4,5.9,1.7c0.3,0.1,0.7,0.1,1,0.3c0.8,0.6,1.6,0.6,2.4,0.3c0.1,0,0.3,0,0.4,0.1
		c0.6,0.1,1.2,0.1,1.7,0.6c0.2,0.2,0.4,0.1,0.7,0.1c1.7-0.3,3.3-0.1,5-0.1c1.6,0.3,3.2-0.2,4.8-0.3c0.5,0,0.9-0.2,1.4-0.1
		c0.7,0.2,1.1,0.6,1,1.4c-0.1,0.3-0.3,0.7,0.2,0.8c0.4,0.1,0.7-0.2,0.7-0.6c0-0.9,0.6-1.1,1.3-1.3c0.8-0.2,1.3,0.1,1.5,1
		c0.1,0.6,0,1.3,0.1,1.9c0.1,0.5,0.2,0.9,0.7,1c0.5,0.1,0.7-0.3,0.9-0.6c0-0.1,0.1-0.1,0.1-0.2c0.1-0.6,1-0.7,0.8-1.4
		c-0.2-0.7-0.9-0.5-1.4-0.8c-0.9-0.5-0.4-1.1-0.4-1.8c0.7-0.2,1.3-0.4,2-0.7c1.2-0.1,2.3-0.7,3.6-0.5c0.8,0.1,2.1-0.8,2.7-1.4
		c0.4-0.5,0.9-0.8,1.2-1.5c0.4-0.2,0.8-0.5,1.2-0.7C95,108.7,95.4,108.3,95.8,107.8z"/>
	<path fill="#FEFEFE" d="M129.4,58.8c-3.2,0.7-5.2-0.4-6.3-3.7c-0.3-1-0.7-1.2-1.6-0.8c-0.7,0.3-1.4,0.4-2,0.7
		c-0.8,0.4-1.1,0-1.3-0.7c-0.7-2.4-0.7-2.4,1.6-3.1c3.1-0.9,6.1-1.9,9.2-2.8c0.6-0.2,1.1-0.4,1.4,0.3c0.5,1.6,1.2,3.1,1.5,4.7
		C132.3,56.1,131.7,57.5,129.4,58.8z"/>
	<path fill="#FDFDFD" d="M121.2,63.8c0,0,0.1,0,0.1,0c0.9,0.2,1.9,0.1,2.5,0.5c0.8,0.6-0.2,1.5-0.2,2.3c0,0.6-0.1,1.3,0.1,1.9
		c0.1,0.5,0.4,0.9,0.9,0.9c0.5,0,0.8-0.3,1-0.8c0.6-1.4,0.9-2.8,1.8-4c1.8-1.8,4.6-1.5,5.9,0.6c1.3,2,1.2,4.2,0.6,6.4
		c-0.1,0.4-0.4,0.6-0.8,0.5c-0.4-0.1-0.9-0.2-1.3-0.3c-0.7-0.1-1-0.4-0.7-1.2c0.3-0.8,0.3-1.7,0.2-2.5c-0.1-0.5-0.3-1-0.8-1
		c-0.5-0.1-0.8,0.4-0.9,0.8c-0.3,0.8-0.6,1.7-0.9,2.5c-0.9,2.1-2.4,2.9-4.3,2.7c-1.6-0.2-3.2-2.3-3.6-4
		C120.3,67.3,120.7,65.6,121.2,63.8z"/>
	<path fill="#FCFCFC" d="M81.8,123.2c0.8,3,1.6,6,2.4,9c0.2,0.6,0.4,1.1-0.5,1.3c-0.9,0.2-0.9-0.3-1-0.9c-0.9-3.5-1.9-7-2.8-10.5
		c-0.1-0.4-0.6-1,0-1.2c0.6-0.2,1.2-0.7,2,0c2.5,2.3,5,4.5,7.4,7c0.2,0.3,0.5,0.5,0.9,0.7c-0.6-2-1.1-4.1-1.7-6.1
		c-0.2-0.8-0.4-1.6-0.7-2.4c-0.2-0.6-0.6-1.2,0.5-1.4c1-0.3,0.9,0.4,1.1,1c0.9,3.5,1.9,7,2.8,10.5c0.1,0.4,0.5,0.9-0.1,1.2
		c-0.6,0.2-1.2,0.6-1.9-0.1c-2.6-2.5-5.4-4.9-7.9-7.5C82.3,123.4,82.1,123.2,81.8,123.2z"/>
	<path fill="#FCFCFC" d="M60.2,129.4c-0.4-1.3-1.9-2.3-3.1-2.1c-0.5,0.1-0.4,0.4-0.5,0.7c-0.3,1.3-0.5,2.6-0.8,3.9
		c-0.1,0.3,0,0.9-0.6,0.8c-0.5-0.1-1.3,0.1-1.3-0.9c0.6-3.9,1.7-7.7,2.5-11.5c0.1-0.4,0.3-0.6,0.8-0.5c1.5,0.1,3,0.3,4.4,0.9
		c1.4,0.6,2.3,1.6,2.3,3.2c0,1.6-0.8,2.7-2.4,3.4c-0.2,0.1-0.4,0.1-0.6,0.2c1.7,1.9,0.9,4.2,1.2,6.3c0,0.3-0.2,0.4-0.4,0.3
		c-0.5-0.2-1.4,0.1-1.4-0.9c-0.3-1.2,0.1-2.4-0.2-3.6C60.3,129.5,60.3,129.4,60.2,129.4z"/>
	<path fill="#FCFCFC" d="M45.6,119c0.5-0.5,1.1-1,1.6-1.6c1.4-1.5,1.4-1.5,3.2-0.4c-0.4,4.1-1,8.1-1.2,12.2c0,0.2-0.1,0.3-0.1,0.5
		c-0.2,0.3,0.2,1.1-0.5,0.9c-0.6-0.1-1.4-0.2-1.3-1.2c0.1-0.9,0.2-1.9,0.3-2.9c0.1-0.6-0.1-1-0.7-1.2c-1.1-0.5-2.2-1.4-3.3-1.4
		c-1.1,0-1.8,1.5-2.5,2.3c-0.8,0.9-1.5,0.4-1.9,0c-0.5-0.5,0-1,0.6-1.3c0.3-0.2,0.5-0.5,0.8-0.7C41.8,122.1,43.4,120.2,45.6,119z"/>
	<path fill="#FCFCFC" d="M76.6,134.5c-0.6,0.1-1-0.1-1.1-0.7c0,0,0-0.1,0-0.1c-0.4-1-0.5-2.5-1.3-3c-1-0.7-2.5-0.1-3.7-0.2
		c-0.6,0-0.9,0.2-1,0.8c-0.3,0.9-0.6,1.8-0.8,2.8c-0.1,0.4-0.3,0.6-0.8,0.7c-0.9,0.1-1.2-0.1-0.9-1.1c1.3-3.7,2.5-7.5,3.6-11.3
		c0.2-0.7,0.6-0.9,1.3-0.9c0.7,0,1.2,0,1.5,0.8c1.3,3.8,2.7,7.6,4.1,11.4C77.6,134.4,77.4,134.6,76.6,134.5z"/>
	<path fill="#FCFCFC" d="M116.5,115.2c0.1,0.4-0.1,0.5-0.3,0.7c-1.5,1.4-3.1,2.8-4.6,4.2c-0.4,0.4-0.6,0.3-1-0.1
		c-2.6-3-5.3-5.9-7.9-8.8c-0.4-0.4-0.3-0.7,0.1-1c1.4-1.3,2.9-2.5,4.3-3.8c0.4-0.4,0.7-0.3,1.1,0.1c0.4,0.5,0.3,0.7-0.1,1.1
		c-1,0.8-1.9,1.7-2.9,2.5c-0.5,0.4-0.5,0.7-0.1,1.1c0.8,0.7,1.4,2,2.3,2.2c0.8,0.1,1.5-1.2,2.3-1.8c0.3-0.2,0.6-0.5,0.8-0.7
		c0.4-0.4,0.7-0.5,1.2,0c0.5,0.5,0.2,0.8-0.2,1.1c-0.9,0.8-1.7,1.6-2.6,2.3c-0.4,0.4-0.5,0.6-0.1,1.1c0.9,0.9,1.6,2.4,2.7,2.6
		c1,0.2,1.8-1.4,2.8-2.2c0.3-0.3,0.6-0.6,1-0.9C115.6,114.5,116.5,114.9,116.5,115.2z"/>
	<path fill="#FCFCFC" d="M125,104.9c-0.1,0.1-0.2,0.3-0.3,0.5c-1.1,1.6-2.3,3.2-3.4,4.8c-0.4,0.5-0.7,0.6-1.2,0.2
		c-3.1-2.3-6.2-4.5-9.3-6.8c-0.6-0.4-0.6-0.7-0.2-1.2c1.1-1.5,2.2-3,3.2-4.5c0.3-0.4,0.5-0.6,1-0.2c0.5,0.4,0.5,0.7,0.2,1.1
		c-0.8,1-1.5,2.1-2.3,3.1c-0.3,0.5-0.3,0.7,0.1,1.1c2.6,2.2,2.6,2.2,4.6-0.6c0.3-0.4,0.5-0.7,0.8-1.1c0.3-0.5,0.6-0.4,1-0.1
		c0.4,0.3,0.6,0.6,0.2,1c-0.8,1-1.4,2-2.2,3c-0.3,0.4-0.4,0.7,0.1,0.9c0,0,0.1,0,0.1,0.1c1,0.7,2.1,2.1,3.1,2c0.9,0,1.5-1.8,2.2-2.7
		c0.3-0.4,0.6-0.8,0.9-1.2c0.1-0.2,0.3-0.4,0.6-0.2C124.5,104.4,124.8,104.5,125,104.9z"/>
	<path fill="#FCFCFC" d="M92.5,118.5c-0.5-0.1-0.5-0.5-0.7-0.8c-0.2-0.3-0.1-0.5,0.2-0.7c2.6-1.4,5.1-2.8,7.6-4.2
		c0.6-0.3,0.7,0.2,0.9,0.5c0.3,0.4,0.3,0.6-0.2,0.9c-0.7,0.4-1.4,0.8-2.1,1.1c-0.7,0.3-0.9,0.7-0.4,1.4c1.6,2.8,3.1,5.6,4.7,8.4
		c0.3,0.5,0.7,1-0.2,1.4c-0.8,0.4-1,0-1.3-0.5c-1.5-2.8-3.1-5.5-4.6-8.3c-0.4-0.8-0.8-1-1.6-0.5C94,117.7,93.2,118.1,92.5,118.5z"/>
	<path fill="#BEBEBE" d="M125.9,89.2c-1.4,0-2.5-1.1-2.5-2.5c0-1.4,1.1-2.6,2.5-2.6c1.4,0,2.5,1.1,2.6,2.5
		C128.5,88,127.4,89.2,125.9,89.2z"/>
	<path fill="#090909" d="M50.6,118.8c0.1,0,0.2,0,0.2,0c1.2,1.6,0.3,3.5,0.6,5.3c0.2,0.9-0.9,0.2-1.5,0.8c0.2-1,0.4-1.7,0.2-2.4
		c-0.1-0.4,0-0.4,0.7-0.8c0.3-0.2,0.1-0.4,0.1-0.6C50.6,120.4,50.6,119.6,50.6,118.8z"/>
	<path fill="#090909" d="M60.3,129.6c0.3,1.2,0.1,2.4,0.2,3.6C60,132,60.3,130.8,60.3,129.6z"/>
	<path fill="#626262" d="M61.9,0.7c0.7,0.4,1.5,0.4,2.5-0.1c-0.3,0.7-0.4,1.2-0.7,1.3c-2.1,1-3,3.3-5,4.3c-1.1,0.5-2,1.4-2.8,2.3
		c-0.9,0.9-2.1,1-3.1,1.3c-0.3,0.1-0.7,0.1-1,0.3c-0.2,0.1,0.1,0.2,0.2,0.3c0.2,0.4,0.1,0.8,0,1.2c-0.1,1.1-0.4,1.9-1.6,2.4
		c-0.8,0.4-1.6,0.9-2.2,1.6c-0.7,0.8-1.2,0.1-1.7-0.2c-0.1-0.1-0.3-0.1-0.4-0.3c-0.4-1-1.2-1.3-2.2-1.3c-0.4-0.8,0-1.9,0.8-2
		c2-0.1,2.9-1.6,4.3-2.6c1.6-1.1,2.9-2.4,4.4-3.6c0.6-0.5,0.9-1.2,1.3-1.8c0.6-1.1,1.9-1.3,2.5-2.3C58.7,1.1,60.3,0.7,61.9,0.7z"/>
	<path fill="#818181" d="M36.9,8.8c0.1-0.1,0.2-0.1,0.3-0.2c0.6,0.2,1.2-0.7,1.8-0.1c0.3,0.5,0.1,0.8-0.3,1.1c-2.4,1.8-4.3,4-6,6.5
		c-0.7,1-1,2-0.9,3c0.1,1.4-0.5,2.3-1.1,3.4c-1.8,1.2-2.9,2.8-3.7,4.7c-0.1,0.1-0.2,0.2-0.2,0.2c-0.2,1.6-1.5,2.5-2.1,3.9
		c-0.4,1.1-1.3,1.9-2.5,2.3c-0.7-0.1-1.4-0.3-1.6-1.2c0-0.2-0.1-0.4,0-0.6c0.7-0.8,0.7-1.7,0.6-2.8c-0.2-1,0.6-1.8,1.2-2.5
		c0.6-0.6,0.9-1.3,1.1-2.1c0.2-1,0.8-1.9,1.5-2.7c1.4-1.5,2.4-3.4,3.7-5c0.9-1.1,2.1-1.9,2.9-3.1c0.2-0.3,0.4-0.5,0.4-0.8
		c1.4-1.2,2.7-2.4,4.2-3.5C36.5,9.3,36.8,9.1,36.9,8.8z"/>
	<path fill="#6A6A6A" d="M57.1,1.4c0.7,0.4,0.7,0.9-0.1,1.2c-1.3,0.5-1.9,1.5-2.6,2.6c-0.7,1.1-1.8,2.1-2.9,2.8
		c-1.8,1.2-3.3,2.9-5.1,4c-0.3,0.2-0.6,0.4-1,0.3c-0.9-0.1-1.3,0.4-1.4,1.1c0.1,0.2,0,0.5-0.2,0.6c-1.2,0.9-2.4,1.7-3.9,1.9
		c-0.8-0.7-0.8-1.2-0.1-1.8c0.9-0.8,1.6-1.8,2.2-2.9c1-1.9,2.5-3.3,4.1-4.7c1.4-1.2,3-1.8,4.5-2.8c0.3-0.2,0.7-0.4,0.9-0.8
		C53.2,2.2,55.2,1.7,57.1,1.4z"/>
	<path fill="#636363" d="M9.6,54.3c-0.1-0.1-0.2-0.3-0.3-0.2c-2,2.3-4.5,4.1-6.2,6.7c-0.5,0.7-1.4,0.7-1.9,1.3
		C1,62,0.9,61.8,0.7,61.7c0.2-2.7,0.8-5.3,1.5-7.9c0.8,0,1.3-0.3,1.9-0.8c0.8-0.8,1.9-1.2,3-1.8c1.3-0.7,2.5-1.4,3.4-2.5
		c0.5-0.6,1.2-0.9,1.8-1.1c2.2-0.8,4.2-1.8,6.3-2.9c1,0.8,1,1.5,0.1,2.1c-1.4,0.9-2.8,1.8-4.5,2c-0.5,0.1-0.6,0.5-0.9,0.7
		c-1.3,0.7-1.7,2.1-2.4,3.3C10.5,53.3,10.6,54.3,9.6,54.3z"/>
	<path fill="#7B7B7B" d="M30.3,22.1c1.3-1,0.9-2.5,1-3.8c0.2-1.6,1-2.8,1.9-3.9c1.6-1.9,3.1-3.9,5.3-5.2c0.2-0.1,0.2-0.3,0.4-0.5
		c0.1-0.7,1-0.8,1.2-1.4c1.8-1,3.6-1.8,5.5-2.4c0.6,0.1,0.8,0.4,0.3,0.9c-0.2,0.2-0.4,0.4-0.7,0.5c-2.3,0.8-4,2.6-5.8,4.2
		c-1.2,1-2.2,2.1-2.9,3.6c-0.4,0.9-0.7,1.8-0.7,2.9c0.1,2-0.6,3.7-1.3,5.5c-0.5,1.3-0.8,1.3-2.3,0.6c-0.3-0.3-0.7-0.6-1.2-0.5
		C30.8,22.5,30.5,22.4,30.3,22.1z"/>
	<path fill="#838383" d="M5.5,43.9c0.4-1.4,1.2-2.7,1.8-4.1c0.3-0.1,0.7,0,0.9-0.4c0.5-1,1.5-1.3,2.4-1.9c0.4-0.2,0.8-0.5,1.2-0.4
		c1.1,0.3,2.1,0,3.2,0.2c1.2,0.1,1.9-0.3,2.5-1.2c0.3-0.4,0.5-0.8,1-1c1.1-0.2,1.8,0.4,2.5,1.1c0.6,1.4,0.3,2.3-0.9,3.1
		c-0.6,0.4-1.2,0.6-1.8,0.8c-1.8-0.7-2.7,0.3-3.3,1.8c0,0.1-0.2,0.2-0.3,0.2c-1.7,0.6-3.4,0.7-5.2,0.1c-1-0.3-1.7,0.6-2.4,1.3
		C6.6,44.2,6.1,44.7,5.5,43.9z"/>
	<path fill="#6B6B6B" d="M18.5,44.9c-0.6,0.9-1.5,1.4-2.5,1.8c-1.1,0.4-2.2,1-3.3,1.4c-0.9,0.3-1.7,0.8-2.3,1.8
		C9.9,50.5,8.9,51,8,51.4c-1.1,0.5-2,1.2-3,1.7c-0.6,0.3-1.1,0.8-1.4,1.4c-0.2,0.4-0.4,0.9-0.9,0.7c-0.5-0.1-0.1-0.6-0.1-1
		c0-0.2,0-0.4-0.2-0.5c0.1-0.8,0.3-1.6,0.7-2.4c0.2-0.4,0.6-0.6,1-0.8c0.7-0.3,1.4-0.8,1.8-1.5c0.6-0.8,1.3-1.2,2.2-1.5
		c1.1-0.3,2.1-0.8,3-1.5c0.4-0.4,1-0.5,1.5-0.6c1.6-0.3,3-1.1,4.1-2.3c0.7-0.3,1.3,0,1.7,0.5C18.6,44,18.5,44.5,18.5,44.9z"/>
	<path fill="#737373" d="M51.4,2.9c0.4,0.4,0.4,0.7-0.1,1c-1,0.6-1.9,1.4-3,1.7c-1.1,0.3-1.6,1.4-2.5,2.1c-1.4,0.9-2.6,2.2-3.1,3.8
		c-0.4,1-1.4,1.6-1.5,2.8c0,0.3-0.4,0.3-0.7,0.3c-0.5,0.2-0.8,0.5-0.5,1.1c-0.3,1.2-2,2.2-3.5,1.9c-0.4-0.4-0.4-0.9-0.2-1.2
		c1-1.1,1.2-2.4,1.6-3.7c0.6-1.8,2.2-2.6,3.3-4c1.2-1.4,3-1.9,4.5-3c0.6-0.5,1.3-0.9,1.8-1.5C48.8,3.6,50,3.1,51.4,2.9z"/>
	<path fill="#959595" d="M30,13.2c1.4-1.1,2.8-2.1,4.3-2.8c0.6,0.7,0,0.9-0.4,1.3c-2.1,1.8-4.3,3.5-6.2,5.5c-0.3,0.3-0.6,0.6-0.9,1
		c-2.6,1.9-4.7,4.3-6.7,6.7c-1,1.2-2,2.3-3,3.5c-0.7,0.9-1,2-1.6,3c-1,1.6-2.2,3.1-3.7,4.2c-0.9,0.6-1,1.7-1.7,2.4
		c-0.5,0.3-1,0.6-1.5,0.9c-0.4,0-0.5-0.3-0.5-0.6c0.8-1.8,1.8-3.4,2.9-5.1c0.4,0,0.7-0.3,0.9-0.6c1.1-1.8,2.3-3.4,3.6-5
		c1.8-2.3,3.7-4.5,5.8-6.6C24,18.1,27.2,15.8,30,13.2z"/>
	<path fill="#747474" d="M47.5,4.1c0,0.5-0.2,0.9-0.6,1.1c-1.2,0.5-2.3,1.4-3.3,2.1c-2.7,1.8-5.1,4-5.6,7.4
		c-0.2,1.1-1.4,1.6-1.5,2.7c0.1,0.3,0.4,0.4,0.4,0.7c-0.2,1.9-1,3.6-1.8,5.3c-0.7,1.6-1.9,2.8-2.9,4.2c-0.4,0.4-1,0.4-1.5,0.3
		c-1-0.1-1.5-0.9-1-1.9c0.2-0.4,0.4-0.7,0.7-0.9c1-0.7,1.8-1.5,2.2-2.7c1.1,0.5,1.3,0.4,1.7-1c0.2-0.5,0.3-1.1,0.6-1.6
		c0.5-1.1,0.5-2.2,0.5-3.4c0-2.4,1.1-4.4,3-5.9c2.2-1.8,4.2-3.8,6.9-4.9c0.3-0.1,0.8-0.3,0.4-0.9C46.2,4.4,46.8,4.2,47.5,4.1z"/>
	<path fill="#727272" d="M16.6,43.4c0.2,0.4,0.5,0.6-0.2,1c-1.4,0.7-2.9,1.1-4.2,1.9c-2.2,1.3-5,1.6-6.6,3.9C5,51,3.9,51.3,2.9,51.4
		c0.2-1.3,0.7-2.6,1.2-3.8c0.3-0.2,0.6-0.2,0.8-0.5c1.5-2,3.5-2.9,5.9-3.2c1.6-0.2,3.1-0.5,4.1-1.8C16.1,42.1,16.5,42.4,16.6,43.4z"
		/>
	<path fill="#8B8B8B" d="M8.6,38.6c0.3-0.4,0.6-0.8,1-1.2c0.9-0.7,1.7-1.4,2.6-2.1c0.7-0.5,1.4-0.7,2.2-0.2c0.5,0.3,1,0.4,1.4,0
		c0.5-0.4,0.6-0.9,0.3-1.5c0-0.1-0.1-0.2-0.1-0.2c0.6-2.3,0.1-4.8,2.3-6.7c1-0.9,2-2.1,2.8-3.3c0.3-0.5,0.6-1.2,1.4-1
		c0.5,0.5,0.1,0.9-0.2,1.3c-0.7,1.2-1.8,2.1-2.6,3.2c-1.1,1.5-1.2,2.5-0.1,4.1c0.3,0.5,0.4,1,0.1,1.4c-0.3,0.4-0.2,0.8,0.1,1.2
		c0,0.9-0.6,1.4-1.3,1.9c0.1,0.3,0.6,0.7-0.2,0.9c-0.4,0.1-0.6,0.5-0.8,0.8c-0.7,0.7-1.4,0.8-2.4,0.9c-1.7,0.1-3.5-0.7-5.2,0.4
		c-0.5,0.4-0.9,0.8-1.4,1.3c-0.4,0.4-0.8,0.6-1.3,0.1c0-0.1,0.1-0.2,0.1-0.3C7.7,39.2,8.2,38.9,8.6,38.6z"/>
	<path fill="#777777" d="M14.9,42.2c0.3,1-0.2,1.3-1.1,1.6c-1.1,0.3-2.3,0.4-3.4,0.6c-2,0.4-3.8,1.1-5,2.9c-0.4,0.6-0.8,0.5-1.3,0.1
		c0.3-1.3,0.8-2.4,1.4-3.6c0.6,0,0.9-0.3,1.3-0.8c1.1-1.4,2-1.7,3.7-1.2c1.1,0.3,2.2,0.4,3.2-0.2c0.4-0.2,0.7-0.2,1,0.2
		C14.9,42,14.9,42.1,14.9,42.2z"/>
	<path fill="#9F9F9F" d="M30,13.2c-0.9,1.7-2.5,2.8-3.9,4c-2.4,1.9-4.5,4.1-6.6,6.4c-1.5,1.6-3.1,3.2-4.3,5.1
		c-0.9,1.3-2,2.3-2.7,3.8c-0.2,0.5-0.6,1.4-1.5,0.8c4.5-7.2,10.1-13.3,16.8-18.4C28.5,14.1,29.2,13.5,30,13.2z"/>
	<path fill="#8B8B8B" d="M26.6,17.8c1.8-2.2,3.9-4,6.2-5.7c0.6-0.5,1.3-0.9,1.5-1.7c0.8-0.6,1.7-1.1,2.6-1.5c0.2,1-0.6,1.5-1.2,1.9
		c-1.2,0.7-2.2,1.8-3.3,2.5c-1.3,1.9-3.4,3.1-4.6,5c-0.2,0.3-0.7,0.5-1.2,0.1C26.5,18.1,26.5,17.9,26.6,17.8z"/>
	<path fill="#8B8B8B" d="M40.1,7.2c0.1,0.9-0.6,1.2-1.2,1.4c-0.6-0.1-1.1,0.7-1.7,0C38.1,8,39,7.5,40.1,7.2z"/>
	<path fill="#8B8B8B" d="M8.6,38.6c-0.2,0.7-0.8,0.8-1.3,0.9c0.3-0.5,0.5-1,0.8-1.4C8.3,38.3,8.5,38.5,8.6,38.6z"/>
	<path fill="#0E0E0E" d="M45.6,119c-1.6,1.8-3.3,3.6-5.1,5.2c-0.5-0.8,0.3-1.4,0.1-2.5c-0.3,1.7-1.7,1.5-2.5,1.9
		c-1,0.4-1.8,1.2-2.9,1.3c-0.4,0-0.6,0.4-0.7,0.7c-0.1,1-0.7,1.1-1.5,1.1c-0.6,0-1.2,0-1.4,0.7c-0.2,0.7,0.1,1.2,0.7,1.6
		c1.4,1.1-0.8,0.5-0.5,1.1c-3.2-2.1-6.2-4.3-8.9-7c0.3-2.1,0.4-4.2,1.1-6.3c0.4-1.3,0.6-2.6,1.5-3.7c0.3-0.4,0.4-1.1,0.1-1.6
		c-0.3-0.5-0.2-1.1-0.4-1.6c-0.1-0.5,0.2-0.8,0.6-1.1c1-0.9,1-1,0.3-2.2c-0.4-0.6-0.9-1.1-1.5-1.4c-0.7-0.7-0.5-1.2,0.3-1.6
		c0.7-0.4,1.2-1.6,0.9-2.2c-0.1-0.3-0.3-0.3-0.6-0.3c-0.9,0-1.2-0.5-1-1.3c0.5-0.6,1.2-0.7,1.9-0.6c1.7,0.3,3.1,1.1,4,2.6
		c0.3,0.4,0.6,0.9,0.9,1.2c-0.6-1.7-1.9-3-3.5-3.8c-0.4-0.2-0.9-0.3-1.1-0.8c-0.3-1.7,0.3-3.3,0.8-4.8c0.5-1.3,0.6-2.6,1.1-3.9
		c0.2-0.5,0.4-0.9,1-0.9c0.5,0,0.7,0.3,0.9,0.8c0.9,1.8,1.7,3.7,3.2,5.3c0.3,0.3,0.7,0.4,1.1,0.7c0.7,0.7,1.3,1.6,1.9,2.4
		c0.5,0.7,0.3,1.8,1.4,2c0.5,0.4,0.6,1.1,1.2,1.4c2.4,2,4.8,4.1,7.4,5.9c0.6,0.7,1.2,1.2,2.1,1.4c0.6,0.1,1.1,0.4,0.8,1.2
		c-1.2,0.4-1.9-0.5-2.8-1c-1.4-0.8-2.6-1.8-4.1-2.9c0.3,0.7,0.4,1.2-0.2,1.7c-0.4,0.4-0.3,1-0.2,1.5c0.1,1.2-0.1,2.1-1.2,2.7
		c-0.4,0.2-0.8,0.6-0.3,1.1c0.5,0.4,0.2,0.9-0.1,1.2c-1.6,1.8-2.8,3.9-4.6,5.5c-1.7,1.5-3.5,1.4-5.1-0.2c-1.3-1.3-1.3-3.1,0-4.9
		c1-1.3,2-2.6,3-3.8c0.5-0.6,1.2-1.2,1.4-2c-0.5-0.2-0.6,0.1-0.8,0.4c-1.3,1.5-2.5,3.1-3.7,4.7c-0.3,0.4-0.6,0.9-0.8,1.3
		c-0.9,1.9-0.6,3.7,1,4.9c1.7,1.4,3.6,1.4,5.3,0.2c1.2-0.9,2-2.2,3.1-3.3c0.3-0.3,0.6-0.8,1.2-0.5c0.2,0.3,0.4,0.5,0.7,0.6
		c2,0.5,2,0.6,1.8,2.6C44,119.8,44.7,118.6,45.6,119z"/>
	<path fill="#242424" d="M12.2,110.5c-1.1-1.4-2-3-2.9-4.6c0-0.7,0.4-0.5,0.8-0.3c0.4,0.3,0.9,0.5,1.6,0.7c-0.4-1.7,0.7-3.1,0.6-4.8
		c-0.1-1,0.8-1.8,1.3-2.6c0.4-0.7,0.7-1.3,0.8-2.1c0.2-1.7,1.1-3.1,1.5-4.7c0.3-1,0.2-2.1,1.1-2.8c1.2-0.6,1.8-1.6,1.8-3
		c0.8-1.6,1.7-3.3,2.1-5c0.5-2,1.4-3.9,2.3-5.7c0.4-1,0.7-2,1-3c0.4-1.2,1-1.5,2.1-1.1c0.7,0.7,0.2,1.5,0.1,2.3
		c-1.1,1.8-1.6,3.8-2.3,5.8c-0.2,0.6-0.4,1.1-0.6,1.7c-0.8,1.4-1.5,2.9-1.4,4.6c0.1,0.8-0.5,1.5-0.8,2.3c-0.2,0.8-0.7,1.6-0.7,2.5
		c0,0.2-0.1,0.5-0.3,0.6c-1.5,1-1.5,2.7-2.1,4.1c-0.5,1-0.7,2-0.6,3.1c0,0.6,0,1.3-0.4,1.9c-0.2,0.5-0.2,1-0.2,1.5
		c0.1,0.8-0.3,1.7-0.3,2.4c-0.1,1.8-1.3,3.1-1.7,4.7c-0.3,1-0.7,1.8-1.6,2.3C12.8,111.5,12.6,110.7,12.2,110.5z"/>
	<path fill="#343434" d="M5,96.8c-0.3-1.3-1.3-2.5-1.4-3.9c0-0.8,0.8-1.2,1.2-1.8c0.9-1.3,1.6-2.6,2.3-4c1.1-2.3,1.8-4.9,3.2-7.1
		c1.3-2.1,2.4-4.3,4-6.2c0.8-0.9,1.1-2.2,2.2-2.8c0.6,0,1.1-0.1,1.7,0c0.8,0.5,0.8,1.1,0.5,1.9c-0.8,1.7-1.7,3.4-1.9,5.3
		c0,0.2-0.1,0.4-0.2,0.6c-1.7,1.5-1.5,4.1-3.2,5.6c-0.3,0.3-0.3,0.8-0.4,1.2c-0.3,1-0.7,1.9-1.5,2.6c-1.3,1.2-1.9,2.8-2.2,4.4
		C9,93.9,8.6,95,7.5,95.8c-0.7,0.5-0.9,1.3-1.7,1.6C5.3,97.5,5.3,96.9,5,96.8z"/>
	<path fill="#181818" d="M25.7,109.9c1.2,1.9,1.3,2.8-0.1,4.5c-0.9,1.1-0.5,2.4-1,3.6c-0.5,1.2-1,2.5-0.4,4c0.3,0.7-0.5,1-1.1,1.2
		c-2.3-2-4.4-4.1-6.2-6.5c-0.2-0.9-0.8-1.7-0.5-2.8c0.3-0.9,0.9-1.7,1.2-2.6c0.3-0.8,0.5-1.5,0.3-2.3c-0.2-1-0.1-2-0.2-3
		c0-0.4-0.1-0.9,0.6-1c0.6,0.2,0.7,0.7,0.8,1.2c0.5,1.5,1.3,2.8,2.4,3.9c0.9,0.9,1.4,1,2.5,0.3C24.5,110,24.9,109.3,25.7,109.9z"/>
	<path fill="#3A3A3A" d="M16.3,71.3c-0.6,1.1-1,2.3-1.9,3.3C14,75,13.7,75.5,13.4,76c-1.9,3.1-3.6,6.3-5,9.6c-0.8,2-1.6,4.3-3.3,5.9
		c-0.5,0.5-0.9,1.2-0.6,2c-0.6,0.1-0.3-0.9-1-0.6c-0.5-1.1-0.8-2.2-1-3.3c-0.2-1.1,0.8-1.5,1.2-2.2c0.3-0.3,0.7-0.6,0.8-1
		c0.7-2.3,2.1-4.2,3.5-6.1c1.3-1.8,2.3-3.8,3.4-5.8c0.5-0.9,1-1.8,1.7-2.6c0.5-0.7,1.1-0.9,1.9-1.1C15.5,71,16,70.8,16.3,71.3z"/>
	<path fill="#272727" d="M17.3,89.3c-0.6,2.8-2,5.4-2.5,8.3c-0.2,1.2-1.1,2-1.6,3c-0.3,0.5-0.4,0.9-0.3,1.5c0.1,0.3,0.1,0.7,0,0.9
		c-0.7,1.1-0.6,2.3-0.6,3.5c0,0.4-0.1,0.9-0.5,1c-0.5,0.1-0.3-0.6-0.5-0.6c-0.7-0.2-1.3-0.6-1.9-1c-0.4-0.5-0.8-1-0.9-1.7
		c-0.1-0.1-0.1-0.3,0-0.3c1.1-0.6,1.1-2,1.9-2.8c0.2-0.2,0.3-0.6,0.4-0.9c0-0.2,0-0.4,0.1-0.6c0.7-1.4,1.2-2.7,1.1-4.4
		c0-0.7,0.9-1.4,1.3-2.2c0.6-1.4,1-2.8,0.4-4.3c0-0.2,0.2-0.3,0.3-0.4c1.1,0,2.2,0.3,3.2,0.5C17.2,88.9,17.2,89.1,17.3,89.3z"/>
	<path fill="#3C3C3C" d="M14.9,71.3c-1.1,0.7-2,1.7-2.5,2.8c-1.6,3.7-4.1,6.8-6.2,10.2c-0.2,0.3-0.4,0.6-0.5,0.9
		c-0.4,1.9-1.6,3.2-3.1,4.3c-0.3-1.7-1.2-3.3-1.2-5.1c-0.1-0.4-0.3-0.9,0.1-1c0.5-0.2,0.6,0.4,0.7,0.8c0.1,0.3,0.1,0.8,0.6,0.8
		c0.4,0,0.3-0.5,0.4-0.8c0.3-0.8,1-1.3,1.5-2c0.8-1.1,1.4-2.2,2-3.4c0.6-1,1-2.1,1.9-2.9c0.5-0.5,0.6-1-0.4-1.1
		c-0.4,0-0.9-0.1-0.9-0.6c0-0.6,0.5-0.7,0.9-0.7c1.1-0.1,1.6-0.8,1.6-1.8c0.3-1.6,0.3-1.6,1.9-1.6c1.6,0,3.2,0,4.9,0
		c0.5,0,1.1-0.1,1.5,0.5c0.2,0.6-0.3,0.4-0.5,0.5C16.8,71.2,15.8,71,14.9,71.3z"/>
	<path fill="#424242" d="M10.5,72.1C10.6,74,10.6,74,8,74.4c0.8,0,1.6,0,2.7,0c-1.4,1.9-2.8,3.4-3.7,5.3c-0.8,1.6-1.7,3.2-3,4.5
		c-0.3,0.3-0.3,1-0.4,1.5c-0.1,0.3-0.2,0.6-0.5,0.7c-0.4,0.1-0.6-0.3-0.8-0.5c-0.5-0.5-0.4-1.3-0.7-2.1c-0.1,0.4-0.1,0.5-0.1,0.7
		c-0.3-0.9-0.5-1.9-0.5-2.8c-0.2-0.8-0.1-1.1,0.8-1.5c1.3-0.6,1.9-1.9,2.5-3.2c0.7-1.4,1.6-2.7,2-4.3c0.3-1.2,1-1.1,2,0.2
		c0.6,0.5,1.1,0.3,1.5-0.2C9.9,72.4,10.1,72.1,10.5,72.1z"/>
	<path fill="#2C2C2C" d="M13.7,88.8c0.8,0.8,1.3,1.6,0.6,2.8c-0.6,1.2-0.7,2.6-1.8,3.6c-0.4,0.3-0.2,0.8-0.1,1.2
		c0.2,0.9,0.1,1.7-0.6,2.3c-0.1,0.1-0.3,0.3-0.3,0.5c0.1,1.6-1.3,2.6-1.5,4.1c-0.1,1-1,0.7-1.6,0.9C7,101.8,5.9,99.4,5,96.8
		c0.4-0.1,0.4,0.2,0.5,0.4c1.3,0.4,1.4,1.7,2.1,2.7c0.4-1.2,0.8-2.2,0.9-3.4C8.6,96,8.7,95.4,9,95c1.2-1.3,1.8-2.9,2.7-4.4
		C12.2,89.8,12.7,89.1,13.7,88.8z"/>
	<path fill="#494949" d="M7.5,73.9c-0.4-0.4-0.2-1-0.4-1.5c-0.3,1.9-1.5,3.3-2.2,5c-0.7,1.6-1.9,2.8-3.1,4c-0.2,0.2-0.3,0.1-0.5,0
		c-0.6-0.3-0.1,0.3-0.3,0.3c-0.2-0.4-0.3-0.9-0.2-1.3c0.3-0.5-0.4-1.3,0.5-1.7c-0.1-1.2,0-2.1,1.1-3c0.9-0.7,1-2.1,1.6-3.1
		c0.8-1.2,1.8-2.2,2.8-3.3c0.4-0.4,0.5-0.8,0.5-1.3c0-1.2,0-2.4,0-3.6c0.1,0,0.2,0,0.3,0c0,1.6,0,3.2,0,4.8
		C8.3,70.3,8.3,72.8,7.5,73.9z"/>
	<path fill="#1F1F1F" d="M18.2,105.1c-0.4,0.7-0.2,1.3,0,2c0.7,2.1,0.1,4-0.8,5.9c-0.2,0.3-0.3,0.6-0.4,1c-0.3,1.4-0.4,1.4,1.1,1.4
		c0.1,0,0.2,0.1,0.3,0.1c-0.2,0.9-1.1,0.8-1.7,1.2c-1.7-1.9-3.3-3.9-4.6-6.1c0.5-0.2,0.6,0.4,1,0.4c0.4,0,0.5,0.5,1,0.5
		c0.6-1.6,1.8-2.9,2.4-4.6c0.3-0.7,0.4-1.4,0.5-2.2c0-1,0.4-1.2,1.4-0.9C18.8,104.2,18.8,104.7,18.2,105.1z"/>
	<path fill="#424242" d="M1.2,78.7c-0.2,0.6-0.3,1.1-0.5,1.7c-0.2-0.8-0.3-1.5-0.3-2.3c0-0.5,0-1.1,0-1.6C0.7,77.2,0.7,78,1.2,78.7z
		"/>
	<path fill="#0E0E0E" d="M111.4,39.7c-0.1-0.2,0-0.5-0.3-0.7c-0.1,0.1-0.2,0.1-0.2,0.2c-0.2,0.6,0.3,1.4-1.1,1c-1-0.3-2.3,0-3.4,0
		c-0.9,0-1.1,0.6-1.1,1.2c-0.1,0.8,0.5,0.8,1,0.8c0.6,0,0.9,0.1,0.4,0.7c-0.2,0.2,0,0.5,0.1,0.5c1.4,0.3,1,2.3,2.4,2.5
		c0,0,0.1,0.2,0.1,0.3c-0.2,0.9,0.2,1.5,0.7,2.2c0.2,0.3,0.1,0.6-0.1,0.9c-0.6,0.2-0.9-0.1-1-0.6c-0.2-0.9-0.8-1.6-1.5-2.2
		c-1.9-2.6-3.9-5.1-6.1-7.5c-0.9-0.9-2-1.6-3-2.3c-0.7-0.6-1.1-1.6-2.1-1.9c-0.1,0-0.2-0.1-0.3-0.2c-0.5-1-1.8-1.2-2.5-2.1
		c-0.9-1.1-2.4-1.3-3.5-2c-0.5-0.4-1.1-0.7-0.9-1.4c0.2-0.7,0.8-0.5,1.4-0.6c1.6-0.2,3.2-0.3,4.5-1.4c0.5-0.4,1-0.7,1.6-0.7
		c0.7,0,1.2-0.5,1.8-0.9c0.8-0.5,1.5-0.5,2,0.4c0.2,0.6-0.2,1.1-0.5,1.5c-0.5,0.6-0.7,1.2,0,1.8c0.7,0.6,1.3,0.4,1.9-0.3
		c0.5-0.6,1-1.2,1.4-1.8c0.6-0.8,1.2-0.9,2-0.3c0.7,0.5,1.4,1.1,2,1.7c0.6,0.6,0.7,1.2,0.2,1.9c-0.5,0.7-1.1,1.3-1.6,2
		c-0.5,0.7-0.5,1.2,0.2,1.8c0.6,0.5,1.2,0.4,1.7-0.2c2.1-2.5,4.1-5.1,6.2-7.6c0.3-0.4,0.4-0.9,0.5-1.3c0.2-0.9,0.8-1.2,1.7-1
		c1.1,0.2,2.2,0,3.2,0.3c0.5,0.1,0.9,0,1.1-0.5c0.2-0.6,0.8-1.3,0.2-2c-0.2-0.2-0.4-0.4-0.5-0.6c-0.2-0.4-0.4-0.9,0.4-0.9
		c2.5,2.3,4.7,4.8,6.6,7.5c-0.3,0.4-0.8,0.4-1.4,0.6c0.6,0.2,1.4,0,1.4,0.4c0.1,1,0.9,1.2,1.4,1.9c0.3,0.4,0,1.3,1,1.3
		c0.2,0,0,0.3,0,0.5c-0.1,0.3-0.2,0.5-0.5,0.3c-1-0.4-2.1-0.1-3.1-0.2c-0.4,0-0.8-0.2-1.1-0.4c-1.1-0.9-2-0.6-2.4,0.8
		c-0.2,0.6-0.1,0.4-0.7,0.3c-1-0.3-2.1-0.8-3.2-0.6c-0.9,0.2-1.8,0.6-2.7,0.9c-0.2,0.1-0.3,0.3-0.2,0.5c0.2,0.6-0.2,0.9-0.6,1.1
		c-1.4,0.9-2.3,2.1-2.9,3.6C112.1,39.3,112,39.7,111.4,39.7z"/>
	<path fill="#1E1E1E" d="M110.2,12c1.5,0.9,3,1.9,4.3,3.1c0.7,1,1.5,1.8,2.5,2.4c0.3,0.2,0.7,0.3,0.6,0.8c-0.1,0.4-0.5,0.6-0.9,0.6
		c-0.7,0-1.5,0.2-2.2-0.2c-0.7-0.3-1.5-0.2-2.2,0.1c-1.5,0.5-3,1.1-4.6,0.4c-0.2-0.1-0.5,0.1-0.7,0.2c-1.2,0.4-1.6,1.7-2.5,2.4
		c-0.4,0.3-0.6,0.7-1.2,0.6c-1.4-0.3-2.7-1-4.1,0c-0.2,0.2-0.5,0.1-0.8,0.2c-0.8,0.2-1.1-0.1-1.2-0.9c-0.1-1-0.3-1.8-1.4-2.1
		c-0.7-0.6-1.4-1.3-2-2c-0.4-0.5-0.7-1.1-0.3-1.8c0.3-0.6,0.9-0.7,1.5-0.7c0.7,0,1.3,0.3,1.9,0.7c1.3,0.8,1.7,0.7,2.2-0.9
		c0-0.1,0.1-0.2,0.1-0.3c0.4-0.5,0.9-0.5,1.4-0.2c0.8,0.5,1.5,0.4,2.4-0.1c1.2-0.6,2.5-0.7,3.8-0.9c0.9-0.1,1.7-0.2,2.3-1.1
		C109.3,11.9,109.7,11.8,110.2,12z"/>
	<path fill="#2D2D2D" d="M99.2,6c0.9,0.3,1.8,0.7,2.6,1.2c0.5,0.5,1.2,0.8,1.8,1.1c0.4,0.1,0.7,0.3,0.7,0.7c0,0.5-0.3,0.9-0.7,1
		c-1.3,0.2-2.1,1.2-3.1,2c-0.9,0.7-1.7,1.2-2.9,0.9c-0.6-0.2-1.1,0.3-1.7,0.4c-1.6-0.4-3,0.1-4.4,0.6c-0.6-0.3-1.2-0.3-1.8,0.1
		c-1.2,0.8-2.6,0.9-3.9,1.2c-1.8,0.5-3.5,1.3-5.1,2.2c-1.6,1-2.3,0.7-2.8-1.2c0.1-0.5,0.1-0.9,0.7-1.1c0.8-0.2,1.3-1,2-1.4
		c2.8-1.7,5.8-3.1,8.4-5.1c0.3-0.2,0.6-0.4,0.9-0.3c1,0.3,1.9,0,2.9-0.3c0.7-0.2,1.3-0.5,1.8-1.1c0.2-0.3,0.6-0.6,1-0.5
		c0.9,0.2,1.8,0.2,2.6-0.3C98.5,5.8,98.9,5.9,99.2,6z"/>
	<path fill="#171717" d="M106.8,18.6c1.2,0,2.3,0.6,3.6,0.2c0.8-0.2,1.6-0.6,2.5-0.8c1.4-0.3,2.5,0.6,3.8,0.3c0.2,0,0.4,0,0.6,0
		c-0.5-1-1.5-0.6-2.2-1.1c-0.3-0.2-0.6-0.2-0.3-0.6c0.5-0.6-0.7-0.9-0.3-1.5c2.2,1.6,4.2,3.3,6,5.3c-0.2,0.9,0.7,1,1,1.4
		c0.3,0.5,0.3,0.7,0.1,1.3c-0.7,2.1-1.9,2.3-3.7,1.6c-0.7-0.2-1.5-0.1-2.3-0.2c-0.5-0.1-0.6,0.2-0.7,0.6c-0.5,0.5-0.9,0-1.3-0.2
		c-0.8-0.6-1.4-0.4-1.9,0.3c-0.5,0.6-1,1.2-1.5,1.7c-0.6,0.6-1.1,0.6-1.7,0.1c-0.7-0.6-1.4-1.2-2.1-1.8c-0.6-0.6-0.6-1.1-0.2-1.8
		c0.4-0.6,0.8-1.1,1.2-1.6c0.8-1.1,0.8-1.2-0.2-2.1C107,19.5,106.4,19.2,106.8,18.6z"/>
	<path fill="#353535" d="M99.2,6c-1,0.7-1.9,1.7-3.4,0.9c-0.2-0.1-0.5,0-0.6,0.2c-0.8,1.4-2.4,1.2-3.6,1.9c-0.1,0.1-0.3,0.1-0.5,0.1
		c-1.7-0.8-2.6,0.7-3.8,1.3c-1.5,0.8-2.7,2-4.5,2.5c-1,0.3-1.9,1.2-2.8,1.9c-0.4,0.3-0.6,0.6-1.1,0.6c-0.5-0.2-0.7-0.6-0.7-1.1
		c0-1-0.3-2-0.4-3c0.4-1.1,1.5-1.5,2.4-2c0.9-0.5,1.8-0.9,2.5-1.6c0.3-0.3,0.6-0.6,1-0.6c1.7-0.4,2.9-1.5,4.2-2.3
		c0.6-0.4,1.2-0.8,0.5-1.7c-0.3-0.4-0.2-0.8,0.5-0.6C92.4,3.2,95.9,4.4,99.2,6z"/>
	<path fill="#252525" d="M96,12.7c0.8-0.3,1.5-0.6,2.4-0.4c0.5,0.1,1.1-0.2,1.5-0.6c0.7-0.6,1.4-1.2,2.2-1.9
		c0.2-0.2,0.4-0.3,0.6-0.4c0.4-0.2,1.2,0.2,1.2-0.6c0-0.6-0.9-0.4-1.2-0.8c-0.3-0.3-1-0.1-0.9-0.9c3,1.3,5.8,2.9,8.4,4.8
		c-0.4,1.3-1.5,1.8-2.7,1.9c-1.7,0.2-3.3,0.4-4.9,1.2c-0.7,0.4-1.7,0.7-2.4-0.4c-0.1-0.2-0.4-0.2-0.6-0.1c-1.3,0.3-2-0.8-3.1-1.2
		C96.2,13.4,96,13.1,96,12.7z"/>
	<path fill="#434343" d="M68.9,7.2c1,0.1,1.9-0.2,2.9,0c0.3,0,0.7,0,0.8-0.2c0.6-1.1,1.9-1.3,2.7-2.3c0.7-0.8,1.9-1.3,2.9-1.8
		c0.8-0.4,1.5-0.9,2.2-1.6c-1-0.6-2.1-0.1-3.1-0.7c0.3,0,0.5-0.1,0.6-0.1c2.3,0.1,4.5,0.4,6.7,1c0.1,0.1,0.2,0.2,0.3,0.2
		c0.5,0.1,1.2,0.1,1.3,0.8c0.1,0.7-0.5,1-0.9,1.3c-3,1.9-5.9,3.8-8.9,5.6C74.1,8.4,71.7,8,69.3,8c-0.4,0-0.8,0-1.2,0.1
		c-0.5,0.1-0.9,0-1-0.6C67.5,6.8,68.1,6.5,68.9,7.2z"/>
	<path fill="#3B3B3B" d="M76.5,8.9c0.2-0.8,0.9-1.1,1.6-1.4c1.7-0.8,2.9-2.3,4.7-2.9c1-0.3,1.8-1.2,2.6-1.8c0.4-0.3,0.4-0.7-0.2-0.9
		c-0.4-0.1-0.8-0.2-1.3-0.3c0.1-0.2,0.4-0.1,0.5-0.2c1.5,0.2,2.9,0.5,4.3,1C88.6,3,89.3,2.8,89.5,3c0.5,0.4,0.8,0.7,0.1,1.2
		c-1.9,1.2-3.7,2.6-5.9,3.6c-1.5,0.7-3,1.7-4.3,2.9c-0.4,0.3-0.8,0.3-1.2,0.5C77.2,10.9,76.5,10,76.5,8.9z"/>
	<path fill="#FEFEFE" d="M9.6,54.3c0.6-1.5,1-3.2,2.1-4.5c0.3-0.4,0.6-0.5,1-0.7c0.9-0.7,2-0.4,3.1-0.5c0.7,0.6,1.4,1.1,2.1,1.8
		c0.5,0.6,1.2,0.6,1.9,0.6c1.2,0,2.5,0,3.7,0c0.4,0,0.9-0.1,1.2,0.3c0.1,0.1,0.1,0.2,0.1,0.4c-0.1,0.8-0.3,1.5-0.5,2.2
		c-0.2,1.2-0.7,1.6-2,1.5c-1-0.1-1.9,0.5-2.8,0.4C19,56,19,56.2,19.4,56.5c0.4,0.2,1,0.1,1.4,0.4c0.3,0.3,0.7,0.5,1.1,0.6
		c0.6,0.1,0.8,0.5,0.8,1.1c-0.1,0.4-0.1,0.9-0.2,1.3c-0.3,1.6-0.5,1.8-2.2,1.9c-0.9,0-1.6-0.5-2.4-0.8c-1.7-0.2-3.1-1.2-4.6-1.9
		c-1-0.5-2.1-0.7-3.1-1c-0.9-0.2-1.2-0.6-1-1.6C9.3,55.7,9.3,55,9.6,54.3z"/>
	<path fill="#FEFEFE" d="M7.5,73.9c0-1.6,0-3.1,0-4.7c0.1-1.5,0.2-3.1,0.2-4.6c0-0.8,0.3-1.1,1-1c0.7,0.1,1.5-0.3,2.1,0.5
		c0.1,0.1,0.3,0.2,0.3,0.4c0.1,0.6-0.3,1.4,0.5,1.9c0.9,0.9,2,0.4,3.1,0.3c0.2-0.1,0.4-0.2,0.6-0.2c0.9-0.1,1.7,0,2.5,0.4
		c0.7,0.3,1.5,0.2,2.2,0.2c0.9,0,1.3,0.4,1.3,1.3c-0.1,0.8-0.1,1.7-0.4,2.4c-0.1,0.2-0.3,0.4-0.5,0.5c-0.7,0.1-1.5,0.3-2.2-0.3
		c-2.4-0.1-4.7-0.2-7.1-0.3c-1.2,0-0.6,0.9-0.7,1.4c-0.3,1.8-0.3,1.8-2.1,1.8C8.1,73.9,7.8,73.9,7.5,73.9z"/>
	<path fill="#434343" d="M10.8,64.6c0-0.2,0-0.3,0-0.5c1.1-0.1,1.3-0.9,1.7-1.8c0.4-0.9,1.2-1.6,1.8-2.4c-0.1-0.7-1.2,0-1.1-0.9
		c1.6,0.4,3.2,0.9,4.8,1.5c0.4,0.5,0.2,1,0,1.6c-0.3,1.1-1.2,1.8-1.7,2.7c-1,2.1-2.8,2.4-4.9,2.2c-0.5-0.1-0.6-0.3-0.7-0.8
		C10.7,65.6,11.1,65.1,10.8,64.6z"/>
	<path fill="#FDFDFD" d="M51.4,11.3c-0.1-0.4,0.1-0.8,0.5-0.9c2.2-0.5,4.3-1,6.5-1.5c0.5-0.1,0.9-0.4,1.3,0.1c0,0.7,0.2,1.3,0.5,1.9
		c0.5,0.7,0,1-0.5,1.2c-0.7,0.3-1.5,0.4-2.3,0.6c-0.3,0.1-0.8,0.2-0.7,0.7c0.1,0.4,0.5,0.2,0.8,0.2c0.7-0.1,1.4-0.3,2.1-0.5
		c0.6-0.1,1-0.1,1.3,0.5c0.2,0.6,0.3,1.2,0.5,1.7c0.4,0.8,0.1,1.4-0.7,1.7c-0.7,0.3-1.4,0.4-2.2,0.7c-0.4,0.1-0.9,0.2-0.8,0.7
		c0.1,0.6,0.7,0.4,1.1,0.3c0.7-0.1,1.3-0.2,2-0.3c1.7-0.3,2.1-0.1,2.5,1.8c0.2,1.1-0.2,1.7-1.3,2c-0.8,0.2-1.6,0.5-2.5,0.5
		c-0.4,0-0.8,0.2-1.1,0.4c-1.3,0.1-2.3,1.1-3.7,0.9c-0.5-0.2-0.8-0.7-1-1.1c-0.2-0.3-0.3-0.6-0.4-1c-0.2-1.3-0.6-2.5-1.1-3.7
		c-0.1-1.3-0.1-2.7-0.9-3.9C51.6,13.3,51.2,12.3,51.4,11.3z"/>
	<path fill="#4E4E4E" d="M60.7,13.8c-0.8-0.5-1.5,0.1-2.3,0.2c-0.4,0-0.9,0.1-1.3,0.3c-1.1,0.5-1.3-0.1-1.5-1
		c-0.1-0.6,0.1-0.8,0.6-0.9c1.1-0.3,2.2-0.6,3.2-0.8c0.4-0.1,0.8-0.2,0.8-0.7c0.1-0.5,0.7-0.5,1-0.6c3.2-1,5.7-3.1,8.2-5.2
		c1.7-1.5,3.2-3.2,5-4.6c0.4,0,0.7,0,1.1,0.1c0.4,0.1,0.6,0.4,0.3,0.7c-0.9,0.9-1.3,2-2.6,2.6c-1.3,0.6-2.5,1.4-3.4,2.7
		c-0.2,0.3-0.6,0.4-0.8,0.7c-0.6,0.1-1.3-0.2-1.7,0.4c0,0.2,0,0.4,0,0.5c0,0.3,0,0.6,0,0.8c-0.2,2.6-1.4,4.2-3.9,5
		c-0.3,0.1-0.6,0.2-0.9,0.3C61.3,14.9,61.3,14.9,60.7,13.8z"/>
	<path fill="#C4C4C4" d="M60.6,114c-2.1-0.4-4.1-1-6-1.9c0-1.3,0.8-2.1,1.6-2.9c0.9-0.9,2.1-1.4,3.2-2c0.7-0.3,1.3-0.7,1.7-1.4
		c0.4-0.7,1.1-0.8,1.8-0.7c0.8,0.1,1.4,0,2-0.6c0.1-0.1,0.3-0.3,0.5-0.4c2.5-0.7,4.5-2.6,7.2-3.2c1.7-0.4,3.3-1.2,4.8-2.1
		c1.3-0.7,2.8-1,3.6-2.4c0.1-0.2,0.4-0.3,0.6-0.3c1.5-0.4,2.5-1.5,3.6-2.5c1.9-1.6,3.6-3.2,5.3-5c1.5-1.5,2.9-3,4.2-4.6
		c1-1.4,1.9-3,2.5-4.6c0.1-0.4,0.2-0.8,0.5-1.1c1.4-1.1,1.9-2.7,2.2-4.4c0.1-0.5,0.3-1,0.6-1.4c0.6-0.7,1-1.5,1.2-2.3
		c0.1-0.5,0.3-0.9,0.7-1.2c0.2-0.2,0.4-0.4,0.5-0.7c0.5-2.2,1.9-4.1,2.5-6.3c0.1-0.4,0.2-0.8,0.5-1c0.9-0.4,1.3-1.2,1.5-2.1
		c0.3-1.2,1.2-2.1,1.8-3.2c0.7-1.2,1.9-0.7,2.9-0.6c1,2,1.6,4.2,1.9,6.4c0.2,0.8,0.1,1.2-0.8,1.4c-1.4,0.3-2.1,1.4-2.6,2.6
		c-0.3,0.9-0.7,1.6-1.4,2.2c-0.6,0.5-0.7,1.3-0.8,2c-0.2,1-0.6,1.8-1.4,2.4c-0.7,0.5-0.9,1.3-1.4,1.9c-1,1.5-1.7,3.2-2.3,4.9
		c-0.1,0.2-0.3,0.4-0.5,0.5c-1,0.8-1.8,1.6-1.9,3c0,0.4-0.4,0.7-0.6,1c-2.1,2.3-4,4.8-6.4,7c-2.7,2.3-4.9,5.1-7.5,7.5
		c-1.3,1.2-2.7,2.5-4.2,3.3c-2,1.2-4.1,2.5-6.4,3.2c-0.5,0.1-0.8,0.4-1.2,0.8c-1.9,1.9-4.1,3.4-6.7,4.2c-0.3,0.1-0.6,0.3-0.9,0.6
		c-0.9,0.6-1.7,1.3-2.7,1.7c-0.9,0.4-1.6,1.1-1.8,2.1c-0.1,0.3-0.2,0.5-0.5,0.6C61.8,114.2,61.2,114.1,60.6,114z"/>
	<path fill="#C8C8C8" d="M112.3,55.2c-0.1,0.1-0.2,0.2-0.2,0.2c-2.9,0.2-3.4,2.6-4.3,4.7c-0.1,0.3-0.1,0.8-0.4,0.9
		c-1.2,0.4-1.1,1.4-1.6,2.3c-0.9,1.7-1.2,3.8-2.3,5.3c-1,1.4-1.3,3.1-2.5,4.4c-0.8,1-0.5,2.5-1.2,3.6c-0.1,0.2-0.1,0.6-0.3,0.8
		c-1.4,1-1.6,2.8-2.6,4c-0.9,1.1-1,2.6-2.1,3.6c-2.5,2.4-4.8,5.1-7.4,7.5c-1.1,1.1-2.3,2-3.4,3.1c-0.3,0.3-0.7,0.4-1,0.5
		c-0.9,0.3-1.8,0.6-2.3,1.6c-0.1,0.2-0.5,0.4-0.8,0.5c-1.8,0.7-3.5,1.8-5.2,2.6c-1.4,0.6-3.1,0.7-4.4,1.5c-1.7,1.1-3.7,1.5-5.3,2.9
		c-0.6,0.5-1.2,0.5-1.9,0.4c-0.5-0.1-1.1-0.2-1.3,0.3c-0.5,1.5-2,1.6-3.1,2.3c-1.2,0.7-2.5,1.3-3.1,2.8c-0.2,0.5-0.7,0.7-1,1
		c-1.1-0.2-2.1-0.7-3-1.3c-0.2-0.8-0.1-1.5,0.5-2.1c1.7-2,4-3.2,6.2-4.6c2.1-1.3,4.5-1.7,6.5-2.8c1.1-0.6,2-1.3,3.3-1.2
		c0.6,0,0.7-0.6,1.1-0.8c2.1-0.4,3.9-1.7,6-2.2c0.5,0.1,1.1,0.2,1.5-0.3c0.2-0.3,0.6-0.3,0.9-0.3c0.3-0.1,0.7-0.1,1-0.3
		c1.6-1.8,4.1-2.4,5.9-3.9c1.2-1.1,2.6-1.9,3.8-3.1c1-0.9,2-1.7,2.6-3c0.1-0.3,0.3-0.5,0.6-0.8c2.7-3,4.3-6.5,6-10.1
		c0.8-1.7,1-3.8,2.3-5.3c0.2-0.2,0.2-0.6,0.3-0.9c0.2-1.7,0.8-3.2,1.7-4.7c0.3-0.4,0.5-0.9,0.6-1.4c0.2-2.1,1.7-3.7,2.3-5.6
		c0.1-0.4,0.6-0.8,0.9-1.1c0.6-0.6,1.2-1.2,1.4-2.1c0.1-0.5,0.4-0.7,0.8-1c0.9-0.6,1.5-1.3,1.8-2.3c0.1-0.4,0.3-0.7,0.8-0.8
		C111.3,51.8,111.6,53.6,112.3,55.2z"/>
	<path fill="#BEBEBE" d="M62.4,114.2c-0.4-1.2,0.3-2.5,1.8-3.1c1.1-0.4,2-1.1,3-1.8c0.3-0.2,0.6-0.4,0.9-0.5c2.4-0.7,4.5-2,6.2-3.8
		c1.1-1.1,2.4-1.4,3.7-2c0.3-0.2,0.8-0.2,1.1-0.4c0.9-0.6,1.8-1.3,3-1.7c0.8-0.3,1.5-1.2,2.2-1.7c2.5-1.9,4.7-4.2,6.9-6.4
		c1.2-1.3,2.4-2.5,3.7-3.7c2.1-1.9,4-4,5.4-6.3c0.8-1.5,1.4-3,2.8-4c0.1-0.1,0.2-0.2,0.2-0.3c0-2,1.6-3.3,2.3-5.1
		c0.2-0.5,0.6-1,1-1.3c1.2-0.7,1.5-1.9,1.7-3.1c0-0.4,0-0.9,0.4-1.1c1.2-0.6,1.5-1.8,1.9-2.9c0.4-1.2,1.6-1.7,2.3-2.7
		c0.2-0.2,0.4-0.2,0.6,0c0.8,0.7,0.7,0,0.8-0.4c0.3,0.8,0.4,1.7,0.5,2.6c0.1,1.5,0.4,3,0.3,4.5c-0.1,0.3-0.3,0.3-0.5,0.2
		c-0.9-0.8-1.3-0.1-1.9,0.4c-1,0.9-1.7,1.8-1.8,3.2c0,0.7-0.8,1.2-1.3,1.7c-0.6,0.6-1.2,1.2-1.3,2.1c0,0.4-0.2,0.7-0.5,0.9
		c-2.1,2-3.2,4.5-4.7,6.9c-0.6,0.9-1.6,1.7-2.4,2.5c-1.4,1.3-2.6,2.8-4,4.1c-1.6,1.5-3.3,2.8-4.6,4.5c-1,1.3-2.4,2.2-3.3,3.6
		c-0.6,0.9-1.7,1.6-2.6,2.2c-1.5,1-2.6,2.5-4.1,3.5c-0.4,0.3-0.7,0.6-1.2,0.7c-0.3,0-0.6,0.1-0.7,0.4c-1.2,1.5-2.9,2.3-4.7,3
		c-0.6,0.2-1,0.7-1.4,1.1c-0.6,0.7-1.3,1.2-2.2,1.3c-1.2,0.1-2.1,0.8-2.8,1.6c-0.1,0.1-0.3,0.3-0.4,0.5c-1,1.8-2.6,2.1-4.4,1.7l0,0
		C63.7,114.4,63,114.5,62.4,114.2z"/>
	<path fill="#CBCBCB" d="M110.2,50.3c0,1.7-0.9,2.8-2.3,3.6c-0.2,0.1-0.4,0.3-0.4,0.4c-0.2,1.4-1.5,2-2.1,3.1
		c-0.9,1.7-2.1,3.4-2.4,5.4c-0.3,1.6-1.4,2.8-1.8,4.3c0,0.2-0.2,0.3-0.2,0.4c0,2.2-1.4,3.9-2,5.9c-0.5,1.9-1.6,3.6-2.4,5.3
		c-1.3,2.7-3.1,5-4.8,7.4c-1.4,1.9-3,3.5-4.7,5c-2,1.7-4.2,3.1-6.5,4.4c-0.4,0.2-0.7,0.4-0.9,0.9c0,0.1-0.2,0.3-0.3,0.3
		c-1.4,0-2.5,1-3.9,1C75,97,75.6,96.6,76,96.5c1.3-0.4,2.1-1.6,3.2-2.2c1.4-0.8,2.3-2.3,3.8-3c0.7-0.4,0.7-1.5,1.6-1.6
		c0.9-0.1,1.6-0.6,2-1.2c0.8-1.5,2.4-2.4,3.1-3.9c1-1.9,2.2-3.7,3.1-5.6c0.4-1,0.4-2.3,1.2-3.2c1.4-1.6,1.4-3.5,1.3-5.4
		c0-0.4,0.1-0.8,0.4-1.2c0.9-1.3,1.4-2.7,1.5-4.3c0-0.1,0-0.2,0-0.2c0.5-1.3,0.7-2.7,0.3-4.1c-0.2-0.7,0.3-1.2,1-1.4
		c0.8-0.2,1-0.7,0.9-1.5c-0.1-1,0.3-1.6,1-2.3c1-1,2-2.1,3-3.1c1-1.1,1.6-2.1,1.6-3.5c0-0.2,0.2-0.5,0.3-0.5
		c1.2-0.1,1.7-1.1,2.5-1.7c0.9,0.9,1.3,2.2,2.1,3.2C110,49.8,110.1,50.1,110.2,50.3z"/>
	<path fill="#BBBBBB" d="M64.3,114.7c1.8,0.3,2.9-0.6,3.9-2c0.9-1.3,2-2.3,3.8-2.4c0.7,0,1.3-0.5,1.7-1c0.6-0.9,1.4-1.2,2.3-1.6
		c1.4-0.6,3-1.1,3.7-2.8c0.1-0.2,0.3-0.4,0.4-0.4c2-0.1,2.9-1.8,4.2-2.9c1.1-0.9,2.2-1.8,3.4-2.6c0.4-0.3,0.8-0.6,1-1.1
		c0.3-0.6,0.8-0.9,1.3-1.3c1-0.7,1.6-1.9,2.6-2.7c1.6-1.4,3.1-3,4.6-4.5c1.3-1.3,2.7-2.6,3.7-4.1c0,0,0-0.1,0.1-0.1
		c2.5-1.7,3.2-4.7,5-6.8c0.9-1,1.8-1.9,2-3.3c0-0.2,0.2-0.5,0.4-0.6c1.5-0.9,2.1-2.3,2.2-4c0-0.5,0.2-0.9,0.9-1c0.5,0,0.8-0.4,1-0.8
		c0.3-0.5,0.5-1.2,1.3-1.2c0.9,0,0.8,0.9,1.1,1.4c0.2,0.1,0.1,0.4,0.3,0.5c0.1,0.9,0.1,1.8,0,2.6c-0.4,0.3,0.2,1.1-0.6,1.1
		c-1.1-0.6-1.5-0.4-1.8,0.8c-0.7,2.5-1.9,4.7-4.1,6.2c-0.3,0.2-0.5,0.5-0.6,0.9c-0.1,0.4-0.3,0.8-0.6,1c-1.4,1.4-2.3,3.3-3.7,4.8
		c-1,1.1-2.2,1.9-3.1,3c-1.5,1.9-3.3,3.5-5.1,5.1c-1,1-2,2-3,2.9c-0.9,0.8-1.8,1.8-2.7,2.7c-1.4,1.4-2.8,2.7-3.9,4.3
		c-0.3,0.4-0.7,0.5-1.1,0.6c-1.5,0.7-2.6,2-4,3c-0.9,0.6-1.6,1.7-2.6,2.3c-0.8,0.5-1.6,1-2.6,1.3c-1.2,0.4-2.1,1.6-2.6,2.8
		c-0.3,0.2-0.7-0.1-1,0.2C69.4,115.4,66.8,115.3,64.3,114.7z"/>
	<path fill="#B5B5B5" d="M114.5,73c0.5-0.2,0.5-0.7,0.7-1c0.1,2.8-0.3,5.5-0.9,8.2c-0.1,0-0.1,0.1-0.2,0.1c-1.9-0.1-2.2,1.5-2.8,2.7
		c-0.3,0.6-0.7,0.9-1.3,1.3c-1.5,0.8-2.7,1.8-3.7,3.3c-0.6,0.8-1.6,1.4-2.2,2.2c-0.3,0.4-0.8,0.7-0.8,1.3c0,0.3-0.1,0.6-0.4,0.7
		c-0.9,0.3-1.3,1.2-2,1.8c-2.1,1.7-3.6,3.9-5.4,5.7c-0.6,0.6-1.5,0.9-2.1,1.6c-1.1,1.5-2.5,2.7-3.6,4.2c-0.1,0.2-0.4,0.4-0.5,0.4
		c-2,0-2.3,1.9-3.2,3c-0.3,0.3-0.5,0.6-0.8,0.8c-0.3,0.2-0.7,0.3-0.8,0.7c-0.4,1.3-1.4,1.8-2.6,2c-0.6,0.1-0.9,0.6-1.1,1.2
		c-0.1,0.4-0.3,0.8-0.5,1.2c-0.3,1.2-1.1,0.4-1.7,0.5c-2.2,0.2-4.3,0.7-6.5,0.5c0.3-0.2,0.6-0.3,1-0.3c0.8-1.3,1.6-2.5,3.2-3
		c1.1-0.4,2.2-1,3.4-1.2c0.5-0.1,0.7-0.6,0.8-1.1c0.1-0.7,0.4-1.1,1.1-1.3c0.3-0.1,0.6-0.2,0.7-0.5c0.7-1.5,2.2-1.8,3.3-2.6
		c1-0.7,1.6-1.7,2.4-2.5c1-1.1,2.1-2,3.1-3c1-1.1,2.1-2.1,3.1-3.3c0.7-0.8,1.6-1.5,2.4-2.3c2.8-2.9,5.9-5.6,8.5-8.6
		c0.7-0.9,1.1-2,2-2.7c0.7-0.5,1.4-1,1.7-1.9c0.1-0.3,0.4-0.5,0.8-0.5c1-0.1,1.3-0.8,1.5-1.7c0.5-2.1,1.9-3.8,3-5.6
		C114.1,72.9,114.3,72.8,114.5,73z"/>
	<path fill="#FEFEFE" d="M111.4,39.7c0.5-2.6,2.1-4.3,4.3-5.6c1.3-0.4,2.5-0.8,3.9-0.6c2.9,0.5,5.3,3,5.6,5.9
		c0.3,2.7-1.5,5.5-4.5,6.8c-3.2,1.4-6.2,0.5-8.1-2.4C111.8,42.6,111.3,41.2,111.4,39.7z"/>
	<path fill="#060606" d="M117.1,80.1c0-0.8,1.5-2,2.2-1.8c0.2,0.1,0.2,0.3,0.3,0.5c0,0.7-1.2,2.3-2,2.3
		C116.9,81,117.3,80.4,117.1,80.1z"/>
	<path fill="#060606" d="M111.1,90c0.5-1.1,0.9-2.2,1.4-3.4c0.3,0.4,0.1,0.9,0.6,1.3c0.4,0.2,0.3,1-0.5,0.9
		c-0.5-0.1-0.3,0.2-0.3,0.4C112.3,89.9,111.8,90.1,111.1,90z"/>
	<path fill="#060606" d="M108.9,94.1c0.7-1.2,1.3-2.4,2-3.6c0,0.8-0.3,1.5,0.1,2.3c0.2,0.4-0.3,0.9-0.6,0.7
		C109.6,93,109.4,94,108.9,94.1z"/>
	<path fill="#B6B6B6" d="M115.2,69.4c-0.1-0.2-0.2-0.3-0.3-0.5c0-1.5-0.5-3.1-0.2-4.6C115.1,65.9,115.3,67.6,115.2,69.4z"/>
	<path fill="#060606" d="M114,82c0-0.4,0.1-0.8,0.3-1.2c0.2,0.3,0.3,0.5,0.5,0.8c0.2,0.3,0.6,0.7,0.1,1C114.2,83,114.1,82.4,114,82z
		"/>
	<path fill="#060606" d="M113.5,83.7c0.1-0.3,0.2-0.6,0.3-0.9c0.1,0.2,0.3,0.4,0.4,0.6c0.2,0.3,0.5,0.6,0.1,0.9
		C113.8,84.5,113.6,84.1,113.5,83.7z"/>
	<path fill="#060606" d="M78.5,114.7c0.6-0.2,1.1-0.3,1.7-0.5c1.2-0.3,2.4-0.5,3.6-0.8c0.2,0.1,0.6,0.2,0.5,0.4
		c-0.4,1.2,0.6,1,1.1,1.1c0.5,0.1,1,0.3,1.1,1c0.1,0.5-0.1,0.9-0.6,1.1c-0.5,0.2-0.7,0.6-0.8,1c-0.2,0.9-0.9,1-1.6,1
		c-0.8,0-1-0.7-1.1-1.4c-0.1-0.6,0-1.3-0.1-1.9c0-0.5-0.1-1-0.8-0.9c-0.5,0.1-0.8,0.2-0.8,0.9c0,1.2-0.8,1.7-1.9,1.1
		c-0.5-0.2-1-0.5-1.5-0.8C77.6,115.6,79.2,116.1,78.5,114.7z"/>
	<path fill="#060606" d="M93.1,109.4c0.3,0.8,0.5,1.4-0.6,1.8c-0.4,0.1-0.3,0.5-0.3,0.8c0,1.2-0.6,1.6-1.7,1.2
		c-0.6-0.2-1.2,0-1.6-0.2c-1.1-0.5-2.3,0.7-3.3-0.2C88.2,111.9,90.7,110.7,93.1,109.4z"/>
	<path fill="#060606" d="M95.8,107.8c0.1,0.3,0.5,0.8,0.4,0.8c-0.7-0.2-1.1,1.4-1.8,0.2C94.8,108.3,95.2,108,95.8,107.8z"/>
	<path fill="#CCCCCC" d="M69.6,99.8c-0.5,0.8-1.3,0.7-2,0.7c-0.7,0-1.3,0.2-1.8,0.8c-0.9,1-2.2,1.1-3.4,1.6
		c-1.1,0.4-2.2,0.5-3.1,1.6c-0.6,0.7-1.9,0.5-2.7,1.3c-1.1,1.1-2.6,1.6-3.6,2.8c-0.6,0.7-0.8,1.5-1.3,2.2c-0.7-0.3-1.4-0.6-2.1-1
		c-1-0.8-2.3-1.1-3.2-2.1c0.1-0.5,0.4-0.7,0.9-0.7c0.8,0,1.1-0.5,1.3-1.2c0.1-0.6,0.5-1,1.1-1.1c1.6-0.3,2.6-1.5,3.7-2.4
		c0.5-0.4,1-0.9,1.6-1.1c0.2,0,0.4-0.1,0.4-0.2c1.2-1.8,3-0.9,4.6-0.9c2.3,0.1,4.5,0.1,6.7-0.4c0.3-0.1,0.6-0.3,0.9-0.3
		C68.3,99.5,69,99.1,69.6,99.8z"/>
	<path fill="#FCFCFC" d="M40.6,116.4c-1.2,1.3-2.2,2.7-3.5,3.9c-1.8,1.8-4,1.9-6,0.5c-2.3-1.6-2.9-3.9-1.4-6.3
		c1.6-2.5,3.6-4.7,5.5-7c0.5-0.7,0.8,0,1.2,0.2c0.5,0.3,0.5,0.6,0.1,1c-1.5,1.8-2.9,3.6-4.4,5.4c-0.5,0.6-0.9,1.2-1.2,1.9
		c-0.5,1.3-0.2,2.5,0.9,3.3c1.1,0.9,2.3,0.9,3.4,0.2c0.3-0.2,0.6-0.3,0.8-0.6c1.7-1.9,3.4-3.9,4.9-6c0.4-0.2,0.5-1,1.2-0.7
		c0.9,0.4,1,0.9,0.4,1.7C41.7,114.8,41.1,115.6,40.6,116.4z"/>
	<path fill="#BBBBBB" d="M62.4,114.2c0.7-0.2,1.4,0,1.9,0.5c-1.3-0.1-2.5-0.3-3.7-0.7C61.2,114,61.8,114.1,62.4,114.2z"/>
	<path fill="#060606" d="M80.9,120c-0.5-0.2-1.1-0.2-1.6-0.8C80.2,119.1,80.7,119.2,80.9,120z"/>
	<path fill="#0A0A0A" d="M129.1,53.8c0,1.1-0.7,1.8-1.6,1.8c-0.9,0-1.9-1-1.9-2c0-0.4,1.8-1.3,2.7-1.3
		C129.2,52.4,128.8,53.4,129.1,53.8z"/>
	<path fill="#080808" d="M59.6,126.3c-2.3,0-2.5-0.2-2-2.5c0.1-0.3,0.1-0.6,0.2-0.8c0.4-0.6-0.3-2,1.3-1.7c2.1,0.3,3.2,1.1,3.2,2.6
		c0,1.3-0.8,2.3-2.2,2.4C59.9,126.3,59.7,126.3,59.6,126.3z"/>
	<path fill="#0A0A0A" d="M48.4,118.4c0,0.4,0.1,0.5,0.1,0.7c-0.2,1.7-0.4,3.4-0.6,5.1c-0.1,0-0.2,0-0.3,0c-3.4-1.2-3.4-1.2-1-3.8
		C47.2,119.8,47.7,119.2,48.4,118.4z"/>
	<path fill="#0C0C0C" d="M71.7,123.4c0.6,1.7,1.2,3.2,1.8,4.8c0.3,0.7,0.1,0.8-0.6,0.9c-3.1,0.2-3.1,0.2-2.2-2.6
		C71.1,125.4,71.4,124.4,71.7,123.4z"/>
	<path fill="#FDFDFD" d="M36.3,18c0.1-0.2,0.1-0.4,0.2-0.7c1.2-0.4,2.4-1,3.4-1.7c1.4-0.7,2.8-1.3,4.1-2.2c1.8-0.8,1.4-0.9,2.3,0.7
		c0.2,0.3,0.3,0.5,0.5,0.8c0.6,0.6,0.2,1-0.3,1.3c-1.8,1.2-1.8,1.3-0.6,3.1c0.2,0.3,0.4,0.5,0.4,0.8c0.1,0.8,0.8,1.2,1.1,1.9
		c0.2,0.5,0.3,1,0.7,1.5c0.6,0.7,0.8,1.6,0.7,2.6c-0.7,1.1-2,1-3,1.7c-1.1,0.2-1-1-1.6-1.4c-0.8-1.2-1.1-2.6-1.8-3.8
		C42,22,41.7,21.2,41,20.7c-0.3-0.8-0.8-1-1.6-0.6c-0.4,0.2-0.9,0.3-1.3,0.5c-0.5,0-0.7-0.4-1.1-0.6C36.6,19.3,36.6,18.6,36.3,18z"
		/>
	<path fill="#5A5A5A" d="M45.8,20.5c-0.3-0.6-0.7-1.2-1-1.8C43.9,17,43.9,17,45.7,16c0.4-0.2,1.2-0.3,1.1-1.1
		c0.2,0.1,0.8-0.2,1.1-0.3c0.7-0.4,1.5-0.8,2.2-1.2c0.6-0.4,1.4-0.6,1.1-1.6c0-0.1,0.2-0.3,0.3-0.5c0,1,0.8,1.9,0.7,2.9
		c0.5,1.5-0.4,2.3-1.4,3.3c-1.1,1-2.3,1.9-3.4,2.9C46.8,20.8,46.3,20.8,45.8,20.5z"/>
	<path fill="#FEFEFE" d="M14.9,42.2c-0.1-0.1-0.1-0.2-0.2-0.3c0-1.2,1-1.9,1.5-2.9c0.2-0.3,0.5-0.1,0.7,0c0.4,0.3,0.9,0.5,1.3,0.8
		c0.6,0,1.3,0.1,1.8,0.4c0.7,1.1,2,1.5,3.1,2c0.6,0.6,1.8,0.7,2.3,0.2c0.6-0.5,0.5-1.2-0.2-2.2c-0.5-0.3-0.8-0.9-1.4-1.1
		c-1.3-0.6-2.4-1.4-3.3-2.5c-0.6-0.7-1.3-1-2.1-1.3c0-0.8,0.7-1.2,0.9-1.9c0-1.2,0.4-1.6,1.4-1.1c0.4,0.4,0.9,0.7,1.5,0.9
		c0.7-0.1,1.3,0.1,1.9,0.5c0.4,0.7,1.2,0.8,1.8,1c0.5,0.6,1.2,1,1.8,1.5c0.3,0.3,0.7,0.4,0.9,0.8c0.6,0.8,1.3,1.5,1.5,2.5
		c0,0.7-0.1,1.4,0,2.2c-0.5,3.4-2.9,5.5-6.4,5.5C23.2,47.3,22.7,47,22,47c-0.5,0-0.9-0.3-1.2-0.7c-0.3-0.4-0.7-0.5-1.1-0.5
		c-0.6-0.5-1.3-1-1.7-1.7c-0.4-0.4-0.9-0.7-1.5-0.7C16.1,42.8,15.5,42.6,14.9,42.2z"/>
	<path fill="#FDFDFD" d="M32.6,22.4c0.1,0.3,0.2,0.6,0.4,0.9c0.3,0.5,0.1,0.8-0.4,1c-0.6,0.3-1.2,0.6-1.7,1.1
		c-0.5,0.4-1.2,0.9-0.8,1.7c0.4,0.7,1.2,0.4,1.8,0.1c0.7-0.5,1.3-1.3,2.3-1.3c1.2-0.1,2.5,0,3.6,0.7c0.3,0.3,0.8,0.5,1,1
		c0.8,1.1,0.8,2.3,0.7,3.6c-0.4,2.6-2.3,3.9-4.3,5.1c-0.3,0.2-0.7,0.3-1.1,0.5c-1.2,0.2-1.5-0.8-2-1.5c-0.1-0.3-0.3-0.5-0.5-0.8
		c-0.3-0.9,0.4-1.2,1-1.5c0.7-0.3,1.4-0.7,1.9-1.2c0.2-0.2,0.5-0.5,0.3-0.8c-0.2-0.4-0.5-0.3-0.8-0.2c-0.8,0.3-1.6,0.3-2.3,0.8
		c-0.1,0.1-0.2,0.1-0.4,0.1c-1.4-0.3-2.9-0.3-4-1.3c-0.8-1-1.1-2.2-0.6-3.4c0.5-2.1,2-3.6,3.6-4.8C31.1,21.8,32,20.9,32.6,22.4z"/>
	<path fill="#878787" d="M20.8,32.5c-0.9-0.1-1,0.7-1.4,1.1c-0.5-0.2-0.7-0.5-0.3-1c0.4-0.5,0.3-0.9-0.1-1.4c-1.1-1.4-1-2.9,0.1-4.3
		c1.1-1.4,2.4-2.7,3.4-4.3c-0.1-0.9,0.7-1.4,1.2-1.9c1-0.7,1.6-1.8,2.7-2.4c0.1,0,0.1,0,0.2,0c1.9-1.2,3.2-2.9,4.9-4.3
		c0.3-0.2,0.5-0.6,0.9-0.7c0.2,0.5-0.2,0.7-0.5,1c-1.9,1.8-3.6,3.7-4.8,6c-0.7,1.3-2,2.2-2.7,3.6c-0.2,0.4-0.4,0.7-0.5,1.2
		c-0.1,0.8-0.5,1.5-1.1,2.1c-0.8,0.8-1.5,1.7-0.9,3.1C22.4,31.3,21.4,31.8,20.8,32.5z"/>
	<path fill="#7C7C7C" d="M26.7,26.9c0,1.1,0.4,2.1,1,3.1c-0.5,1.6-1.2,3-2.2,4.3c-0.5,0.6-1,0.1-1.5,0.1c-0.5-0.3-1.1-0.7-1.6-1
		c1.6-1.2,2-3.2,3.4-4.6c0.5-0.5,0.4-1.3,0.5-1.9C26.3,26.3,26.5,26.4,26.7,26.9z"/>
	<path fill="#626262" d="M18.1,44.1c0.6,0.4,1.3,0.8,1.9,1.2c0.9,1.1,0.8,1.4-0.4,2.2c-0.8,0.5-1.6,0.8-2.1,1.7
		c-0.5,0.9-1.1,0-1.7,0c-1-0.3-2.1-0.3-3.1-0.1c0.3-0.4,0.7-0.7,1.3-0.8c1.6-0.3,2.9-1.1,4.3-1.9c0.7-0.4,0.4-1,0.2-1.5
		C18.2,44.7,17.9,44.6,18.1,44.1z"/>
	<path fill="#737373" d="M20.6,36.7c1.3,0.6,2.5,1.3,3.6,2.2c0.4,1-0.1,1.3-0.8,1.9c-1.4,1.2-2.4,0.8-3.6,0c0,0-0.1,0-0.1,0
		c-0.5-0.2-1-0.5-1.5-0.9c0.4-0.2,0.7-0.5,1.1-0.7C20.3,38.7,21,38,20.6,36.7z"/>
	<path fill="#8B8B8B" d="M24,20.9c-0.5,0.6-1,1.1-1.4,1.7c-0.2,0.1-0.5,0.2-0.6,0.3c-1.4,2-3.4,3.6-4.5,5.8c-0.3,0.6-0.5,1.3-0.3,2
		c0.2,0.6,0.2,1.3-0.3,1.8c-0.2,0.3-0.3,0.6-0.1,0.9c1.2,1.1-0.2,1.7-0.6,2.3c-0.4,0.6-1.3,0.7-2,0.1c-0.4-0.4-0.9-0.5-1.4-0.1
		c-0.9,0.9-2.2,1-3.2,1.8c1.1-1.5,2.4-2.9,3.8-4.2c1-0.9,1.7-2.1,2.3-3.3c1-2.1,2.7-3.6,4.1-5.3c1.7-2.1,3.6-4.1,5.7-6
		c0.4-0.3,0.8-0.5,1.2-0.8c0,0.2,0,0.3,0,0.5c0,0,0,0,0,0C25.7,19,25.1,20.2,24,20.9z"/>
	<path fill="#737373" d="M34.3,26.4c-0.8,0.3-1.6,0.5-2.3,0.8c-0.4-0.2-0.6-0.5,0-0.6c0.6-0.1,0.8-0.4,0.8-1c0-0.3,0.1-0.5,0.4-0.7
		c1.8-1.6,3.3-4.8,3.2-6.9c0.5,0.4,0.8,1,0.9,1.6c0.3,0.7,0.4,1.3-0.1,2.1c-0.8,1.4-1.5,2.9-2.5,4.1C34.6,26,34.5,26.2,34.3,26.4z"
		/>
	<path fill="#D0D0D0" d="M67.4,99.8c-0.9,0.8-2,0.7-3,0.7c-2.3,0.1-4.6,0-6.9,0c-0.3,0-0.7-0.1-0.8,0.2c-0.3,1-1.2,1.1-2,1.3
		c-0.2,0.1-0.5,0.2-0.6,0.4c-0.4,1.3-2,1.3-2.6,2.5c-0.2,0.5-1,0.4-1.6,0.5c-0.6,0.1-1,0.4-1.1,1.1c-0.3,1.6-0.3,1.6-1.9,1.3
		c-0.2,0-0.5,0.1-0.7,0.1c-2.4-1.3-4.3-3.2-6.3-5c-0.4-0.3-0.7-0.7-1.1-1c0.1-0.9,0.5-1.2,1.1-0.8c1,0.7,1.5,0.3,1.9-0.6
		c0.4-0.8,1.1-1,1.9-1.1c0.8-0.2,1.6-0.4,1.9-1.3c0.1-0.1,0.2-0.3,0.3-0.3c1-0.3,1.4-1.1,1.5-2c0.1-1-0.1-1.9-0.7-2.7
		c-1.5-2-1.6-4.5-2.3-6.7c0-0.1,0-0.3,0-0.5c-0.7-2.7-0.3-5.3-0.2-8c0-1.3,0.5-2.6,0.7-3.9c0-2.5,0.9-4.7,1.7-7
		c0.2-0.5,0.3-1.1,1-1.2c0.1,0,0.3,0,0.4,0.1c0.6,1.4-0.1,2.7-0.5,4c-0.6,1.2-0.7,2.6-1,3.9c0,1-0.3,1.9-0.4,2.9
		c-0.5,2.5-0.7,5.1-0.4,7.7c0.2,1.7,0.9,3.3,1.3,4.9c0.6,2.8,2.3,4.8,4.5,6.5c1.8,1.2,3.6,2.3,5.8,2.8c0.9,0.4,1.7,0.9,2.7,0.9
		c0.5,0,0.9,0,1.4,0c1,0.4,2,1,3,0.1c0.1-0.1,0.2-0.2,0.3-0.2c0.4-0.1,0.7-0.2,1.1-0.2c0.4,0,0.8,0,1.2,0.1
		C67.3,99.2,67.6,99.4,67.4,99.8z"/>
	<path fill="#D9D9D9" d="M45.1,85.9c0.3,1.1,0.7,2.1,0.9,3.2c0.3,1.4,0.9,2.7,1.8,3.9c0.7,1,0.7,3.4,0,4.4c-0.1,0.2-0.4,0.4-0.6,0.4
		c-0.7,0.1-1.1,0.4-1.3,1.1c-0.2,0.5-0.7,0.6-1.2,0.7c-1.2,0.1-2.3,0.5-2.8,1.9c-0.3,1-1.2,1-2,0.3c-0.4-0.4-0.8-0.8-1.2,0
		c-0.5-0.3-0.8-0.8-1.2-1.2c-0.7-0.6-1.3-1.3-1.7-2.1c-0.6-0.7-1.1-1.5-1.7-2.2c-0.6-0.8-1.4-1.5-1.6-2.7c0.5-0.5,1-0.1,1.4,0.2
		c0.4,0.3,0.8,0.6,1.4,0.7c0.8,0.1,1.4-0.1,1.3-1.1c-0.1-1,0.5-1.6,1.2-2.2c0.4-0.3,0.8-0.5,1-1c0.7-1.6,2.2-2.3,3.6-3.1
		c0.4-0.2,0.6-0.5,0.8-0.8C43.9,85.2,44.2,85.2,45.1,85.9z"/>
	<path fill="#171717" d="M32.8,93.6c0.5,0.9,1,1.8,1.5,2.6c-0.2,0-0.4,0.1-0.6-0.1c-1.2-2-2.7-3.8-3.6-5.9c-0.1-0.3-0.2-0.9-0.7-0.8
		c-0.5,0.1,0,0.5-0.2,0.8c-1.3,1.7-1.1,4-2.1,5.9c-0.4,0.7,0.1,1.6-0.3,2.3c-0.1,0.3-0.4,0.5-0.7,0.5c-1.1-0.1-2.2,0.3-3.4,0.2
		c-0.6-0.2-0.8-0.6-0.7-1.3c0.3-1.5,0-3,0.7-4.4c0.2-0.4,0.1-0.9,0-1.4c-0.1-0.7-0.1-1.3,0.2-2c0.1-0.3,0.2-0.5,0.2-0.8
		c-0.2-1.9,0.8-3.4,1.6-4.9c0.4-0.9,0.8-1.7,1-2.7c0.1-0.6,0.4-1.1,1.1-1.2c1,0.3,0.8,1.3,1,2.1c0.9,2.1,1.2,4.3,2.8,6.1
		c0.7,1.3,1.3,2.5,1.9,3.8C32.9,92.8,33.1,93.2,32.8,93.6z"/>
	<path fill="#FCFCFC" d="M22.8,98.7c1.3-0.4,2.7-0.5,4-0.3c2.5,0.9,4.2,2.7,5.2,5.1c0.2,0.4,0.5,0.9-0.3,1.2
		c-0.7,0.3-0.9-0.1-1.1-0.6c-1.2-3.1-3.5-4.5-6.2-3.9c-0.2,0.7-0.9,0.9-1.4,1.2c-2.5,1.6-3.1,4.3-1.6,6.5c0.8,1.2,1.8,1.2,2.7,0.1
		c0.4-0.5,0.3-1,0-1.4c-0.5-0.8-0.3-1.4,0.6-1.6c0.2-0.2,0.4-0.3,0.6,0c0.2,0.2,0.4,0.5,0.6,0.7c0.6,0.8,1.5,1.6,1.6,2.4
		c0.1,1-1.4,1.1-2,1.9c-0.7,0.5-1.5,1-2.1,1.5c-0.5,0.4-0.9,0.4-1.4,0c-2-1.7-3.5-3.6-3.9-6.3c0-0.5,0.3-1-0.2-1.4
		c-0.6-1.2,0.4-2,1-2.7c0.5-0.6,1.2-1.1,1.8-1.7C21.4,98.6,22.1,98.8,22.8,98.7z"/>
	<path fill="#181818" d="M24.9,104.9c-0.9,0.6-0.3,1.2,0.2,1.6c0.8,0.8,0.6,1.4-0.3,1.9c-0.2,0.1-0.3,0.2-0.5,0.3
		c-1.9,1.3-1.9,1.3-3.2-0.5c-2.2-3.2-0.6-7.1,3.4-8.1c0.2,0.2,0.2,0.8,0.7,0.4c0.5-0.3,1.1-0.2,1.5,0.2c0.5,0.4-0.1,0.8-0.2,1.2
		c-0.2,0.9-0.3,1.8-0.1,2.7c-0.5,0.3-0.7-0.2-1.1-0.3C25,104.2,24.9,104.2,24.9,104.9z"/>
	<path fill="#232323" d="M36,98.4c0.6,0.7,1.3,1.3,1.7,2.1C36.7,100.2,36.3,99.4,36,98.4z"/>
	<path fill="#202020" d="M22.8,98.7c-2.2,1.1-3.8,2.8-4.9,5c-0.1,0.2-0.4,0.4-0.4,0.6c0.3,2.4-1.2,4.2-2.3,6.1
		c-0.2,0.3-0.5,0.7-0.3,1.1c0.2,0.5,0.1,0.7-0.3,0.9c-0.5,0.3-0.8,0.1-1.1-0.4c-0.2-0.4-0.6-0.7-0.4-1.2c1.4-1.3,1.9-3.3,2.5-4.9
		c0.5-1.4,1.5-3.2,0.7-4.9c1-2.2,0.3-4.7,1.5-6.8c0.2-0.4,0.3-0.8,0.3-1.3c0-0.4,0-0.9,0.4-1.2c2.2-2.2,2.7-5.1,3-8.1
		c0-0.4,0.1-0.8,0.3-1.1c1.2-1.8,1.8-3.9,2.4-6c0.3-1.2,0.9-2.3,1.8-3.2c0.6,0.4,0.7,1.1,0.8,1.7c-0.1,0.9,0.2,1.8,0.3,2.7
		c0.1,0.8,0.2,1.6,0.2,2.4c0,0.2-0.1,0.3-0.3,0.4c-0.3,0.2-0.6,0.4-0.6,0.7c-0.2,2.2-1.7,3.9-2.4,5.8c-0.2,0.5-0.3,0.9-0.2,1.4
		c0,0.1,0.1,0.2,0,0.2c-0.9,1.9-0.1,3.9-0.9,5.9C22.5,95.9,22.6,97.3,22.8,98.7z"/>
	<path fill="#252525" d="M26.2,71.5c-0.9-0.2-1.3,0.3-1.4,1c-0.4,2.5-2.1,4.5-2.7,7c-0.5,2.1-1.7,3.9-2.1,6c-0.1,0.6-0.4,0.8-1,0.9
		c-0.9-0.1-1-0.8-1.1-1.4c0.7-2,1.3-4,1.8-6c1-3.8,3.4-6.9,4.9-10.5c0.3-0.8,0.9-1.1,1.7-0.6C27.1,69.1,26.8,70.3,26.2,71.5z"/>
	<path fill="#3A3A3A" d="M26.2,71.5c0-1.1,0.3-2.2,0-3.4c-0.6-0.8-0.3-1.8-0.2-2.7c0-0.5,0.2-1.1,0.1-1.6c0.3-2.1,1-4.1,1.4-6.2
		c0.8-1.2,1-2.5,1.4-3.9c0.3-1.1,0.6-1.3,1.6-1c0.4,0.6,0.1,1.1-0.1,1.7c-0.7,2.1-1.6,4.2-1.9,6.4c-0.7,1.8-0.7,3.6-0.9,5.5
		c-0.1,1.3,0,2.6-0.1,3.9c-0.2,0.3-0.3,0.7-0.2,1.1c0,1.3,0.4,2.7-0.3,4c-0.1,0.1-0.3,0.1-0.4,0c-0.1-0.6-0.2-1.3-0.3-1.9
		C26.1,72.8,26.1,72.2,26.2,71.5z"/>
	<path fill="#202020" d="M18.2,85c0.1,0.6,0.4,1,0.7,1.4c0.2,1.3-0.2,2.1-1.7,2.9c-0.1-0.1-0.2-0.2-0.3-0.3
		c-0.1-0.1-0.2-0.3-0.1-0.3c0.8-1.2,0.7-2.5,0.6-3.8C17.8,84.6,18,84.6,18.2,85z"/>
	<path fill="#303030" d="M20.4,71.1c0.1-0.1,0.2-0.2,0.3-0.3c0.8,0.3,1.1,1,0.4,1.8c-0.9,1-1.2,2.2-2.1,3.2c-0.6,0.7-0.7,1.6-1,2.5
		c-0.6,1.3-1.3,2.7-1.6,4.1c-0.2,0.8-0.9,0.9-1.3,1.5c-0.5,0.3-0.5,0.8-0.6,1.3c-0.5,0.8-0.7,1.6-0.4,2.5c0.1,0.3,0.1,0.6-0.1,0.9
		c-0.1,0.1-0.2,0.2-0.3,0.3c-0.6,1.2-1.5,2.2-2.2,3.4c-0.6,1.1-1.1,2.2-2,3.2c-0.8,0.9-0.4,2.2-0.8,3.3c-0.4,0.9-0.9,1.8-1,2.8
		c-0.7-1.4-1.4-2.9-2.1-4.3c0.6-0.9,1.2-1.7,2.1-2.3c0.6-0.5,0.9-1.2,1-2c0.3-2.2,1.2-4.1,2.9-5.6c0.5-0.4,0.9-1,0.9-1.6
		c0.1-1.3,0.9-2.2,1.5-3.3c0.2-0.3,0.4-0.7,0.5-1.1c0.2-1.1,0.2-2.2,1.5-2.8c0.2-0.1,0.3-0.4,0.3-0.6c0.1-1.9,1.1-3.5,1.8-5.1
		c0.2-0.5,0.4-1,0.2-1.5C18.9,70.8,19.7,71.7,20.4,71.1z"/>
	<path fill="#2D2D2D" d="M20.4,71.1c0.2,0.7-0.2,0.6-0.6,0.5c-0.5-0.1-1-0.2-1.5-0.3c-0.6,0-1.3,0-1.9,0c-0.5,0-1,0-1.4,0
		c0.7-0.5,1.4-0.1,2.1-0.2c0.4-0.1,0.9-0.1,1.3-0.1C19,71,19.7,71,20.4,71.1z"/>
	<path fill="#EAEAEA" d="M14,88.5c-0.9-1.2-1-2.4-0.1-3.6c0.7-1,2.3-1.4,3.3-0.9c0.4,0.2,0.5,0.6,0.6,1c0.9,1.7,0.8,2.6-0.7,4
		C15.9,89.4,14.9,89.3,14,88.5z"/>
	<path fill="#D7D7D7" d="M96.5,34.6c1.8,1.3,3.5,2.7,5.1,4.3c0.1,0.3,0.2,0.6,0.4,0.9c0.7,1,0.5,2.1-0.6,2.7c-0.8,0.5-1.2,1.1-1,2.1
		c0.2,1,0,1.8-1.2,2.2c-0.3,0.1-0.5,0.4-0.6,0.7c-0.2,0.6-0.7,0.9-1.2,1.3c-1.2,1-2.2,2.3-2.1,3.9c0.1,2.1-0.7,4.1-0.9,6.1
		c-0.1,0.8-0.7,1.4-1,2.1c-0.8,1.4-1.1,3.1-2.3,4.3c-0.5,0.5-0.6,1.1-0.4,1.8c0.5,1.7,0.2,3.5,0.2,5.2c0,0.4-0.1,0.8-0.5,1.1
		c-0.7,0.5-0.8,1.2-0.7,2c0.1,1.4-0.6,2.7-1.3,3.9c-0.1,0.2-0.3,0.3-0.4,0.5c-0.3,1.1-0.7,2.1-2.2,1.1c-0.4-0.3-0.9,0.1-1.2,0.6
		c-0.9,1.7-2.3,3.1-3.6,4.4c-1.4,1.3-2.7,3-4.6,3.7c-0.6,0.2-0.9,0.9-1.4,1.3c-1,0.8-2.2,0.3-3.2,0.3c-0.9,0-1.9,0-2.8-0.5
		c-0.5-0.3-1-0.2-1.4,0.4c-0.3,0.5-0.8,0.6-1.3,0.7c-1.4,0.1-2.7,0-4.1,0.2c-0.2,0-0.6,0.1-0.7-0.1c-0.5-0.7-1.3-0.5-1.9-0.6
		c-0.9-0.6-1.2-1.6-1.6-2.5c-0.3-0.5-0.5-1.1-0.7-1.6c0.1-1.5-0.3-2.9-0.4-4.4c0-1.5-0.1-3.1,0-4.6c0.1-1.3,0.2-1.5,1.5-1.7
		c4.2-0.8,8.3-1.9,12.3-3.1c1.8-0.5,3.6-1.1,5.2-1.8c4-1.6,7.9-3.3,11.2-6.1c2.4-2,4.5-4.2,5.4-7.2c0.4-1,0.6-2,0.7-3.1
		c0.4-1.4,0.3-2.7-0.4-3.9c-0.2-1.5-1.1-2.7-2-3.9c-0.1-0.5-0.3-0.9-0.6-1.2c-2.7-2.5-5.8-3.8-9.5-3.9c-3.3-0.1-6.3,0.8-9.4,1.6
		c-0.9,0.2-1.7,0.5-2.5,0.8c-0.5,0.2-1,0.3-1.4-0.2c-0.2-0.8,0.4-1,0.9-1.3c2.7-1.2,5.6-1.9,8.5-2.2c1.2,0.4,2.5,0.3,3.7,0.2
		c1.9-0.3,3.8,0.1,5.6,0.7c1,0.3,1.9,0.8,2.9,0c0.3-0.3,0.8-0.2,1.1,0.1c0.7,0.5,1.2,0.2,1.4-0.4c0.3-0.7,1-1.1,1.4-1.7
		c1.1-1.2,2.5-2.2,3-3.9C95.9,35.2,95.9,34.7,96.5,34.6z"/>
	<path fill="#D2D2D2" d="M59.7,90.5c1.9,0.7,4,0.5,5.9,0.5c0.6,0,1.1-0.1,1.4-0.8c0.4-0.9,1.2-0.8,1.8-0.4c1.1,0.6,2.2,0.6,3.4,0.6
		c0.3,0,0.7-0.1,0.9,0c1.1,0.5,1.6,0.1,2-0.9c0.1-0.4,0.5-0.5,0.8-0.6c1.6-0.6,2.7-1.6,3.7-2.9c0.6-0.8,1.7-1.3,2.4-2.2
		c0.8-1,1.8-1.8,2.3-3c0.4-0.8,1.1-1,1.8-0.4c0.7,0.6,0.8,0.3,0.9-0.4c0-0.4,0.1-0.7,0.4-1.1c1-1.1,1.6-2.4,1.4-3.9
		c-0.2-0.9-0.2-1.7,0.9-2c0.4-0.1,0.5-0.5,0.4-0.9c-0.1-1.7,0.3-3.4-0.3-5.1c-0.3-0.7,0.1-1.3,0.5-1.9c1.6-2.5,3-5.1,3.7-8
		c0.3-1.5,0.6-2.9,0.6-4.5c0.1-1,0.1-2,1.1-2.7c0.4-0.3,0.2-1,0.4-1.2c1.1-0.5,1.6-1.9,2.4-2.2c1.4-0.6,1.4-1.3,1-2.4
		c-0.3-0.8,0.4-1.2,1-1.6c1.5-1,1.6-1.3,0.5-2.8c-0.6-0.8,0.4-0.4,0.5-0.6c2.4,2.2,4.5,4.6,6.2,7.4c-0.1,0.6-0.6,1.3,0.4,1.7
		c0.1,0,0.1,0.3,0.1,0.4c-0.1,0.2-0.3,0.1-0.4,0.1c-0.2,0-0.3-0.1-0.5-0.2c-1.7-0.4-2.2,0.1-1.9,1.7c0.2,0.9,0,1.6-1,1.8
		c-0.2,0-0.4,0.1-0.4,0.2c-0.2,1.6-2,1.7-2.6,3c-0.1,0.2-0.3,0.5-0.5,0.5c-1.2,0.5-1.2,1.4-1,2.5c0.2,0.8-0.2,1.3-1.1,1.5
		c-1,0.2-1.3,0.8-0.7,1.7c0.6,0.9,0.6,1.7-0.2,2.5c-0.3,0.4-0.3,0.9-0.3,1.4c-0.1,1.6-0.6,2.9-1.5,4.2c-0.8,1.2-0.3,2.5-0.4,3.8
		c0,0.8-0.1,1.3-0.7,1.9c-0.8,0.9-1.6,1.9-1.6,3.2c0,1.5-1.1,2.4-1.7,3.6c-0.8,1.5-1.4,3.1-2.5,4.4c-0.3,0.3-0.4,0.7-0.8,0.8
		c-0.5,0.1-0.6,0.4-0.8,0.8c-0.6,1.2-1.6,2-2.9,2.2c-0.5-0.6-0.1-1,0.3-1.3c1.1-0.9,1.7-2.2,2.6-3.3c0.4-0.5,0.4-1,0.2-1.5
		c-0.6-0.8-1.1-1.7-2.3-1.9c-1.1,0.4-1.5,1.4-2.1,2.2c-2.5,2.9-5.2,5.6-8.4,7.8c-1.5,0.6-3,1.4-4.6,1.6c-2.7,0.3-5.4,0.5-8-0.6
		c-0.5-0.2-1.1-0.3-1.5-0.7C60.4,91.7,59.1,91.7,59.7,90.5z"/>
	<path fill="#DEDEDE" d="M96.5,34.6c0.2,1.2-0.4,2.2-0.9,3.2c-0.4,0.7-1.3,1.3-1.9,1.9c-0.9,0.8-1.5,1.9-2.4,2.7
		c-0.1,0.1-0.2,0.2-0.3,0.2c-0.4,0.3-0.8,0.6-1.3,0.4c-0.5-0.2,0.1-0.7-0.1-1c-0.3-0.1-0.7,0.1-0.7,0.3c0,1.4-0.8,0.7-1.3,0.5
		c-3.4-1.5-7.1-1.5-10.7-1.4c-0.4-0.6,0.1-0.9,0.6-1c0.8,0,1.5-0.5,2.3-0.5c0.4,0,0.8-0.2,1-0.5c0.9-1.1,1.9-2.1,2.9-2.9
		c0.5-0.4,0.8-0.9,0.6-1.6c-0.2-0.8,0.1-1.4,0.7-1.9c1-1,2.1-1.9,2.8-3.2c0.4-0.2,0.8-0.2,1.1,0.1c1.1,0.8,2.3,1.3,3.5,1.9
		c1.4,0.9,2.7,1.8,4.1,2.7C96.5,34.4,96.5,34.5,96.5,34.6z"/>
	<path fill="#FDFDFD" d="M106.8,18.6c0.5,0.7,1.3,1.1,1.9,1.6c0.5,0.4,0.6,0.6,0.1,1.1c-0.7,0.8-1.3,1.7-2,2.5
		c-0.4,0.5-0.5,0.8,0.1,1.2c0.7,0.5,1.4,1.1,2,1.6c0.5,0.4,0.8,0.4,1.1-0.1c0.6-0.8,1.3-1.5,1.9-2.3c0.5-0.8,1-0.7,1.6-0.1
		c0.5,0.4,1,0.8,1.5,1.2c0.4,0.4,0.2,0.7-0.1,1c-2.4,3-4.9,6-7.3,9c-0.3,0.4-0.6,0.5-1.1,0.2c-2.3-1.7-2.4-1.7-0.5-3.9
		c1.6-2,1.6-2-0.4-3.6c-1.3-1.1-1.3-1.1-2.4,0.3c-0.2,0.2-0.3,0.4-0.5,0.7c-1.7,2.1-1.6,2-3.7,0.4c-0.6-0.5-0.7-0.8-0.2-1.4
		c0.5-0.5,0.9-1.1,1.3-1.7c0.2-1.8,1.7-2.8,2.8-4.1c0.1-0.1,0.4-0.1,0.6,0c0.8-1,1.6-1.9,2.4-2.9C106.1,18.9,106.3,18.5,106.8,18.6z
		"/>
	<path fill="#171717" d="M103.5,22.1c-1,1.4-2.1,2.8-3.3,4.1c-0.7-0.4-1.4-0.3-1.9,0.3c-0.2,0.2-0.5,0.6-0.8,0.5
		C96,26.8,95,27.9,94,28.5c-1,0.7-2.4,0.1-3.3,1.1c-0.1,0.1-0.4,0-0.5-0.1c-0.2-0.2-0.3-0.6-0.6-0.3c-0.3,0.3,0,0.7,0.2,0.8
		c0.5,0.3,0.9,0.8,1.6,0.8c1.1,0.1,1.9,0.6,2.4,1.5c-0.6,0.3-1-0.3-1.5-0.5c-1.5-0.6-2.8-1.6-4.5-1.9c-0.5,0.6-1,0.3-1.5,0.1
		c-1.2-0.5-2.4-1-3.6-1.5c-0.8-0.6-1.7-1-2.6-1.3c-0.1-0.1-0.2-0.2-0.2-0.3c-0.2-0.8,0.2-1.2,0.8-1.5c1.2-0.7,2.5-0.9,3.8-0.9
		c0.7,0,1.3,0,1.7-0.7c0.3-0.5,0.8-0.6,1.2-0.3c0.4,0.2,0.7,0.2,1.1,0c0.9,0.1,1.5,0.7,2.3,0.9c1.1,0.3,2.2,0.6,3.3,0.3
		c2-0.6,2.8-2.3,2.2-4.2c-0.2-0.5-0.7-1-0.2-1.7c1.1,0,1.2,1,1.4,1.7c0.4,1.4,0.6,1.6,1.9,0.8c1.3-0.8,2.5-0.1,3.7,0.2
		C103.3,21.7,103.4,22,103.5,22.1z"/>
	<path fill="#222222" d="M92.3,31.9c0.5,0.2,1,0.3,1.5,0.5c0.8,0.8,2,1,2.6,2C94.9,33.8,93.7,32.8,92.3,31.9z"/>
	<path fill="#FEFEFE" d="M96.2,19c0.7,1.2,1.4,2.3,1,3.8c-0.6,2.1-2.6,3.2-5.1,2.8c-1.2-0.2-2.3-0.8-3.4-1.4c-0.5,0-0.8-0.3-1.2-0.5
		c-1.1-0.7-1.2-1.4-0.2-2.3c0.4-0.4,0.7-1,1.2-1.3c0.6-0.3,1,0,1.4,0.4c0.6,0.5,1.2,1,2,1.3c0.3,0.1,0.6,0.1,0.7-0.2
		c0.1-0.2,0-0.5-0.1-0.7c-0.3-0.4-0.6-0.7-0.9-1c-1.8-1.7-2-3.8-1.2-6c0.3-0.4,0.7-0.4,1.1-0.5c1.4-1.1,3-1.1,4.6-0.7
		c1.3,0.5,2.5,1.1,3.6,2c0.7,0.7-0.1,1.1-0.4,1.6c-0.6,1-1.2,1.3-2.1,0.3c-0.5-0.5-1.2-0.9-2-1c-0.4-0.1-0.8-0.1-1.1,0.3
		c-0.3,0.4-0.1,0.8,0.2,1.1C94.9,17.7,95.5,18.4,96.2,19z"/>
	<path fill="#FEFEFE" d="M66.8,7.7c0.1,0,0.3,0,0.4,0c1.7-0.1,3.3-0.2,5-0.1c1.6,0.1,3,0.5,4.4,1.3c0.7,0.6,1.2,1.3,1.7,2.1
		c0.6,1.4,0.2,2.9,0.7,4.3c-0.5,0.1-0.4,0.6-0.5,1c0,2.3-1.3,3.4-3.2,4.3c-2.4,1.2-4.9,0.8-7.3,0.8c-0.6,0-1.2-0.4-1.7-0.7
		c-0.5-1.3,0.1-2.6,0-3.9c0.2-1.3,0-2.5,0.2-3.8C66.5,11.3,66.5,9.5,66.8,7.7z"/>
	<path fill="#2B2B2B" d="M66.5,20.6c2.2,0.3,4.4,0.5,6.7,0.1c2.7-0.4,4.4-1.9,5.3-4.4c0.3,1.2,0.9,1.1,1.7,0.6c2.4-1.5,5-2.5,7.8-3
		c0.7-0.1,1.4-0.5,2.1-0.8c0.6-0.3,1-0.1,1.3,0.4c-0.2,0.3-0.5,0.5-0.7,0.8c-0.6,0.3-0.6,0.9-0.9,1.4c-1,1.7-2.9,1.5-4.4,2
		c-1.5,0.5-2.9,0.9-4.3,1.8c-1.3,0.9-2.7,1.6-4.3,2c-1.6,0.4-2.9,1.5-4.3,2.2c-1.1,0.5-2.2,1.1-3.4,1.5c-0.6,0.2-1.2,0.5-1.3,1.3
		c-0.2,0.4-0.7,0.4-1,0.5c-2.4,0.1-4.7,0.6-6.9,1.2c-1.1,0.3-2.2,0-3.2,0.5c-0.3,0.1-0.6-0.2-0.7-0.5c-0.1-0.5,0-1,0.6-1.2
		c1.7-0.6,3.3-1.6,4.9-2.5c1.7-0.9,3.3-1.8,4.5-3.5C66.1,20.6,66.3,20.5,66.5,20.6z"/>
	<path fill="#3A3A3A" d="M55,23.7c0.8-1,2-0.9,3.1-1.2c0.4,0.1,1.1-0.2,1.3,0.6c0.1,0.6-0.2,0.9-0.7,1.1c-4,1.9-7.3,4.8-10.8,7.4
		c-1.4,1-3,1.9-4.2,3.2c-0.3,0.3-0.7,0.2-1,0.4c-0.1,0-0.1,0.1-0.2,0.2c0-0.1,0.1-0.1,0.2-0.1c1.5-0.5,2.4-1.8,3.7-2.5
		c0.7-0.4,1.4-0.7,2.1-1.1c0.4-0.2,0.8-0.2,1.1,0.2c0.4,0.9-0.3,1.1-0.8,1.5c-2.1,1.3-4.1,2.7-6,4.2c-3.8,3.1-6.8,6.9-9.4,11
		c-0.3,0.5-0.5,1.2-1.4,1.1c-0.7-0.4-0.6-0.9-0.2-1.4c0.5-0.8,1-1.7,1.5-2.5c-0.6,0.6-1.1,1.3-1.4,2.2c-0.3,0.9-1,1.5-1.6,2.2
		c-2.2,2.6-4,5.5-5.9,8.4c-0.7,1.1-1.3,1.2-2,0.2c0.1-0.6-0.3-0.6-0.7-0.7c-0.4-0.1-0.8-0.3-1.2-0.5c0-0.1-0.1-0.1-0.1-0.2
		c-0.1-0.5,1-0.5,0.6-1.1c-0.3-0.4-0.9-0.2-1.3-0.3c-0.4-0.1-0.8-0.2-0.6-0.8c0.5,0,1,0,1.6-0.1c0.9-0.1,2.1,0.4,2.8-0.2
		c0.7-0.6,0.7-1.8,1-2.6c0.1-0.1,0.1-0.3,0.2-0.4c0-0.1,0.1-0.2,0.1-0.2c1.2,0.3,1.6-0.6,2-1.3c0.5-0.7,1.1-1.4,1.7-2
		c2.2-2.3,4.1-5,6.6-7c1.7-1.4,2.6-3.3,4.5-4.6c1.1-0.8,2.1-2.1,3-3.3c0.8-1.1,1.8-1.9,2.9-2.6c0.9-0.6,1.6-1.4,2.4-2.1
		c1.8-1.7,4.2-2.6,6-4.3C54,23.8,54.5,23.4,55,23.7z"/>
	<path fill="#3D3D3D" d="M55,23.7c-1.1,0.9-2.1,2.1-3.4,2.8c-1.6,0.8-3,1.8-4.2,3c-1.5,1.6-3.5,2.6-4.9,4.4c-1.1,1.4-2,3.2-3.9,3.9
		c-0.2,0.1-0.4,0.3-0.5,0.5c-1.5,2.6-4.2,4.1-6,6.4c-2,2.6-4.7,4.6-6.3,7.5c-0.2,0.4-0.4,1-0.9,0.8c-0.7-0.2-0.2-0.8-0.1-1.2
		c0-0.2-0.1-0.3-0.3-0.2c0-0.1,0-0.1,0-0.2c-0.1-0.1-0.1-0.2-0.1-0.3c0-0.1,0-0.2,0.1-0.3c1.5-1.7,3.1-3.3,4.5-5
		c1.7-2.2,3.6-4.3,5.5-6.2c1.3-1.3,2.6-2.7,3.7-4.2c0.9-1.2,2.1-2.1,3.3-3.1c1-0.8,1.9-1.6,2.5-2.7c0.5-0.8,1.5-1.1,1.9-1.9
		c0.8-0.6,1.7-1,2.7-1.4c0.1-0.5,0.2-1,0.8-1.1c1.1-0.2,2-1,2.8-1.7c0.6-0.5,1.2-1.1,2.1-0.5C54.3,23.3,55,23.2,55,23.7z"/>
	<path fill="#353535" d="M22.3,58.6c0.9,0.4,1.2,0,1.7-0.7c2.1-3.1,3.9-6.4,6.7-9c0.4-0.3,0.5-0.8,0.6-1.3c0.4-1.4,1.5-2.2,2.5-3.1
		c0.2-0.2,0.5-0.3,0.7-0.1c0.3,0.3-0.1,0.4-0.2,0.6c-0.6,1.6-2.1,2.8-2.3,4.6c0,0,0,0.1-0.1,0.1c-0.7,0.9-0.9,2.1-1.5,3.1
		c0,0-0.1,0.1-0.1,0.1c-0.4,0.1-0.6,0.3-0.8,0.7c-0.4,1.4-1,2.8-1.4,4.3c-0.6-0.3-0.9,0-1.1,0.5c-1.2,2.8-2.6,5.5-4.1,8.2
		c-0.5,1-0.8,1.1-2,0.7c-0.9-0.3-1.8,0-2.7-0.2c-0.6-0.7-0.5-1.3,0.2-2c0.9-0.9,1.8-1.9,1.4-3.4c-0.1-0.3-0.1-0.7,0.5-0.6
		c0.9,0.4,1.4,0,1.5-0.9C21.9,59.7,22.2,59.1,22.3,58.6z"/>
	<path fill="#3C3C3C" d="M20.3,61.1c-0.2,0.6,0.9,0.6,0.6,1.2c-0.6,1.1-0.9,2.3-1.9,3.1c-0.5,0.4-0.8,0.9-0.7,1.5
		c-0.6,0.4-1.2,0-1.8,0.1c-0.4,0.1-0.9-0.1-1.3,0.1c-0.2,0-0.3,0-0.5,0c-1.3-0.3-2.7,0.1-4-0.2c-0.3-0.8-0.1-1.6,0.1-2.4
		c0.1,0.1,0.1,0.2,0.2,0.3c0.3,0.6-0.3,1.7,0.9,1.8c1.1,0.1,2.3,0.3,3.2-1c1-1.7,2.6-3,2.8-5.2c0,0,0.1,0,0.2,0
		C18.8,60.6,19.6,60.8,20.3,61.1z"/>
	<path fill="#575757" d="M24.5,51.1c0,0.1,0,0.2,0,0.3c-1.5,0-3.1-0.1-4.6,0c-1.8,0.1-1.8,0.1-2.9-1.2c-0.3-0.4-0.7-0.6-1.1-0.9
		c0.5-0.1,1.1,0.1,1.3-0.9c0.1-0.5,1.2-0.9,1.9-1.3c0.7-0.4,1.3-0.8,0.9-1.8c0.7,0.4,1.4,0.8,2.2,1.2c0.9,0.8,0.9,1.1,0.1,2
		c-0.5,0.6-1.4,1-1.2,2c0.8,0.4,1.6,0.1,2.3,0.2C23.7,50.8,24.2,50.6,24.5,51.1z"/>
	<path fill="#414141" d="M19,55c0.6,0.4,1.4,0.2,2.1,0.4c0.6,0.2,1.2,0.2,1.2,1c0,0.8-0.6,0.8-1.2,0.8c-0.2,0-0.4,0.1-0.7,0.2
		c-0.5-0.1-1-0.2-1.5-0.4c-0.4-0.1-1.1-0.1-1.1-0.7C17.9,55.7,18.2,55.1,19,55z"/>
	<path fill="#565656" d="M14.2,52.5c0.9,0,1.6,0.8,1.5,1.8c-0.1,0.5,0.1,1.6-0.8,1.4c-0.8-0.2-2.1,0.1-2.3-1.2
		C12.3,53.5,13.3,52.5,14.2,52.5z"/>
	<path fill="#2D2D2D" d="M15.1,67.2c1-0.4,2.1-0.1,3.1-0.2c0.2,0,0.4,0,0.6,0c1-0.1,2.3,0.6,3-0.1c0.9-0.9,1.6-2.2,2.1-3.4
		c1-2.4,2.4-4.5,3.3-6.9c0.1-0.3,0.4-0.6,0.9-0.5c-0.5,0.6-0.4,1.2,0,1.7c-0.5,2-1,4-1.4,6c-0.5,0.6-0.6,1.3-0.9,1.9
		c-1.6,3.3-3.6,6.4-5.3,9.7c-1,2-2.3,3.9-2.8,6.2c-0.1,0.2-0.1,0.5-0.2,0.7c-0.4,1.8-1,2.1-2.8,1.4c1.4-1.3,1.8-3.2,2.6-4.9
		c1-2.2,1.7-4.5,3.3-6.3c0.4-0.4,0.7-1.1,0.1-1.7c-0.1-0.8-0.1-1.5,0.1-2.3c0.2-0.8-0.1-1.1-1-1.1C18.2,67.4,16.7,67.3,15.1,67.2z"
		/>
	<path fill="#434343" d="M10.7,67c1.3,0,2.7-0.2,4,0.2C13.3,67.1,12,67.3,10.7,67z"/>
	<path fill="#363636" d="M42.5,35.3c1.2-1.4,2.4-2.8,4.2-3.7c1-0.5,1.9-1.2,2.7-1.9c2.7-2.5,5.8-4.3,9-6c1.2-0.7,0-0.8-0.3-1.1
		c1.3-0.3,2.6-0.7,3.9-1c0.8-0.2,1.1-0.5,0.9-1.3c-0.2-0.7,0.2-1,0.7-1.2c2.1-0.7,2.3-2.3,2.2-4.1c-0.1-0.6-0.1-1.2,0.2-1.7
		c0.1-0.2,0.2-0.3,0.5-0.2c0.2,0.1,0.2,0.2,0.2,0.4c0,1.2,0.1,2.4-0.1,3.5c0,1.2,0,2.5,0,3.7c0,0.5,0,1-0.5,1.4
		c-2.7,2.1-5.8,3.5-8.7,5.3c-0.1,0.1-0.4,0-0.6,0c-0.3,0.1-0.2,0.3-0.2,0.5c0,0.2,0.2,0.2,0.3,0.2c3.6-0.5,7.1-1.5,10.7-1.8
		c0,0,0.1,0,0.1-0.1c0.2-0.5,0.7-0.5,1.1-0.5c1,0.3,2,0,3.1-0.1c0.8-0.1,1.6-0.1,2.4,0.3c1.5,0,3,0.2,4.5,0.5
		c0.5,0.1,1.1,0.2,1.4,0.8l0,0c0.1,0.1,0.1,0.3,0,0.4c-0.8,0.6-1.8,0.2-2.7,0.3c-2.3-0.7-4.6-0.7-6.9-0.6c-3.7,0-7.3,0.4-10.9,1.2
		c-0.5,0.1-0.9,0.3-1.3,0.6c-2.5,0.7-5,1.7-7.3,2.9c-0.5,0.3-1,0.7-1.6,0.1c-1.6,0.2-2.8,1.3-4.1,2.1C44.5,34.6,43.8,35.7,42.5,35.3
		L42.5,35.3z"/>
	<path fill="#434343" d="M66.5,16.9c0-1.1,0-2.3,0-3.4c-0.1,0-0.2,0-0.3,0c0,0.6,0,1.2,0,1.9c-0.9,1-2.1,1.6-2.9,2.7
		c-0.2,0.3-0.6,0.3-1,0.2c-0.6-0.1-1.2-0.1-1.6,0.5c-0.7,0.2-1.4,0.4-2.2,0.6c-1.4,0.4-1.4,0.4-1.8-1.1c-0.2-0.6-0.1-1,0.6-1.1
		c0.3,0,0.6-0.1,0.9-0.2c0.8-0.2,1.9-0.2,2.5-0.7c0.7-0.6-0.3-1.6-0.2-2.4c0.5,0.4,0.8,0.3,1.5,0c0.9-0.5,1.9-1,2.8-1.4
		c1.1-0.5,1.5-1.3,1.5-2.4c0-0.7-0.2-1.5,0.3-2.2c0,2.6-0.1,5.3-0.1,7.9C66.6,16.1,66.5,16.5,66.5,16.9z"/>
	<path fill="#4F4F4F" d="M45.8,20.5c1.5-0.7,2.6-1.8,3.8-2.8c0.2-0.2,0.4-0.5,0.7-0.7c0.9-0.7,1.8-1.5,1.8-2.8
		c0.4,1.3,0.8,2.5,1,3.8c-0.1,0.1-0.1,0.2-0.1,0.3c0.3,2.1,0.2,2.3-1.6,3.2c-0.6,0.3-1.1,0.7-1.5,1.1c-1.1,1.2-1.7,1.2-2.7-0.1
		c-0.1-0.1-0.2-0.2-0.2-0.3C46.4,21.7,46,21.2,45.8,20.5z"/>
	<path fill="#434343" d="M46.8,22.3c1.6,0.9,1.6,0.9,3-0.5c0.5-0.5,1.1-0.7,1.7-1c1.1-0.6,1.5-1.6,1.6-2.8c0.5,1.6,0.9,3.2,1.2,4.8
		c-2.1,0.9-3.5,2.8-5.8,3.4C48.3,24.7,47.2,23.7,46.8,22.3z"/>
	<path fill="#3B3B3B" d="M60.8,18.7c-0.1-0.1-0.6-0.2-0.2-0.3c1.8-0.4,3.1-1.6,4.5-2.7c0.3-0.3,0.8-0.4,1.2-0.4c0,0.3,0,0.6,0,0.8
		c0.2,1.7-0.5,2.8-2.2,3.3c-0.4,0.1-1,0.2-1.2,0.8c0-0.1-0.1-0.2-0.1-0.3C62.7,18.6,61.9,18.3,60.8,18.7z"/>
	<path fill="#D5D5D5" d="M88.1,83.5c0.9-0.1,0.7,0.5,0.5,1c-0.8,1.6-1.9,2.9-3,4.2c-0.4,0.4-0.7,0.7-0.8,1.3c-0.7,1.5-2,2.1-3.2,3
		c-1.9,1.4-3.6,3-5.7,4.1c-0.2,0.1-0.3,0.4-0.5,0.5c-1.3,0.3-2.5,0.8-3.6,1.5c-0.7,0.4-1.5,0.3-2.1,0.7c-0.7,0-1.4,0-2.2,0
		c-0.2-0.2-0.3-0.3-0.5-0.5c0.6-1,1.8-0.7,2.7-1c1.4-0.5,2.8-0.8,4.1-1.6c2.8-1.1,5.2-2.8,7.4-4.9c2-1.9,3.9-4,5.5-6.4
		c0.2-0.4,0.3-0.7,0.3-1.1C87,83.8,87.6,83.8,88.1,83.5z"/>
	<path fill="#B6B6B6" d="M114.5,73c-0.3,1.4-1.4,2.4-2.2,3.5c-0.6,1-0.8,2-0.9,3c-0.1,0.8-0.5,1.3-1.2,1.3c-0.7,0.1-1.1,0.3-1.2,1.1
		c0,0.3-0.2,0.6-0.5,0.7c-1.7,0.5-2.4,2.1-3.3,3.3c-1.1,1.4-2.3,2.7-3.6,3.9c-1.8,1.7-3.5,3.5-5.3,5.2c-1.1,1-2.4,2.1-3.2,3.2
		c-1.3,1.8-3.3,3-4.7,4.7c-1.3,1.5-2.5,3.4-4.6,3.9c-0.3,0.1-0.6,0.2-0.6,0.5c-0.2,1-0.7,1.6-1.7,1.8c-0.3,0.1-0.4,0.5-0.4,0.8
		c0,1.2-0.8,1.6-1.8,1.6c-1.7,0.1-3.1,0.7-4.2,2c-0.5,0.6-1.3,0.9-1.9,1.3c-0.9-0.9,0.2-1.5,0.5-1.9c0.7-0.8,1.5-1.5,2.7-1.6
		c0.3,0,0.7-0.2,0.9-0.4c0.7-1.2,2.3-1.4,2.9-2.7c0.1-0.2,0.4-0.5,0.6-0.6c1.9-0.7,3.1-2.6,5-3.3c0.3-0.1,0.4-0.5,0.6-0.7
		c1.6-1.6,3-3.3,4.7-4.9c0.9-0.8,2-1.6,2.6-2.7c0.5-0.9,1.6-1.3,2.2-2.1c1.4-1.6,3.1-3.1,4.6-4.6c2.4-2.5,5.1-4.8,6.7-8
		c0.6-1.1,1.2-1.8,2.1-2.6c1.4-1.1,2.6-2.6,2.7-4.5c0.1-1.3,0.9-2.1,1.7-2.9c0.3-0.4,0.6-0.2,0.7,0.1
		C114.5,72.1,114.4,72.5,114.5,73z"/>
	<path fill="#0D0D0D" d="M119.4,36.9c2.1,0,3.2,1.7,2.4,3.3c-1,1.9-2.6,2.9-4.7,3.1c-1.8,0.1-3-1.7-2.2-3.4
		C115.9,38.1,117.6,37.1,119.4,36.9z"/>
	<path fill="#444444" d="M45.8,27.6c0.3,0.3,0.9-0.1,1.2,0.5c-1.2,0.2-2,0.9-2.7,1.9c-1.3,1.9-3.3,3.2-4.9,4.7
		c-0.6,0.6-1.1,1.2-1.5,1.8c-1.1,1.7-2.7,2.8-4,4.2c-1.5,1.7-3.1,3.3-4.4,5.2c-1.4,1.9-3.2,3.4-4.8,5.1c-0.5-0.2-1.1-0.1-1.6-0.1
		c-0.8-0.4-0.9-1-0.2-1.6c0.2-0.2,0.4-0.5,0.6-0.7c0.3-0.4,0.6-0.7-0.1-1c-0.3-0.1-0.5-0.3-0.4-0.6c0.2-0.4,0.5-0.2,0.8-0.1
		c3.4,0,4.9-2.2,5.9-5c0.2-0.3,0.1-0.7,0.1-1c0-0.6-0.1-1.2,0.8-0.9c0.3,0.1,0.5-0.2,0.7-0.4c1-1.1,2-2.1,2.7-3.5
		c2.2-1.1,4.1-2.6,5-5c0.2-0.2,0.1-0.5,0.1-0.8c0-0.7-0.1-1.5,0.9-0.5c0.4,0.4,0.6-0.1,0.8-0.3c0.9-1,1.8-2,2.7-3
		c0.3-0.3,0.4-0.7,1-0.4C45.1,26.6,45,27.4,45.8,27.6z"/>
	<path fill="#4E4E4E" d="M44.7,26.2c-0.7,1.4-2.1,2.2-2.9,3.5c-0.2,0.2-0.4,0.4-0.5,0.6c-0.3,0.4-0.4,1.2-1.1,1
		c-0.7-0.1-0.2-0.9-0.6-1.3c-0.2,0.4-0.1,0.9-0.4,1.2c0.2-1.3,0-2.5-0.7-3.6c-0.1-0.2,0-0.4,0.1-0.4c2.3-0.2,2.7-2.3,3.4-3.9
		c0.2-0.4,0.1-0.9,0.7-0.8C43.4,23.7,44.1,24.9,44.7,26.2z"/>
	<path fill="#636363" d="M34.3,26.4c0-0.2,0-0.3,0-0.5c0.1-0.1,0.2-0.2,0.3-0.2c1.5-0.4,2.1-1.5,2.8-2.7c0.6-0.9,0.8-1.8,0.7-2.8
		c0.3-0.2,0.7-0.5,1-0.6c1.7-0.9,1.7-0.9,2.4,0.9c0.7,1.3,0.6,2.2-0.7,3.2c-0.9,0.7-1.4,1.8-2.1,2.8c-0.3,0.4-0.6,0.6-1.1,0.5
		C36.6,26.3,35.5,26.2,34.3,26.4z"/>
	<path fill="#5A5A5A" d="M37.6,26.9c0.9-1.3,1.8-2.5,2.6-3.8c0.2-0.3,0.4-0.5,0.7-0.7c0.6-0.3,1.1-0.7,0.5-1.4
		c-0.1-0.2,0-0.5,0.1-0.7c0.5,0.7,0.9,1.4,1.2,2.2c0,2.5-2,4-3.2,5.9c-0.6-0.1-0.4-1.1-1.2-0.8C38.1,27.4,37.9,27.2,37.6,26.9z"/>
	<path fill="#6B6B6B" d="M38.2,20.2c1.1,0.6,1.1,1.4,0.3,2.3c-0.5,0.6-0.9,1.2-1.2,1.9c-0.5,1.5-1.6,1.8-3,1.6
		c0.2-1,0.9-1.8,1.4-2.7c0.7-1.1,1.1-2.4,1.5-3.6C37.6,19.7,37.7,20.2,38.2,20.2z"/>
	<path fill="#616161" d="M31.7,30.9c0.9-0.3,1.8-0.7,2.7-1c0.5-0.2,1.1-0.2,1.4,0.3c0.3,0.5,0.1,1-0.3,1.4c-0.8,0.9-1.7,1.4-2.8,1.8
		c-0.4,0.1-0.8,0.2-0.7,0.7c0.3,0.8,0.2,1.5-0.5,2c-0.3,0.2-0.5,0.5-0.8,0.8c-1.1,1.1-1.1,1.1-2.4,0.5c-0.2-0.2-0.5-0.5-0.7-0.7
		c-0.2-0.5-0.1-1,0.4-1.4c0.8-0.6,1.4-1.4,2.2-2C30.9,32.8,31.2,31.8,31.7,30.9z"/>
	<path fill="#737373" d="M23.9,34.4c1.1-0.3,1.7-1,2-2.1c0.3-1,0.9-1.7,1.7-2.3c1.1,0.9,2.4,1.1,3.8,1c-0.1,0.9-1,1.1-1.5,1.8
		c-0.6,0.8-1.5,1.4-2,2.3c-0.6,1-1.4,1-2.3,0.5C25.1,35.1,24.5,34.8,23.9,34.4z"/>
	<path fill="#4C4C4C" d="M23.8,47c0,0.1-0.6,0.1-0.1,0.2c0.5,0.2,1.1,0.1,1.9,0.1c-0.9,1-1.5,1.9-2.3,2.6c-0.4,0.3-0.3,0.6-0.2,0.9
		c-1,0.2-2.1,0.2-3.1,0c0.4-1.2,1-2.2,2.1-3c0.6-0.4,0-0.9,0.1-1.4C22.7,46.7,23.3,46.8,23.8,47z"/>
	<path fill="#676767" d="M25.7,35.5c0.8,0.3,1.3-0.2,1.7-0.8c0.6-0.9,1.3-1.6,2.1-2.3c0.1,0,0.2-0.1,0.2-0.1
		c-0.1-1.5,1.2-0.9,1.8-1.3c0.1,0,0.1,0,0.2,0c0.4,0.2,0.5,0.3,0.3,1c-0.9,2.1-3.1,3-4.3,4.9C26.9,36.3,26.3,35.9,25.7,35.5z"/>
	<path fill="#4E4E4E" d="M34.1,36.2c0.3,0.2,0.8,0.3,0.3,0.8c-1.1,1.4-2.2,2.8-3.4,4.1c-0.8,0.9-0.7-0.2-0.9-0.7
		c-0.2,0.6,0,1.1-0.3,1.5c0-0.8,0-1.5,0-2.3c-0.1-0.7,0-1.4,0.7-1.7c1.1-0.5,1.5-1.4,1.5-2.6c0-0.3-0.1-0.6,0.4-0.6
		C32.9,35.3,32.9,36.5,34.1,36.2z"/>
	<path fill="#676767" d="M19.7,40.8c1.3,0.5,2.4,0.1,3.6-0.6c0.6-0.4,0.3-1.2,1-1.3c0.5,0.2,1,0.5,1.4,1c0.1,1.7-1.2,3-2.8,2.9
		C21.7,42.2,20.7,41.5,19.7,40.8z"/>
	<path fill="#585858" d="M32.4,34.8c0.3,1.8-0.3,3.1-2,3.9c-0.3,0.1-0.5,0.6-0.7,0.9c-0.4-0.8-0.7-1.6-1.4-2.2
		c2.1,0,2.7-1.8,3.6-3.2C32.2,34.3,32.4,34.5,32.4,34.8z"/>
	<path fill="#5C5C5C" d="M22.8,42.7c1.4-0.5,2-1.8,2.8-2.9c0.4,0.5,1,0.9,1.1,1.7c0.1,1.3-1.1,2.2-2.5,1.9
		C23.7,43.3,23.2,43.1,22.8,42.7z"/>
	<path fill="#8B8B8B" d="M24,20.9c0.8-0.9,1.5-2,2.6-2.6C25.9,19.2,25.2,20.4,24,20.9z"/>
	<path fill="#6C6C6C" d="M88.1,83.5c-0.1,0.5-0.7,0.6-0.9,0.9c-1.3,2.3-2.9,4.2-4.7,6.1c-2.2,2.3-4.7,4.3-7.6,5.8
		c-2.3,1-4.6,2.1-7.1,2.4c-2.9,0.6-5.8,0.4-8.7,0.6c-0.7,0-1.4-0.4-2.1-0.3c-1.9-0.8-4-1.5-5.6-3c-0.7-1-1.5-2-2.2-3
		c-0.4-1.6-1.4-3-1.5-4.7c-0.5-3.7-0.7-7.3-0.2-11c0.5-3.4,1.4-6.7,2.6-9.9c1.9-4.9,4.5-9.2,8-13.1c3.1-3.4,6.7-6.1,10.8-8.2
		c4.9-2.6,10-2.9,15.3-2.3c1.2,0.1,2.3,0.6,3.5,0.6c1.4,0.4,2.2,1.7,3.5,2.4c1,1.1,1.6,2.4,1.9,3.8c0.3,2.1,0,4.1-0.4,6.1
		c-0.1,0.6-0.4,1.2-0.5,1.9c-1.9,4.1-5.1,6.9-8.9,9.1c-1.5,0.9-3.1,1.7-4.7,2.4c-6.5,2.8-13.3,4.6-20.2,6.1
		c-0.6,0.1-1.2,0.1-1.6,0.7c-0.7,3.4-0.2,6.7,1,10c0.6,1.2,0.9,2.6,1.8,3.6c0.2,0.6,0.9,0.9,1.3,1.4c0.5,1.6,2.1,2.1,3.4,2.7
		c4.2,1.6,8,0.6,11.7-1.6c1.3-0.8,2.6-1.5,3.6-2.7c1.9-1.7,3.7-3.5,5.3-5.5c0.4-0.6,1.1-0.9,1.3-1.7c0.1-0.4-0.3-0.5-0.4-0.7
		c-0.3-0.3-0.4-0.7-0.3-1.1c0.4-0.3,0.6-0.1,0.9,0.2C86.9,82.2,87.5,82.9,88.1,83.5z"/>
	<path fill="#E6E6E6" d="M77.5,27.1c0.9,0.1,1.8,0.2,2.6,0.3c1,0,2,0.3,2.9,0.7c1.6,0.6,3.2,1.3,4.8,1.9c0.2,0.3,0.2,0.7-0.1,1
		c-0.6,0.6-1.2,1.3-1.9,1.8c-0.7,0.6-1.3,1.2-0.9,2.3c0.2,0.5-0.1,1-0.5,1.4c-1.3,1-2.3,2.1-3.4,3.3c-0.8,0.9-2.1,0.7-3.2,1
		c-0.4,0.1-0.9-0.1-1.1,0.4c-3,0.3-6,1-8.8,2.3c-0.3,0.1-0.6,0.3-0.8,0.7c0,0.1,0,0.1-0.1,0.2c-2,1.1-3.9,2.3-5.8,3.5
		c-0.9,0.6-1.5,1.3-2.2,2c-1.1,1.3-2.3,2.4-3.6,3.5c-0.6,0.5-0.9,1.2-1.4,1.8c-2.3,3-4,6.3-5.6,9.8c-0.2,0.4-0.5,0.6-0.8,0.8
		c-0.9,2.6-1.9,5.1-2.2,7.9c-0.7,0.9-1.3,1.7-1.5,2.9c-0.1,0.5-0.2,1-0.6,1.1c-1,0.3-1.6,1.1-2.6,1.4c-0.4,0.1-0.8,0.2-0.7,0.7
		c0.2,1.7-1.3,2.5-2.2,3.5c-0.7,0.7-1.7,1.3-2.5,2c-1.3,1.1-3.1,1-4.2,2.4C31,88,30.2,87.9,30,87.3c-0.2-0.5-0.6-0.8-0.9-1.2
		c-0.5-1-0.7-2.1-1.2-3c0-1-0.5-1.9-0.6-2.9c0.2-0.8-0.4-1.6-0.3-2.4c0.4-0.7,0.8-0.2,1.1,0.1c1.1,0.9,1,0.8,2,0
		c1.1-0.9,1.7-2.1,3-2.8c1.1-0.6,1.6-2.2,2.4-3.2c1.5-1.9,2.6-4,4.1-5.9c0.1-0.1,0.2-0.3,0.3-0.4c1.6-0.7,2-2.4,2.8-3.7
		c0.7-1.1,2-1.5,2.7-2.5c0.3-0.5,0.8-0.9,1.1-1.4c0.3-0.6,0.8-1.2,1.4-1.6c1.2-0.7,2.1-1.8,2.9-2.9c1.2-1.6,2.5-3,4-4.1
		c1.7-1.2,2.9-2.9,4.7-3.9c0.7-0.3,1-1.1,1.5-1.7c1.4-1.3,3.3-2,4.4-3.7c0.1-0.2,0.4-0.3,0.6-0.4c1.1-0.7,2.5-1,3.1-2.3
		c2-0.7,3.2-2.6,5-3.5c1.8-0.9,3-2.7,4.3-4.3c0.4-0.5-0.1-0.9-0.3-1.3C77.9,27.9,77.2,27.7,77.5,27.1z"/>
	<path fill="#DEDEDE" d="M29.2,86c0.2,0.1,0.5,0.2,0.6,0.4c0.7,1.2,1.3,0.9,2.1,0.1c0.5-0.6,1-1,1.9-0.9c0.8,0.1,1.1-0.8,1.7-1.2
		c1.2-0.8,2.6-1.3,3.2-2.8c0.1-0.3,0.2-0.5,0.5-0.6c0.6-0.2,0.6-0.6,0.4-1.1c-0.2-0.9,0-1.5,1.1-1.4c0.4,0,0.7,0,0.7-0.5
		c0.1-0.8,0.3-1.2,1.2-0.7c0.7,0.4,1-0.2,0.8-0.8c-0.2-0.8,0-1.3,0.7-1.6c0.3-0.1,0.5-0.4,0.5-0.8c0.1-0.8,0.5-0.7,1-0.4
		c-0.7,4.1-1,8.1-0.5,12.3c-0.6-0.1-1.2-0.2-1,0.8c0.1,0.5-0.3,0.7-0.7,0.8c-0.4,0.1-0.8,0.4-1.2,0.5c-2,0.6-2.5,2.9-4.2,3.9
		c-0.7,0.4-0.6,1.1-0.5,1.8c0.1,1.2-0.2,1.4-1.4,1.4c-1.4,0-2.2-1-3.3-1.6c-1.1-1.4-1.6-3.1-2.5-4.6C29.8,88,29.1,87.1,29.2,86z"/>
	<path fill="#202020" d="M67.2,44.2c1.2-0.4,2.4-0.8,3.6-1.2c2.9-0.8,5.9-1.4,8.9-1.3c2.3,0.1,4.5,0.5,6.6,1.4
		c0.4,0.2,1,0.3,0.8,0.9c-0.2,0.5-0.7,0.4-1.1,0.3c-2.4-0.7-4.9-1-7.5-0.8c-3.6,0.2-7,1.1-10.3,2.6c-3.8,1.8-7.1,4.2-10,7.3
		c-2.5,2.6-4.5,5.6-6.2,8.7c-0.9,1.6-1.4,3.3-2.3,4.9c-1.6,3.5-2.3,7.2-2.8,10.9c-0.3,2-0.2,4-0.2,6.1c0,0.2,0,0.4,0,0.6
		c0,0.2-0.1,0.5-0.4,0.5c-0.4,0.1-0.5-0.2-0.5-0.5c-0.2-0.8-0.1-1.7-0.5-2.4c-0.2-1.6,0.4-3.2,0.2-4.9c0.3-1.2,0.4-2.5,0.6-3.7
		c0.2-1.3,0.5-2.5,0.9-3.8c0.6-1.4,1.1-2.8,1.3-4.3c0.5-1.9,1.5-3.5,2.4-5.2c1-2,2.5-3.8,3.7-5.7c1.9-2.1,3.8-4.2,6.1-6
		C62.5,46.7,64.6,45.1,67.2,44.2C67.2,44.2,67.2,44.2,67.2,44.2z"/>
	<path fill="#525252" d="M45.6,77.1c-0.1,1.7-0.1,3.3-0.2,5c0.1,0.1,0.3,0.2,0.3,0.4c-0.1,1.9,0.9,3.7,1.1,5.5
		c0.1,1,0.6,1.9,1.2,2.8c0.5,0.7,0.5,1.7,1.4,2.1c0,0,0.1,0,0.1,0c1,0.8,1.5,1.9,1.9,3.1c-3.2-2.3-4.9-5.6-5.6-9.4
		c-0.7-3.4-0.7-6.9-0.1-10.3C45.8,76.5,45.7,76.8,45.6,77.1z"/>
	<path fill="#888888" d="M56.9,99c1.1-0.3,2.3-0.1,3.4-0.1c2.6,0,5.1-0.3,7.6-0.5c-0.4,1-1.4,0.6-2.2,1c-0.3,0.1-0.6,0.2-1,0.2
		c-0.6,0.5-1.2,0.3-1.9,0.3c-1-0.1-1.9-0.1-2.9-0.3C58.9,99.7,57.9,99.3,56.9,99z"/>
	<path fill="#9F9F9F" d="M65.8,99.4c0.7-0.3,1.4-0.6,2.2-1c2.4-0.5,4.7-1.4,7-2.4c0.1,0.8-0.6,0.7-1,1c-2.1,1.4-4.6,1.8-7,2.4
		C66.6,99.4,66.2,99.4,65.8,99.4z"/>
	<path fill="#D9D9D9" d="M54.5,54.5c-2.2,3-4.3,6.1-5.7,9.6c-0.1,0.4-0.3,0.7-0.4,1.1c-0.2,0.2,0,0.6-0.4,0.5c-0.1,0-0.2,0-0.3,0
		c1.5-3.9,3.5-7.5,6-10.8C54,54.7,54,54.3,54.5,54.5z"/>
	<path fill="#D5D5D5" d="M64.8,99.8c0.4,0.6-0.3,0.4-0.4,0.4c-1,0-2-0.1-2.9-0.4C62.6,99.6,63.7,99.6,64.8,99.8z"/>
	<path fill="#2C2C2C" d="M48.1,65.8c0.1-0.2,0.3-0.4,0.4-0.5c-0.3,1.5-0.6,3-1.6,4.4C47.3,68.3,47.7,67,48.1,65.8z"/>
	<path fill="#CCCCCC" d="M64.8,99.8c-1.1,0-2.2,0-3.4,0c-0.5,0-1,0-1.4-0.2c1.6,0,3.2,0,4.8,0C64.8,99.7,64.8,99.8,64.8,99.8z"/>
	<path fill="#424242" d="M45.6,77.1c0-0.3,0-0.5-0.1-0.8c0-1,0.2-2,0.5-2.9C46.1,74.6,45.9,75.9,45.6,77.1z"/>
	<path fill="#202020" d="M29.2,86c0.4,1,0.7,2,1.1,3.1c-0.6-0.4-0.8-1.1-1-1.7c-0.6-1.6-1.1-3.2-1.7-4.8c0.5-0.2,0.3,0.4,0.5,0.5
		C28.5,84,28.8,85,29.2,86z"/>
	<path fill="#2D2D2D" d="M28.1,83c-0.2-0.2-0.3-0.3-0.5-0.5c-0.2-0.6-0.3-1.3-0.5-1.9c0-0.2,0-0.3,0-0.5c0.1-0.2,0.2-0.2,0.3,0
		C27.7,81.1,28,82,28.1,83z"/>
	<path fill="#353535" d="M27.4,80.1c-0.1,0-0.2,0-0.3,0c-0.1-1.6-0.7-3.2-0.7-4.8c0.1,0,0.2,0,0.3,0c0.9,0.5,1,1,0.4,2.2
		C27.2,78.4,27.3,79.3,27.4,80.1z"/>
	<path fill="#2A2A2A" d="M14.6,83.8c1.8,0,1.8,0,2.3-1.8c0.6-2.3,1.6-4.4,2.8-6.4c1-1.7,2.1-3.4,2.6-5.4c0-0.1,0-0.2,0.1-0.2
		c1.8-1.6,2.2-4.2,3.8-5.8c0.1-0.1,0.3-0.2,0.4-0.2c-0.3,1.4-0.1,2.9-0.5,4.3c-0.5-0.2-0.7,0-0.9,0.4c-1,2.1-2,4.1-3.1,6.1
		c-1.5,2.6-2.2,5.5-3,8.4c-0.2,0.7-0.5,1.3-0.9,1.8c-0.2,0-0.3,0-0.5,0.1c-1.6-1.1-2.2-1.1-3.9-0.1C13.7,84.3,14.3,84.1,14.6,83.8z"
		/>
	<path fill="#F0F0F0" d="M27.1,77.5c-0.1-0.7-0.3-1.4-0.4-2.2c0-1.4,0-2.7-0.1-4.1c1-0.9,1-2.3,1.8-3.3c0.3-0.4,0.4-0.8,0.9-1.1
		c0.1-0.1,0.3-0.1,0.3-0.2c0.9-2,3.3-2.7,4.4-4.5c0.3-0.5,0.8-0.8,1.3-1.1c1-0.7,1.8-1.6,2.5-2.5c0.5-0.7,1-1.3,1.7-1.8
		c1-0.6,1.8-1.5,2.5-2.4c1-1.2,2.1-2.3,3.3-3.2c1.3-1,2-2.4,3.3-3.5c1.5-1.3,3.1-2.5,4.3-4c0.9-1.1,2.1-1.9,3-3.1
		c1-1.4,2.4-2.5,3.9-3.5c1.3-0.8,2-2,3-3c0.4-0.5,0.8-1,1.5-1.1c0.3-0.1,0.6-0.2,0.8-0.5c1.2-1.1,2.3-2.1,3.8-2.8
		c1.3-0.6,1.4-1.9,1.5-3.2c2.4-0.1,4.7,0,7,0.5c0.8,0.3,1.2,1.1,1.9,1.6c0.5,0.3,0.3,0.7-0.1,1c-0.9,0.6-1.6,1.5-2.2,2.3
		c-1.4,1.7-3.3,2.6-4.9,3.9c-0.8,0.7-1.3,1.7-2.5,1.8c-0.1,0-0.1,0.1-0.2,0.1c-2.1,2-4.7,3.4-6.8,5.4c-0.8,0.7-2,1.3-2.3,2.4
		c0,0.1-0.1,0.2-0.2,0.3c-2,0.7-3.1,2.6-4.8,3.8c-1.5,1-2.7,2.4-3.9,3.8c-1,1.2-1.9,2.6-3.3,3.4c-0.6,0.3-0.9,0.9-1.2,1.4
		c-0.7,1.3-1.7,2.3-2.9,3.1c-0.9,0.6-1.4,1.5-1.6,2.6c-0.1,0.7-0.5,1.1-1.2,1.4C40,65.8,39.6,67,38.9,68c-1.6,2.2-3.1,4.5-4.6,6.8
		c-0.3,0.4-0.6,0.8-1,1c-1.4,0.6-1.9,1.9-2.9,2.9c-1.1,1.2-1.3,1.3-2.3,0C27.7,78.2,27.4,77.9,27.1,77.5z"/>
	<path fill="#F8F8F8" d="M49.5,31.9c2.4-1.1,4.8-2.3,7.4-3.1c0.4-0.1,0.8-0.2,1.2-0.3c1,0.1,2-0.3,3-0.5c1.4-0.3,1.9,0,1.6,1.4
		c-0.1,0.4-0.1,0.9-0.2,1.3c-0.1,0.4-0.3,0.8-0.7,0.9c-1.7,0.5-2.7,1.8-3.8,3c-0.5,0.6-1.2,1.2-1.8,1.6c-1.2,0.9-1.9,2.1-3,3
		c-0.9,0.7-1.6,1.6-2.4,2.4c-1.2,1.1-2.3,2.3-3.4,3.4c-1.5,1.6-3.1,3-4.6,4.6c-1,1-1.9,2-2.9,3c-0.9,0.9-2.1,1.7-2.8,2.9
		c-0.3,0.5-0.9,0.6-1,0.9c-0.4,1.4-1.5,1.9-2.5,2.6c-0.9,0.6-1.8,1.4-2.4,2.4c-0.4,0.7-1.4,0.8-2.2,0.6c-0.8-0.2-1.1-0.7-1.1-1.5
		c0.3-2.3,1.2-4.4,2-6.5c0.2-0.4,0.3-0.9,0.5-1.3c0,0,0,0,0,0c0.4-1.2,0.8-2.4,1.7-3.4c0,0,0,0,0,0c1.5-2.2,2.8-4.5,4.5-6.6
		c3.4-4.1,7.4-7.6,12-10.3C48.8,32.4,49.2,32.2,49.5,31.9z"/>
	<path fill="#F4F4F4" d="M27.8,60.7c1.2,1.4,2,1.1,3.2-0.1c1-1,1.6-2.8,3.5-2.6c0.2,0,0.3-0.2,0.3-0.4c-0.2-1,0.7-1.3,1.1-1.9
		c0.8-1.1,1.8-1.9,2.7-2.7c1.1-1,1.8-2.4,3.2-3.2c0.9-0.6,1.7-1.5,2.4-2.4c0.8-1,1.9-1.6,2.7-2.7c0.4-0.6,1-1.1,1.5-1.5
		c1.1-0.8,1.9-1.9,2.9-2.8c0.9-0.9,2-1.7,2.8-2.8c0.6-1,1.7-1.6,2.5-2.5c1-1.2,2.4-2,3.2-3.3c0.2-0.3,0.6-0.4,0.9-0.4
		c0.4,0,0.9,0.1,1.1-0.3c0.2-0.8,0.4-1.6,0.3-2.3c0-0.5-0.6-0.3-1-0.2c-1,0.2-2,0.7-3,0.2c4-1.4,8.2-2,12.5-1.9
		c0.7,1.1,0.6,2.4-0.6,3.3c-0.6,0.5-1.2,1-2,1.1c-0.9,0.1-1.2,0.9-1.7,1.4c-1.1,1.1-2.8,1.3-3.6,2.8c-1.2,2.2-3.6,3-5.2,4.7
		c-1.6,1.6-3.2,3.3-4.9,4.9c-2,2-4.5,3.5-6,6.1c-0.5,0.9-1.6,1.3-2.4,2c-1.7,1.7-3,3.9-5.2,5c-0.4,1.4-1.8,1.9-2.4,3.1
		c-0.1,0.3-0.3,0.5-0.5,0.6c-1.6,0.4-2.3,1.9-3.2,3c0,0,0,0.1-0.1,0.1c-1.6,0.3-1.9,2.1-3.1,2.8c-0.9,0.6-1.2,1.6-1.6,2.6
		c-0.3,0.7-0.6,1.2-1.4,1.2c0-0.3,0-0.6,0-0.9c0.3-1,0.1-1.9,0.1-2.9c0-0.4-0.1-0.9,0.1-1.3C26.9,64.3,27.2,62.4,27.8,60.7z"/>
	<path fill="#F0F0F0" d="M26.9,66.2c-0.1,1.4,0.3,2.8-0.2,4.2C26.6,68.9,26.5,67.5,26.9,66.2z"/>
	<path fill="#4D4D4D" d="M49.4,66.5c1.6-3.7,3.4-7.3,5.9-10.5c3.7-4.7,8.2-8.6,13.7-10.9c5.5-2.3,11.2-3,17-1.3
		c0.2,0.1,0.5,0.2,0.8-0.1c-1.2-0.6-2.3-1.1-3.5-1.4c-3.5-0.8-7.1-0.5-10.6,0.3c-0.7,0.2-1.3,0.4-2,0.4c6-1.9,12-2.5,17.7,1
		c1.1,0.7,2,1.7,2.7,2.8c-0.9,0-1.4-0.8-2.2-1.1c-0.4-0.2-0.8-0.4-1.2-0.6c-3.7-1.6-7.5-1.8-11.3-1.2c-4.2,0.6-8.2,2.2-11.7,4.6
		c-1.3,0.9-2.6,1.8-3.8,2.9c-1.2,1-2.3,2-3.3,3.2c-3.3,3.6-5.7,7.7-7.5,12.3c-0.9,2.3-1.5,4.7-2.2,7.1c-0.1,0.3,0.1,0.9-0.6,0.8
		c-0.2-0.2-0.2-0.5-0.2-0.7C47.6,71.5,48.5,69,49.4,66.5z"/>
	<path fill="#9F9F9F" d="M56.6,76.6c0.8-0.6,1.8-0.7,2.7-0.9c6.3-1.4,12.5-3.1,18.4-5.6c0.3-0.1,0.6-0.2,0.9-0.2
		c0,0.7-0.6,0.7-1.1,0.9c-0.5,0.3-1.1,0.4-1.6,0.8c-3.7,1.6-7.5,2.6-11.4,3.6c-2.2,0.6-4.3,1-6.5,1.5c-0.8,0.2-1.1,0.6-1.1,1.4
		c0,1.5,0,3,0,4.5c-0.6-0.1-0.5-0.6-0.5-0.9c-0.1-1.3-0.1-2.5-0.3-3.8C56.2,77.4,56.3,77,56.6,76.6z"/>
	<path fill="#A8A8A8" d="M76.1,71.5c0.6-1,2-0.8,2.6-1.7c1.5-0.8,2.9-1.6,4.4-2.4c3.7-2.2,6.9-4.9,8.8-8.9c0.3-0.2,0.3-0.6,0.8-0.5
		c-0.4,1.7-1.4,3.2-2.5,4.5C86.4,66.9,81.4,69.5,76.1,71.5z"/>
	<path fill="#828282" d="M56.6,76.6c-0.3,2,0.3,4,0.5,6c0.2,1.4,0.5,2.9,0.7,4.3c-1.2-1.7-1.4-3.7-1.6-5.7c-0.2-1.2,0-2.4,0-3.6
		C56.2,77.2,56.3,76.8,56.6,76.6z"/>
	<path fill="#8E8E8E" d="M92.4,56.9c0.2-2.1,0.5-4.2,0.7-6.2c0.6,1.4,0.6,2.9,0.2,4.3c-0.3,0.3-0.2,0.7-0.3,1
		C93,56.4,93,56.9,92.4,56.9z"/>
	<path fill="#9A9A9A" d="M92.4,56.9c0.6-0.5,0.3-1.5,1-1.9c0,1.1-0.2,2.1-0.7,3.1c-0.3,0.2-0.5,0.3-0.8,0.5
		C92.1,58,92.2,57.4,92.4,56.9z"/>
	<path fill="#1E1E1E" d="M85.4,81.3c0.2,0.3,0.5,0.5,0.7,0.8c0.1,0.3,0,0.4-0.2,0.6c-1.2,1.4-2.3,2.9-3.5,4.2
		c-1.7,1.9-3.5,3.7-5.6,5.1c-2.2,1.4-4.4,2.8-7.1,2.9c-1.1,0-2.1,0-3.2,0c-0.7,0-1.2-0.2-0.8-1.1c0.8-0.5,1.8-0.2,2.7-0.3
		c2.3-0.3,4.5-1.1,6.5-2.3c3.6-2.2,6.4-5.3,8.9-8.6C84.2,82.1,84.5,81.3,85.4,81.3z"/>
	<path fill="#575757" d="M74.9,91.2c-1.1,1.1-2.5,1.5-3.9,2c-1.6,0.5-3.3,0.8-5,0.7c-0.9,0.6-1.7,0.1-2.6,0.1c0.7,0.2,1.4,0.1,2,0.6
		c2,0.6,4,0.5,6-0.1c2.2-0.6,4.3-1.7,6.1-3c0.5-0.2,0.9-0.6,1.3-0.9c0.3-0.2,0.7-0.5,1-0.1c-2.7,2.8-6,4.5-9.9,5.1
		c-2.5,0.3-4.9,0.1-7.2-1.1c-0.9-0.5-1.7-1.2-2.3-2.1c-0.4-0.6,0.1-0.5,0.4-0.4c4.5,2.2,8.8,1.9,13.1-0.4
		C74.3,91.4,74.6,91.3,74.9,91.2z"/>
	<path fill="#1F1F1F" d="M80.2,27.1c-2-0.1-4-0.8-6-0.8c-0.5-0.9-0.4-1.3,0.5-1.7c2.3-1.2,4.6-2.4,6.9-3.7c2-1.1,4.2-1.2,6.4-1.2
		c0.3,0,0.6,0.1,0.6,0.6c-0.1,0.2-0.2,0.4-0.4,0.6c-1.2,1.9-1.2,1.9,0.5,3.3c-1-0.1-1.9,0-2.6,1c-0.3,0.4-0.9,0.1-1.3,0.2
		C83.1,25.5,81.2,25.3,80.2,27.1z"/>
	<path fill="#2B2B2B" d="M83,28.1c-1-0.1-1.9-0.4-2.9-0.7c0-0.1,0-0.2,0-0.3C81.1,27.4,82.2,27.3,83,28.1z"/>
	<path fill="#242424" d="M88.5,20.3c-1.1,0.3-2.2,0.1-3.3,0.1c-1.3,0-2.4,0.6-3.5,1.2c-2.2,1.1-4.4,2.4-6.6,3.5
		c-0.6,0.3-1,0.6-1,1.3c-1.7-0.5-3.5-0.1-5.3-0.2c-0.4-0.5,0-0.8,0.4-1c1.4-0.6,2.7-1.4,4.2-1.6c1-0.1,1.6-0.9,2.3-1.4
		c0.9-0.6,1.8-0.9,2.8-1.2c1.5-0.4,2.9-1.2,4.2-2.2c0.4-0.3,0.7-0.7,1.2-0.7c1.4-0.1,2.6-0.9,4.1-0.8c0.6,0.1,1-0.3,1.2-0.8
		c0.1-0.4,0.2-0.8,0.5-1c0.3-0.4,0.2-1.1,1-1.1c-1,1.8-0.5,3.4,0.7,4.8c0.5,0.6,1.2,1.2,1.7,1.8c0.4,0.4,0.6,0.9,0.2,1.4
		c-0.3,0.5-0.8,0.4-1.3,0.3c-1-0.3-1.9-0.9-2.7-1.6C89.2,20.8,89,20.4,88.5,20.3z"/>
	<path fill="#3A3A3A" d="M70.4,14.3c0-1,0-2.1,0-3.1c0-0.8,0.3-0.9,1-0.9c2.4,0,3.7,1.5,3.6,4.1c-0.1,2.5-1.8,4.1-4.1,3.9
		c-0.6,0-0.8-0.3-0.7-0.8c0-1,0-2.1,0-3.1C70.2,14.3,70.3,14.3,70.4,14.3z"/>
	<path fill="#262626" d="M89.8,15.4c-0.1,0.9,0.2,1.8-0.6,2.5c-0.3,0.3-0.6,0.6-1,0.2c-0.6-0.5-1.1-0.3-1.7-0.1
		c-0.6,0.3-1.2,0.4-1.8,0.4c-0.4,0-0.9,0.1-1.2,0.5c-0.5,0.7-1.3,1-2,1.4c-2.2,1.4-5.1,1.5-7,3.6c-0.3,0.3-0.7,0.2-1.1,0.3
		c-1.7,0.2-3.1,1-4.4,1.9c-0.4,0-0.8,0-1.2,0c-0.9-0.4-0.5-0.7,0.1-1c1.7-0.9,3.5-1.6,5.2-2.5c1-0.5,1.9-1.3,2.9-1.7
		c1.5-0.6,3.2-0.8,4.6-1.9c2.1-1.6,4.6-1.9,6.9-2.7c0.6-0.2,1.6,0,1.7-1.1C89.1,15.2,89.5,15.3,89.8,15.4z"/>
	<path fill="#363636" d="M42.5,35.3c0.4,0.9-0.2,1.1-1,1.4C41.7,35.9,42.2,35.7,42.5,35.3L42.5,35.3z"/>
	<path fill="#3A3A3A" d="M19.9,50.9c1,0,2.1,0,3.1,0c0.6,0,1.2-0.1,1.7,0.2c-0.1,0-0.2,0-0.2,0c-1.6,0-3.1,0-4.7,0c0,0-0.1,0-0.1,0
		C19.7,50.9,19.8,50.9,19.9,50.9z"/>
	<path fill="#3A3A3A" d="M31.9,49.5c-0.5,1.2-1,2.3-1.7,3.4c-0.3-1.3,0.9-2.3,1-3.6C31.2,48.7,31.7,49.5,31.9,49.5z"/>
	<path fill="#A8A8A8" d="M73.9,97c0.3-0.3,0.6-0.7,1-1c3.1-1.9,6-4.1,8.4-6.8c1-1.2,2-2.5,3-3.7c0.3-0.3,0.5-0.7,0.9-0.9
		c0.4,0.9-0.4,1.4-0.8,2c-3.1,4.1-6.6,7.8-11.3,10.2C74.7,96.8,74.3,96.9,73.9,97z"/>
	<path fill="#DFDFDF" d="M79.5,46.7c1.1,0.3,1.6,1,2,2c1,2.5,0.9,5,0.2,7.5c-0.1,0.5-0.2,0.9-0.3,1.4c0.4,0.5,0.1,0.9-0.1,1.3
		c-1.4,3-3.7,5.2-6.3,7c-4,2.9-8.5,4.6-13.1,5.9c-0.8,0.2-1.6,0.4-2.4,0.7c-0.5,0.2-1,0.3-1.5,0c-0.7-0.2-0.7-0.8-0.6-1.4
		c0.2-1.6,0.6-3.3,1.2-4.8c0.3-0.3,0.8-0.3,1.1-0.1c0.8,0.4,1.2,0.1,1.8-0.4c1.3-1.2,2.5-2.3,3.1-4c0.1-0.2,0.3-0.4,0.5-0.5
		c1.4-0.5,2.3-1.6,3.2-2.6c0.5-0.5,1-0.9,1.6-1.2c1.1-0.6,1.2-1,0.5-2c-0.7-0.9-0.4-1.7,0.7-2.1c2.1-0.9,4.2-2,6.5-2.4
		c-0.5-0.1-1,0.1-1.4,0.1c-1-0.1-1.5-0.9-0.9-1.8c0.3-0.5,0.7-0.9,1.2-1.1C77.4,47.7,78.3,46.9,79.5,46.7z"/>
	<path fill="#E3E3E3" d="M79.5,46.7c-0.5,1-1.5,1.3-2.4,1.7c-0.2,0.1-0.5,0.1-0.7,0.2c-0.5,0.4-1.3,0.8-0.9,1.4
		c0.3,0.6,1.1,0.2,1.6,0c0.2-0.1,0.4-0.2,0.6-0.3c0.3-0.2,0.7-0.3,1,0.1c0.3,0.4,0.1,0.7-0.2,1c-0.5,0.6-1.1,1-2,1.2
		c-1.7,0.3-3.3,0.9-4.7,1.9c-0.2,0.2-0.4,0.4-0.7,0.3c-0.3-0.1-0.6-0.1-0.7,0.2c-0.1,0.4,0.1,0.6,0.4,0.8c1,0.7,1,2.1-0.2,2.5
		c-1.7,0.6-2.4,2.2-3.8,3.2c-0.5,0.3-0.8,1-1.5,1c-0.4,0-0.5,0.4-0.6,0.7c-0.7,1.9-2.3,3-3.7,4.3c-0.9,0.8-1.7,0.4-2.3-0.4
		c-0.3-0.2-0.3-0.5-0.2-0.8c0.5-0.5,1-0.9,0.6-1.7c0.1-0.6,0.2-1.2,0.5-1.7c1.3-2.8,2.4-5.7,4.3-8.2c0.8-1.1,1.8-2,2.5-3.2
		c1.8-1.9,3.7-3.5,6.2-4.4c2-0.7,4-0.9,6.1-0.1C79,46.5,79.2,46.6,79.5,46.7z"/>
	<path fill="#1F1F1F" d="M58.1,72.3c5.2-1.4,10.3-2.9,14.9-5.7c3.6-2.2,6.6-5,8.3-8.9c0.9-1.3,1-2.8,1.2-4.3
		c0.2-0.8,0.1-1.6,0.1-2.4c0-0.2,0-0.4,0.2-0.5c0.2-0.1,0.4,0.1,0.5,0.2c0.1,0.4,0.5,0.7,0.5,1.2c0.4,3.9-0.6,7.3-3.1,10.4
		c-4.6,5.6-10.9,8.5-17.7,10.5c-1.2,0.4-2.4,0.8-3.7,0.8c-0.7,0-1.3-0.1-1.7-0.6c0-0.2,0-0.3,0.1-0.5C57.7,72.3,58,72.4,58.1,72.3z"
		/>
	<path fill="#5F5F5F" d="M60.7,51.4c2.7-2.7,5.8-4.5,9.3-5.9c3.6-1.4,7.3-2.2,11.2-2c2.3,0.1,4.6,0.4,6.6,1.7
		c-1,0.2-1.8-0.4-2.6-0.7c-3.2-0.8-6.5-0.7-9.7-0.1c-4.6,0.7-8.6,2.9-12.3,5.7c-5.5,4.2-9.6,9.6-12.2,16c-1.3,3.2-2.4,6.5-3,10
		c-0.6,3.6-0.6,7.2-0.1,10.9c0.1,0.5,0.1,1,0.1,1.4c-0.1,0.1-0.3,0.1-0.4,0.1c-0.6-0.3-0.4-0.9-0.4-1.4c-0.4-3.7-0.3-7.4,0-11.1
		c0-0.4,0-0.8,0.4-1c0.8-2.8,1.3-5.6,2.5-8.2c1.8-4.2,4-8.1,7-11.6c0.2-0.2,0.4-0.4,0.6-0.5C58.5,53.3,59.6,52.3,60.7,51.4z"/>
	<path fill="#434343" d="M57.6,73c1.1,0.4,2.3,0.2,3.4-0.1c5-1.3,9.8-3.1,14.1-6c3.3-2.2,6-5,7.5-8.8c0.8-2,1-4,0.8-6.1
		c0-0.4-0.1-0.9-0.5-1.3c-0.4,0.9,0,1.9-0.4,2.6c0-1.6-0.1-3.2-0.8-4.9c1.4,0.6,1.6,1.7,2,2.7c0.6,1.2,0.3,2.4,0.3,3.6
		c0,0.4-0.1,0.9,0,1.3c-0.1,0.4-0.2,0.9-0.2,1.3c-0.5,1.3-1.1,2.5-1.7,3.8c-1.3,2-2.9,3.9-4.8,5.4c-0.3,0.2-0.5,0.5-0.9,0.6
		c-1.8,1.2-3.7,2.4-5.7,3.2c-3,1.2-6.1,2.4-9.3,3.2c-1.2,0.3-2.5,0.5-3.7,0.2C57.8,73.4,57.7,73.2,57.6,73z"/>
	<path fill="#5D5D5D" d="M83.5,57.4c0-0.4,0-0.8,0.2-1.2c0.2-0.1,0-0.6,0.5-0.5c0.3,0.7,0,1.3-0.2,2c-1.2,4-3.7,7.1-7,9.5
		c-1.6,1.1-3.2,2.1-4.9,3c-0.7,0.3-1.3,0.6-2,0.7c-0.1-0.2,0-0.4,0.2-0.5c2.2-1,4.3-2.2,6.3-3.6c2.1-1.6,3.8-3.6,5.3-5.8
		C82.6,59.9,83,58.6,83.5,57.4z"/>
	<path fill="#3D3D3D" d="M77.8,91.7c-2.9,1.9-5.9,3.3-9.4,3.5c-1,0-2.1,0-3.1-0.3c1.1-0.3,2.3,0,3.4-0.1c0.5,0,1,0.1,1.4-0.1
		c2.4-0.5,4.6-1.5,6.6-2.9c3.4-2.3,6-5.5,8.6-8.7c0.3-0.3,0.5-0.6,0.8-0.9c0.5,0.3,0.9,0.7,1.2,1.2c-1.1-0.1-1.7,0.5-2.2,1.3
		c-1.4,1.9-3.2,3.6-4.9,5.3C79.5,90.6,78.5,91,77.8,91.7z"/>
	<path fill="#AAAAAA" d="M72.5,46.8c-2.2,1.1-4.2,2.4-5.8,4.3c-0.8,1-1.9,1.9-2.4,3.1c-1.3,1.5-2,3.3-2.8,5.1c-0.5,1-1,2.1-1.5,3.1
		c-0.5-0.5-0.2-1.1,0.1-1.5c0.6-1.1,0.9-2.3,1.6-3.3c2-4.2,4.8-7.6,8.6-10.2c0.2-0.2,0.5-0.2,0.8-0.3C71.5,46.8,71.9,46.3,72.5,46.8
		z"/>
	<path fill="#9D9D9D" d="M61.7,57.6c-0.4,1-0.7,2-1.2,2.9c-0.3,0.6-0.6,1.2-0.5,1.9c-0.2,0.5-0.5,1.1-0.5,1.7
		c-0.1,0.6,0,1.2-0.5,1.7c-0.1,0.2-0.1,0.5-0.2,0.7c-0.6,1.5-0.9,3.2-1.2,4.8c-0.1,0.4-0.1,0.9,0.5,1c-0.2,0.1-0.3,0.2-0.5,0.3
		c-0.6-0.2-0.8-0.8-0.7-1.4c0.8-4.7,2.2-9.2,4.6-13.4C61.6,57.7,61.6,57.6,61.7,57.6z"/>
	<path fill="#505050" d="M76.6,66.7c-1.6,1.5-3.6,2.5-5.5,3.4c-0.4,0.2-0.7,0.3-1,0.6c-1.9,0.7-3.7,1.5-5.6,2.1
		c-1.7,0.5-3.5,1.3-5.4,1.1c-0.4,0-0.9,0-1.3-0.2c4.5-0.3,8.5-1.8,12.5-3.7c1.8-0.8,3.7-1.7,5.3-3C75.9,66.8,76.2,66.7,76.6,66.7z"
		/>
	<path fill="#545454" d="M77.8,91.7c1.2-1.3,2.7-2.3,3.9-3.7c1.2-1.3,2.4-2.6,3.5-3.9c0.6-0.8,1.3-1.2,2.3-0.8
		c-1.5,0.5-2.3,1.9-3.2,3c-1.3,1.5-2.7,2.9-4.2,4.2C79.1,90.7,78.6,91.5,77.8,91.7z"/>
	<path fill="#949494" d="M72.5,46.8C72,46.9,71.5,47,71,47c2.4-1.7,5-2,7.7-0.7C76.6,45.9,74.5,46.2,72.5,46.8z"/>
	<path fill="#525252" d="M47.8,88.3c0.1,0,0.2,0,0.2,0c0.2,1.6,1.3,2.9,1.5,4.6c0,0,0,0,0,0c-0.2,0-0.3,0-0.4-0.1
		c-0.8-1.2-1.3-2.5-1.6-3.9C47.4,88.7,47.6,88.5,47.8,88.3z"/>
	<path fill="#4B4B4B" d="M84.2,55.7c-0.2,0.2-0.3,0.3-0.5,0.5c0.1-1.7,0.5-3.4,0-5.1c0.7,0.6,0.4,1.4,0.5,2.1
		C84.3,54,84.2,54.9,84.2,55.7z"/>
	<path fill="#DEDEDE" d="M54.5,54.5c-0.3,0.2-0.5,0.3-0.8,0.5c0.6-1.2,1.7-2.1,2.6-3c2.4-2.5,5-4.9,8.1-6.6c0.9-0.5,1.7-1.1,2.7-1.1
		c-2.8,1.6-5.5,3.3-8,5.4C57.6,51.1,56.1,52.9,54.5,54.5z"/>
	<path fill="#2C2C2C" d="M49.4,66.5c-0.6,2.6-1.7,5-1.9,7.7c-0.6,5-0.9,9.9,0.1,14.9c0.1,0.5,0.3,0.9,0.4,1.4
		c0.1,0.4,0.2,0.7-0.3,0.8c-1.4-2.3-1.9-4.8-2.1-7.4c-0.1-0.6-0.1-1.2-0.2-1.8c0.7,0.6,0.3,1.6,0.9,2.6c0-0.9,0-1.6,0-2.2
		c-0.1-5.1,0.7-10.1,2.6-14.9C49,67.1,49.1,66.7,49.4,66.5z"/>
	<path fill="#424242" d="M47.8,91.2c0.3-0.5,0-0.9-0.1-1.4c-1.3-4.9-1.3-9.9-0.4-14.9c0-0.3,0.2-0.5,0.3-0.8c0,0.2,0,0.5,0,0.7
		c0,0.3,0,0.6,0,1c-0.5,3.8-0.7,7.5,0,11.3c0,0.4,0,0.8,0.2,1.2c0.3,1.6,0.7,3.2,1.7,4.6c0.2,0.4,0.4,0.9,0.7,1.6
		C48.9,93.4,48.3,92.4,47.8,91.2z"/>
	<path fill="#525252" d="M60.7,51.4c-0.9,1.1-2,2.2-3.1,3.1C58.4,53.2,59.4,52.1,60.7,51.4z"/>
	<path fill="#313131" d="M70.1,94.6c-1.6,0.5-3.2,0.1-4.8,0.2c-1.3-0.2-2.4-0.7-3.3-1.7c1.3,0.7,2.7,0.4,4,0.8
		c-0.2,0.7,0.3,0.7,0.7,0.7C67.9,94.6,69,94.6,70.1,94.6z"/>
	<path fill="#E3E3E3" d="M70.2,60.4c0,0.4-0.1,0.7-0.5,0.7c-0.4,0-0.5-0.4-0.6-0.8c-0.1-0.3,0-0.6,0.4-0.6
		C69.9,59.6,70.1,60,70.2,60.4z"/>
	<path fill="#ADADAD" d="M64.3,54.2c0.3-1.4,1.4-2.3,2.4-3.1C66.1,52.3,65.1,53.2,64.3,54.2z"/>
	<path fill="#DFDFDF" d="M59,65.7c0.1-0.6-0.1-1.2,0.5-1.7C60.8,65.1,59.4,65.3,59,65.7z"/>
	<path fill="#525252" d="M47.5,87.1c-0.7-1.5-0.5-3.1-0.6-4.6c-0.1-2.2-0.1-4.5,0.6-6.7C47.3,79.6,47.1,83.4,47.5,87.1z"/>
	<path fill="#4B4B4B" d="M83.5,57.4c-0.3,1.3-0.6,2.6-1.7,3.6C82.3,59.7,82.8,58.5,83.5,57.4z"/>
</g>
</svg>
