<?xml version="1.0" encoding="utf-8"?>
<!-- Generator: Adobe Illustrator 18.0.0, SVG Export Plug-In . SVG Version: 6.00 Build 0)  -->
<!DOCTYPE svg PUBLIC "-//W3C//DTD SVG 1.1//EN" "http://www.w3.org/Graphics/SVG/1.1/DTD/svg11.dtd">
<svg version="1.1" id="Layer_1" xmlns="http://www.w3.org/2000/svg" xmlns:xlink="http://www.w3.org/1999/xlink" x="0px" y="0px"
	 viewBox="0 0 572.4 722.4" enable-background="new 0 0 572.4 722.4" xml:space="preserve">
<g>
	<path fill="#552861" d="M0,399.5C1.8,501.3,48.5,599,94.5,642c2,40.5,13.9,58.1,19,65.5c27,39,108.8-11,108.8-11
		s49.2-30.5,60.9-52.3c17.3-9.7,45.5-32.2,56.8-53.7c0,0,27.2-8.1,42-33c48.8,2.5,68-24,68-24l13.5,8.8c0,0,11.5,5.7,25.5,10.7
		s36.1,7.9,36-7.5C524.5,454,586,476,569.5,421c-1.4-7.6-6.9-51.2-15-62.5c1.2-4.7-2-14.4-4-16.4c8-11,10-48.1-3.5-69.1
		c-21.7-33.7-96.4-84.5-116.2-53c-40.3-2.5-41.3,5.2-60.8,20.5c-5.1,2.4-17.9,6.6-41.3,25.5c-12.5,10.1-43.4,41-43.4,41L49,469
		C49,469,3,348.5,0,399.5z"/>
	<g>
		<path fill="#E5B99F" d="M238.4,189.9c-0.2-3.5-0.1-7,1.5-10.3c0.3-1.4-0.6-3.4,1.9-3.7c-1.1-2.5,0.5-4.3,1.8-6.1
			c-0.2-0.6-0.1-1.2,0.1-1.9c1.9-5.5,1.9-11.1,0.8-16.7c-1.2-6.2-4.1-11-10.9-12.3c-2.7,1.1-5.6,1.6-7.1,4.6
			c-0.3,0.6-0.5,1.1-0.5,1.7c0.3,5.7,0.6,11.3,0.9,17c-1.5-8.2-1.8-16.5-2.8-24.8c-1.1-8.8-2.4-17.5-5.9-25.7
			c-0.6-1.4-0.9-3-1.4-4.5c-0.7-2.2-2-3.9-4-5c-6.4-3.4-10.7-8.6-14.3-14.8c-3-5.1-5.6-10.5-9.8-14.9c-0.7-0.8-1.1-1.8-1.5-2.6
			c-0.9-2.2-2.9-3.1-4.8-3.5c-3-0.6-6.1-1.4-9.3-0.8c-5.8,1.2-11.4,0.7-16.9-1.9c-4.6-2.2-9.4-2.1-14.2-0.2c-3.7,1.5-7.8,1.6-11.4,3
			c-1.5,0.6-2.9,1.3-3.3,3c-0.1,0.5-0.5,0.7-1,0.9c-5,2.4-10.3,3.3-15.7,2.6c-4.2-0.5-8.3-1.6-12.6-1.6c-10.6,0-20.5,2.5-29.7,7.6
			C55.7,86.2,44.6,95,36.8,107.5c-2.7,4.3-5,8.9-6.8,13.8c-1.1,2.9-2.3,5.8-3.2,8.8c-3.1,10.8-2.1,21.5,1.7,32
			c0.6,1.7,1,3.5,1.5,5.2c0.1,0.4,0.1,0.9,0.2,1.7c-4.1-2.4-8.3-3.2-12.7-3.4c-0.8,0-1.1-0.4-1.2-1.1c-0.4,1.1-1.3,1.2-2.3,1.4
			c-4.4,0.7-6.1,3.2-5.7,7.6c0.3,3,1.1,5.8,2.3,8.6c3.1,7.1,5.7,14.3,6.8,22c0.5,3.9,1,7.8,1.5,11.8c0.1,0.6-0.1,1.1-0.4,1.6
			c1.9,1.5,1.3,3.9,2.1,5.9c1.5,3.4,2.6,6.9,4,10.3c1,2.5,0.3,5.2,0.8,7.7c0.8,3.8,2,7.1,5.4,9.3c2.8,1.8,5.4,1.3,8-0.3
			c0.6-0.4,0.9-0.2,1.1,0.6c2.3,9.1,6.2,17.5,9.7,26.1c1.1,2.8,2.8,5.3,3.2,8.4c1.6,1.5,2.1,3.6,3.1,5.4c3.4,5.3,7.7,10,12.4,14.1
			c9,7.9,15.9,17.3,21.8,27.6c3.4,6,8.3,10.7,12.7,15.9c3.8,4.4,7.7,8.7,11.6,13.1c3.2,2.2,6,5.2,9.8,6.5c0.4,0.1,0.7,0.4,1,0.4
			c3.7,0.1,5.9,2.1,8.1,5c6.4,8.7,14,10.6,25.5,7c5.5-1.7,11-3.4,15.4-7.5c2-1.9,3.6-4,4.4-6.6c0.4-1.3,1.1-2.1,2.4-2.7
			c3.4-1.5,6.6-3.4,9-6.4c4.7-6.1,8.9-12.4,11.4-19.9c2.8-8.3,6.7-16.3,10-24.5c0.6-1.6,0.9-0.7,1.5-0.2c6-13,13.3-25.5,14.9-40.2
			c0.2-1.9,0.5-3.9,0-5.9c0-1.1,0-2.2,0-3.3c-0.4-8.4-0.7-16.8-0.2-25.2c0.3-5.2,1.2-10.4,2.2-15.7c0.9,0.6,1.5,1,2,1.4
			c2.6,2.2,5.5,2.1,8.3,0.9c2.9-1.3,4.4-4.2,4.5-7.3c0.1-2.8-0.4-5.6-1.7-8.3C240.1,203,237.7,196.8,238.4,189.9z M148.1,216.8
			c2.4-1.9,5.2-2.9,8.3-3.2c4.2-0.4,8.3-0.1,12.2,2c1,0.6,2.3,0.9,2.4,2.3c0,1.6-1.5,2.1-2.6,2.4c-6.8,1.7-13.5,2.1-20.2-0.5
			C146.6,219.2,146.5,217.9,148.1,216.8z M115.7,217.3c4.2-1.8,7.7,0.6,8.3,5.1c0.2,1.3-0.3,2.3-1.3,3.1c-3.6,2.5-7.5,3.1-11.7,1.8
			c-3.8-1.1-7.8-1.8-11.8-2.6C104.8,222.2,110.2,219.6,115.7,217.3z M49,157.2c-1.5,0.7-3,1.2-4.7,2.2c0.5-2.4,1.5-3.7,3.2-5
			c4.6-3.6,9.7-6.2,15.1-8.3c2.8-1.1,5.2-2.7,7.7-4.2c4.5-2.6,9.3-3.8,14.5-3.5c5.3,0.3,10.5,0.5,15.5,2.7c1.7,0.8,3,3.1,2.6,5.1
			c-0.4,2.3-2,2.8-4,2.8c-4.7-0.1-9.4-0.5-14.1-0.3C72.3,149.2,60.4,152.1,49,157.2z M128.3,277.4c-1.1,0.1-1.6-0.7-1.9-1.8
			c-0.5-2.3-1.4-4.6-1.4-7c-0.5,1.9-0.1,3.8-0.7,5.7c-0.8,2.8-2,3.8-4.9,4.4c-3.5,0.8-7.1-0.5-10.6,0.2c0.2,5.2,0.3,10.4,0.8,15.5
			c0.9,9.7,2,19.3,4.3,28.8c1.9,8.2,4.1,16.2,7,24.1c2.2,6,4.5,11.9,7.4,17.7c0.4,0.9,1,1.8,0.6,3.2c-2.8-3.7-4.7-7.5-6.4-11.5
			c-1.5-3.6-2.9-7.3-4.7-10.8c-2-3.8-3-8.2-4.3-12.4c-2.3-7.4-4.2-14.8-5.6-22.5c-0.8-4.2-1.4-8.4-2.1-12.6
			c-0.3-1.8-0.7-3.5-1.1-5.3c-0.3-1.3-1.6-1.7-2.6-2.2c-8.3-4.3-16.5-8.6-24.8-12.9c-0.5-0.3-1.2-0.4-1.5-1c-0.8-1.4,0-2.9,1.7-3.1
			c0.9-0.1,1.9-0.3,2.8-0.4c8.9-4,18.6-4.4,28.1-6.1c1.7-0.3,3.3-0.3,4.9,0c4.5,0.8,8.6-0.1,12.7-1.9c4.8-2.1,9.9-2.7,15-2.4
			c6.2,0.4,12.4,1.3,18.6,0.3c0.9-0.1,1.6-0.1,1.7,1c0.3,2.8,1,5.6,0.4,8.5c-0.2,0.7-0.1,1.7-1.2,1.8c-4.6,0.5-9,2.3-13.8,1.8
			c-4.3-0.5-5.5-1.9-5.1-6.2c0.1-1.1,0.3-2.2-0.3-3.5c-0.7,2.2-0.8,4.2-0.9,6.2c-0.1,1.6-0.7,2.5-2.1,3.1
			C135.1,277.1,131.7,277,128.3,277.4z M172.6,350c-0.6,1.8-2.3,2.7-3.6,2.4c-1.2-0.3,1.1-1.4-0.4-1.3c-1.1,0.1-3-0.3-1.9,2
			c0.7,1.5-0.9,1.4-1.4,1.5c-0.9,0.2-0.9-0.6-0.5-1.2c0.2-0.4,0-1-0.4-0.8c-1.1,0.4-2.5-0.8-3.3,0.5c-1.4,2.2-3.7,2.7-6.2,2.8
			c2-0.2,1.1-1.4,0.9-2.3c-0.1-0.6-0.8-1.5,0.1-1.9c1.1-0.4,0.8,0.8,1.2,1.3c0.4,0.6,0.5,1.9,1.5,1.5c1.3-0.5,0-1.4,0-2.2
			c-0.2-3.2-2-3.2-4.5-2.4c-2,0.6-3.9,0.5-5.2-1.7c-0.9-1.6-2.9-2.1-4.2-3.3c-1.9-1.7-3.6-3.5-4.4-5.9c0.1,2.9,1.5,5.1,3.3,7
			c2.2,2.3,4.1,4.8,7.2,6c0.7,0.3,1.4,1.1,1.7-0.3c0.1-0.5-0.1-1.1,0.6-0.9c0.3,0.1,0.6,0.5,0.8,0.8c1.2,2.2,0.5,3.6-1.9,4
			c-1.6,0.2-1.8,0.8-1.1,2.3c0.4,0.8-0.2,1-0.8,1.1c-0.6,0.1-1.7,0.5-1.7-0.5c0-1.1,0-2-1.4-1.7c-0.8,0.2-2.4,0.2-1.3,1.9
			c0.1,0.1,0,0.3,0,0.4c-0.6,0.1-1.2,0.4-1.8,0.3c-1.5-0.2-2.5-1.3-3.5-2.3c-0.3-0.3-0.1-1.2,0.7-1.5c0.8-0.3,1.2-0.9,0.8-1.7
			c-0.4-0.8-1-0.5-1.8-0.3c-1.3,0.4-1.6-0.8-1.1-1.5c0.7-1,0.3-1.3-0.3-1.9c-0.7-0.7-1-1.7-1-2.7c0-1.4,0.5-2.9-1.4-3.6
			c-0.2-0.1-0.3-0.8-0.2-0.8c2.6-1.3-0.1-2.1-0.4-2.9c-0.4-0.9-0.7-1.8-0.5-2.7c0.2-1.1,0.9-2-1-2.5c-0.9-0.2-0.3-1.4,0.6-1.6
			c0.7-0.2,1.5,0,1.5-1.1c0-1-0.9-0.8-1.5-1.1c-1.9-0.7-1.3-2.3-1-3.6c0.2-1,1-1.6,1.7-2.2c1.1-1.1,1.2,0.7,2,0.8
			c1.1,0.2,2.6,1.7,1.9-1.1c-0.2-0.7,0.3-1.5,0.9-1.3c3,1.1,5.1-1.5,7.8-1.8c2-0.3,3.7-2,5.9-1.1c0.7,0.3,1.1-0.4,1.6-0.8
			c0.8-0.7,1.7-1.3,2.8-0.8c0.3,0.5-0.3,0.8-0.3,1.3c0,0.4,0,0.9,0.4,1c0.5,0.2,0.9,0,1.1-0.5c0.2-0.3,0.6-0.5,0.8-0.9
			c0.9-2.4,2.3-1.8,3.9-0.8c1.7,1.1,2.2,2.5,0.7,4.1c-1.4,1.5,0.3,1.8,0.8,2.5c0.8-0.3,0.5-0.8,0.4-1.2c-0.1-0.4,0-0.6,0.3-0.8
			c0.5-0.3,0.7,0.2,0.9,0.5c0.5,0.6,0.9,1.3,0.9,2.1c0.3,4.6,1.9,8.8,3.3,13.2c0.4,1.3-0.3,3,0.9,4.3c0.3,0.3-0.1,1.1-0.9,0.9
			c-0.8-0.1-1.5,0-1.5,1c0,0.8,0.5,1.6,1.4,1.6C173.2,347.6,173,348.8,172.6,350z M209,261.7c-3.5,2.3-4.8,6.2-6.7,9.6
			c-0.5,0.9-1,1.8-1.5,2.7c-1.8,2.9-4.3,4.5-7.8,4.2c-3-0.2-6-0.4-8.3,2.7c-1.1-4.5-2.2-8.3-3.7-12c-0.3-0.8-0.5-1.7-1.3-2.1
			c-2.8,4.5-7.4,5.6-12.1,6.2c-2.9,0.4-4.2-0.8-4.6-3.8c-0.2-1.2-0.1-2.4-0.5-3.5c-0.9-2.7,0.5-3.5,2.8-4.1
			c6.9-1.8,13.6-4.2,20.7-5.3c4.4-0.7,8.7,0,12.8,1.2c1.6,0.5,1,2.5,1.5,3.8c2.5,0,4.8-0.8,6.9-2c0.6-0.3,1.3-1,1.8-0.2
			C209.4,259.9,210.1,261,209,261.7z M219,140.8c-0.6,0.3-1.1-0.1-1.5-0.5c-0.9-0.8-1.9-1.5-2.5-2.4c-2.8-4.4-7.3-5.3-12-6.2
			c-8.2-1.4-15.6,0.8-22.7,4.4c-4,2-8,4-12.2,5.6c-3.2,1.2-6.2,2.8-8.6,5.4c-0.9,1-2.1,1.9-3.5,1c-1.3-0.8-1.1-2.1-1-3.4
			c0.3-2.2,0.8-4.4,1.5-6.5c1.3-3.9,3.8-6.5,8.3-6.6c9.8,0.1,19-3.3,28.5-5.2c4.9-1,9.8-2.5,14.7-0.6c6,2.4,9.7,7,11.2,13.4
			C219.3,139.8,219.7,140.5,219,140.8z"/>
		<path fill="#FFFFFF" d="M200.3,261.3c0,0.9-0.6,1.5-1.1,2.2c-2.5,0.3-5,0.5-7.4,0.8c-0.1-0.3-0.2-0.6-0.2-0.9
			c0.7-2-0.9-3.5-1.2-5.3c-0.2,1.8-0.2,3.7,0.6,5.4c0.3,1.4-0.5,1.8-1.6,2c-0.6-0.5-0.8-0.1-0.9,0.5c-2.9,0.6-5.9,1.2-8.4-1.3
			c-0.4,0.6-0.2,1.4-0.3,2c-2.8,4.5-7.4,5.6-12.1,6.2c-2.9,0.4-4.2-0.8-4.6-3.8c-0.2-1.2-0.1-2.4-0.5-3.5c-0.9-2.7,0.5-3.5,2.8-4.1
			c6.9-1.8,13.6-4.2,20.7-5.3c4.4-0.7,8.7,0,12.8,1.2C200.3,258,199.7,260.1,200.3,261.3z"/>
		<path fill="#FFFFFF" d="M161.8,272.6c-0.2,0.7-0.1,1.7-1.2,1.8c-4.6,0.5-9,2.3-13.8,1.8c-4.3-0.5-5.5-1.9-5.1-6.2
			c0.1-1.1,0.3-2.2-0.3-3.5c-0.7,2.2-0.8,4.2-0.9,6.2c-0.1,1.6-0.7,2.5-2.1,3.1c-3.2,1.3-6.7,1.2-10,1.6c-1.1,0.1-1.6-0.7-1.9-1.8
			c-0.5-2.3-1.4-4.6-1.4-7c-0.5,1.9-0.1,3.8-0.7,5.7c-0.8,2.8-2,3.8-4.9,4.4c-3.5,0.8-7.1-0.5-10.6,0.2c-0.3-0.5-0.8-0.4-1.3-0.3
			c-0.1-0.1-0.3-0.2-0.5-0.3c-0.2-0.3-0.3-0.6-0.5-0.9c0.5-2.4,0.6-4.9,0.4-7.3c-0.2,0-0.4,0-0.6-0.1c-0.3,2.5-0.5,5-0.8,7.6l0,0
			c-0.7,0-1.5-0.1-1.9,0.8c-0.3,0-0.6,0.1-0.8,0.1c-2.1-0.6-4.4-0.3-6.5-0.7c-0.4-0.1-0.8-0.2-1.1-0.5c-1.5-1.5-3.2-1.7-5.3-1.6
			c-2.9,0.1-6,0.2-8.2-2.6c-0.4-0.5-1,0-1.5,0.1c8.9-4,18.6-4.4,28.1-6.1c1.7-0.3,3.3-0.3,4.9,0c4.5,0.8,8.6-0.1,12.7-1.9
			c4.8-2.1,9.9-2.7,15-2.4c6.2,0.4,12.4,1.3,18.6,0.3c0.9-0.1,1.6-0.1,1.7,1C161.6,267,162.4,269.8,161.8,272.6z"/>
		<path fill="#FFFFFF" d="M114.5,361.4c-14.4-4.1-27.6-10.3-37.2-22.2c-6.6-8-10.7-17.6-14.8-27.1c-2.6-5.9-4.9-12-7.4-17.9
			c-0.7-1.6-0.5-2.6,1-3.5c3.4,5.3,7.7,10,12.4,14.1c9,7.9,15.9,17.3,21.8,27.6c3.4,6,8.3,10.7,12.7,15.9
			C106.7,352.8,110.6,357.1,114.5,361.4z"/>
		<path fill="#552861" d="M332.7,372.8c-0.4,0-0.8,0.1-1.2,0.1c-114.9,14.3-315,91-329,56c-15-79.6,40.9-135.2,50.4-143.5
			c1.6,1.5,2.1,3.6,3.1,5.4c-1.5,0.8-1.7,1.8-1,3.5c2.6,5.9,4.9,12,7.4,17.9c4.1,9.5,8.2,19.1,14.8,27.1c9.7,11.8,22.9,18,37.2,22.2
			c3.2,2.2,6,5.2,9.8,6.5c0.4,0.1,0.7,0.4,1,0.4c3.7,0.1,5.9,2.1,8.1,5c6.4,8.7,14,10.6,25.5,7c5.5-1.7,11-3.4,15.4-7.5
			c2-1.9,3.6-4,4.4-6.6c0.4-1.3,1.1-2.1,2.4-2.7c3.4-1.5,6.6-3.4,9-6.4c4.7-6.1,8.9-12.4,11.4-19.9c2.8-8.3,6.7-16.3,10-24.5
			c0.6-1.6,0.9-0.7,1.5-0.2c-0.8,1.8-1.5,3.6-2.3,5.5c-3,7.5-5.9,15-8.9,22.5c-0.2,0.2-0.5,0.4-0.2,0.7c0.3,0.3,0.5-0.1,0.7-0.3
			c13.2-13.2,22.1-29,28-46.6c2.8-8.4,3.2-16.6,0.7-25.1c-0.5-1.6-1.1-3-3.2-2.7c0-1.1,0-2.2,0-3.3c12.3,6.5,81.7,18.8,96.4,6.6
			c9.3,12.4,0.4,67.1,5.7,81.5c2.3,6.4,3,13.2,3.9,20C334,372.4,333.8,372.8,332.7,372.8z"/>
		<path fill="#552861" d="M234,129.2c-0.2,3.2-0.2,6.5-0.3,9.7c-2.7,1.1-5.6,1.6-7.1,4.6c-0.3,0.6-0.5,1.1-0.5,1.7
			c0.3,5.7,0.6,11.3,0.9,17c-1.5-8.2-1.8-16.5-2.8-24.8c-1.1-8.8-2.4-17.5-5.9-25.7c-0.6-1.4-0.9-3-1.4-4.5c-0.7-2.2-2-3.9-4-5
			c-6.4-3.4-10.7-8.6-14.3-14.8c-3-5.1-5.6-10.5-9.8-14.9c-0.7-0.8-1.1-1.8-1.5-2.6c-0.9-2.2-2.9-3.1-4.8-3.5
			c-3-0.6-6.1-1.4-9.3-0.8c-5.8,1.2-11.4,0.7-16.9-1.9c-4.6-2.2-9.4-2.1-14.2-0.2c-3.7,1.5-7.8,1.6-11.4,3c-1.5,0.6-2.9,1.3-3.3,3
			c-0.1,0.5-0.5,0.7-1,0.9c-5,2.4-10.3,3.3-15.7,2.6c-4.2-0.5-8.3-1.6-12.6-1.6c-10.6,0-20.5,2.5-29.7,7.6
			C55.7,86.2,44.6,95,36.8,107.5c-2.7,4.3-5,8.9-6.8,13.8c-1.1,2.9-2.3,5.8-3.2,8.8c-3.1,10.8-2.1,21.5,1.7,32
			c0.6,1.7,1,3.5,1.5,5.2c0.1,0.4,0.1,0.9,0.2,1.7c-4.1-2.4-8.3-3.2-12.7-3.4c-0.8,0-1.1-0.4-1.2-1.1c0.4-5.5,2.1-10.8,2.3-16.4
			c0.3-10.4-2.4-20-6.8-29.3c-1.4-2.9-2.9-5.8-4.2-8.7c-1.2-2.7-1.4-5.5,0-8.2c1.4-2.5,1.1-4.5-1-6.6c-2.9-2.9-3.2-6.9-2.8-10.7
			c0.4-4.2,1.1-8.4,0.6-12.7c-0.3-2.7,1.2-5,2.7-7.2c2.1-3,4.8-5.6,7.3-8.3c1-1.1,2.2-2.3,2.4-4.1c0.1-0.9,0.6-1.7,1.2-2.3
			c3.1-3.4,5.5-7.4,7.5-11.5c4.7-9.6,12.7-13.1,22.8-13.2c3.5,0,7-0.2,10.4-0.3c2.6-0.1,4.7-1,6.5-2.8c11.1-10.8,24.1-12.8,38.4-7.7
			c3.1,1.1,5.8,3,7.9,5.5c1,1.2,1.3,1,2.1-0.1c6.5-8.5,14.9-14.5,25.1-17.8c9.7-3.1,19.3-3.4,28.3,2.4c5.2,3.3,11,3.1,16.7,3.2
			c1.9,0,3.8,0.1,5.7,0.4c3.1,0.5,5.5,1.9,6.4,5.1c0.7,2.4,2.7,3.5,4.9,4.4c3.4,1.4,7,2.4,10.2,4.3c4.3,2.5,6.5,6.4,7.8,11
			c1.3,4.5,1.2,9.1,1.4,13.7c0.4,6.5,2,12.3,7,16.8c2.6,2.4,4.1,5.5,4.6,9.2c1,6.6,2.2,13.1,2.6,19.8c0,0.2,0,0.4,0,0.6
			C235.5,105.1,234.9,117.2,234,129.2z"/>
		<path fill="#552861" d="M18.6,217.4c-0.4,0.2-0.8,0.4-1.3,0.5c-2.3,0.6-3.4-0.3-2.9-2.6c0.7-3.8,1.7-7.6,3.1-11.2
			c0.5,3.9,1,7.8,1.5,11.8C19,216.4,18.8,216.9,18.6,217.4z"/>
		<path fill="#552861" d="M251.1,176.8c-3.4,0.8-6.3,0.1-9.3-0.8c-1.1-2.5,0.5-4.3,1.8-6.1C245.7,172.4,248.2,174.5,251.1,176.8z"/>
		<path fill="#552861" d="M238.4,189.9c-0.2-3.5-0.1-7,1.5-10.3C242.9,183.6,240.1,186.7,238.4,189.9z"/>
		<path fill="#E5B99F" d="M234.5,93c0-0.2,0-0.4,0-0.6C234.9,92.6,234.8,92.8,234.5,93z"/>
		<path fill="#552861" d="M171.2,347.6c-0.9,0-1.4-0.8-1.4-1.6c0-0.9,0.7-1.1,1.5-1c0.8,0.1,1.2-0.6,0.9-0.9c-1.2-1.3-0.5-3-0.9-4.3
			c-1.4-4.3-2.9-8.6-3.3-13.2c-0.1-0.8-0.5-1.5-0.9-2.1c-0.2-0.3-0.4-0.8-0.9-0.5c-0.3,0.2-0.3,0.4-0.3,0.8c0.1,0.4,0.4,0.9-0.4,1.2
			c-0.4-0.8-2.1-1-0.8-2.5c1.5-1.6,1-3-0.7-4.1c-1.5-1-3-1.6-3.9,0.8c-0.1,0.3-0.6,0.5-0.8,0.9c-0.3,0.5-0.6,0.8-1.1,0.5
			c-0.4-0.2-0.4-0.6-0.4-1c0-0.5,0.6-0.8,0.3-1.3c-1.1-0.4-2,0.1-2.8,0.8c-0.5,0.4-0.9,1-1.6,0.8c-2.2-0.9-3.9,0.8-5.9,1.1
			c-2.6,0.3-4.7,2.9-7.8,1.8c-0.6-0.2-1.1,0.6-0.9,1.3c0.7,2.8-0.7,1.3-1.9,1.1c-0.8-0.1-0.9-1.9-2-0.8c-0.7,0.7-1.4,1.3-1.7,2.2
			c-0.3,1.4-1,2.9,1,3.6c0.6,0.2,1.5,0.1,1.5,1.1c0,1-0.8,0.9-1.5,1.1c-0.9,0.2-1.5,1.4-0.6,1.6c2,0.4,1.2,1.4,1,2.5
			c-0.2,1,0.2,1.8,0.5,2.7c0.3,0.9,3,1.6,0.4,2.9c-0.1,0,0.1,0.7,0.2,0.8c1.9,0.7,1.4,2.2,1.4,3.6c0,1,0.3,2,1,2.7
			c0.6,0.6,1,0.9,0.3,1.9c-0.5,0.7-0.2,1.8,1.1,1.5c0.8-0.2,1.4-0.5,1.8,0.3c0.3,0.7,0,1.4-0.8,1.7c-0.8,0.3-0.9,1.2-0.7,1.5
			c1,1,2,2.1,3.5,2.3c0.6,0.1,1.2-0.2,1.8-0.3c0,0,0-0.3,0-0.4c-1.1-1.7,0.6-1.7,1.3-1.9c1.4-0.3,1.4,0.6,1.4,1.7
			c0,1,1.1,0.7,1.7,0.5c0.5-0.1,1.1-0.4,0.8-1.1c-0.7-1.5-0.4-2.1,1.1-2.3c2.5-0.3,3.2-1.7,1.9-4c-0.2-0.3-0.5-0.7-0.8-0.8
			c-0.7-0.1-0.5,0.5-0.6,0.9c-0.3,1.4-1,0.6-1.7,0.3c-3.1-1.2-5.1-3.7-7.2-6c-1.8-1.9-3.2-4.2-3.3-7c0.9,2.4,2.5,4.3,4.4,5.9
			c1.4,1.2,3.3,1.7,4.2,3.3c1.3,2.2,3.2,2.3,5.2,1.7c2.5-0.8,4.3-0.8,4.5,2.4c0,0.7,1.4,1.6,0,2.2c-1,0.4-1.1-0.9-1.5-1.5
			c-0.4-0.5-0.1-1.8-1.2-1.3c-0.9,0.3-0.2,1.2-0.1,1.9c0.2,0.9,1.1,2.1-0.9,2.3c2.5-0.1,4.8-0.5,6.2-2.8c0.8-1.3,2.2-0.1,3.3-0.5
			c0.4-0.2,0.6,0.4,0.4,0.8c-0.4,0.7-0.5,1.4,0.5,1.2c0.5-0.1,2-0.1,1.4-1.5c-1-2.3,0.8-1.9,1.9-2c1.5-0.1-0.8,1,0.4,1.3
			c1.3,0.3,3-0.6,3.6-2.4C173,348.8,173.2,347.6,171.2,347.6z M140.3,351.3c0.1,0,0.1,0.1,0.2,0.1c0,0.1-0.1,0.2-0.1,0.2
			c0,0-0.1-0.1-0.2-0.1C140.2,351.4,140.3,351.4,140.3,351.3z M147.2,342.3c-0.3,0.5-0.9,0.7-1.5,0.5c-0.9-0.3-1.8-0.6-2-1.7
			c-0.2-0.8-0.4-1.5-0.7-2.5c1.4,1,2.4,1.8,3.5,2.5C146.9,341.4,147.6,341.6,147.2,342.3z M147.7,340.3c-0.1,0-0.9,0-1-1
			c-0.1-0.9,0.4-1.6,1.2-1.7c0.8-0.1,2.1,0,2.2,0.8C150.3,339.4,149.3,340,147.7,340.3z M150.9,334.4c-1.6,0-1.9-1.8-2.2-2.7
			c-0.7-2.8,1.5-2,2.4-2.4c1.2-0.6,1.6,1.1,1.6,1.8C152.8,332.4,153.1,334.5,150.9,334.4z M156.5,338.1c-0.9,0.2-1.9-0.1-1.9-1
			c-0.1-1,0.9-1.5,1.9-1.6s1.9,0.2,2,1.1C158.6,337.5,157.6,338,156.5,338.1z M156.5,327.1c-1.7-0.3-3.4,0.3-5.2-0.1
			c2.6-1.2,5.3-2,8.2-1.1c1,0.3,1.5,1.1,1.7,2.5C159.7,326.8,158,327.4,156.5,327.1z M164.5,339.5c-0.9,3.4-1.6,7-3.6,10
			c-0.3,0.4-0.7,0.6-1.6,1.4c0.3-1.4-1.7-2.5,0.8-3.2c0.9-0.3,1-7.3,0-7.9c-1.7-1-0.9-2-0.4-3.2c0.3-0.8,0.7-1.6,1.1-2.4
			c0.5,0.5,0.1,1.3,0.7,1.6c0.5,0.2,0.8,0.9,1.4,0.7c0.6-0.2,0.4-0.8,0.4-1.2c0-0.4-0.2-1,0.5-1.1c0.8-0.1,0.8,0.8,0.8,1.2
			C164.5,336.7,164.8,338.2,164.5,339.5z"/>
		<path fill="#552861" d="M128.9,368.2c-2.8-3.7-4.7-7.5-6.4-11.5c-1.5-3.6-2.9-7.3-4.7-10.8c-2-3.8-3-8.2-4.3-12.4
			c-2.3-7.4-4.2-14.8-5.6-22.5c-0.8-4.2-1.4-8.4-2.1-12.6c-0.3-1.8-0.7-3.5-1.1-5.3c-0.3-1.3-1.6-1.7-2.6-2.2
			c-8.3-4.3-16.5-8.6-24.8-12.9c-0.5-0.3-1.2-0.4-1.5-1c-0.8-1.4,0-2.9,1.7-3.1c0.9-0.1,1.9-0.3,2.8-0.4c0.5-0.1,1.1-0.7,1.5-0.1
			c2.1,2.8,5.3,2.7,8.2,2.6c2.1-0.1,3.8,0,5.3,1.6c0.2,0.3,0.7,0.3,1.1,0.5c2.1,1.1,4.3,1.1,6.5,0.7c0.3,0,0.6-0.1,0.8-0.1
			c0.8,0,1.4-0.2,1.9-0.8l0,0c0.3-0.1,0.7-0.1,1-0.2c0.2,0.3,0.3,0.6,0.5,0.9c0,0.3,0.1,0.4,0.5,0.3c0.5,0,1-0.1,1.3,0.3
			c0.2,5.2,0.3,10.4,0.8,15.5c0.9,9.7,2,19.3,4.3,28.8c1.9,8.2,4.1,16.2,7,24.1c2.2,6,4.5,11.9,7.4,17.7
			C128.7,365.8,129.3,366.7,128.9,368.2z"/>
		<path fill="#552861" d="M219,140.8c-0.6,0.3-1.1-0.1-1.5-0.5c-0.9-0.8-1.9-1.5-2.5-2.4c-2.8-4.4-7.3-5.3-12-6.2
			c-8.2-1.4-15.6,0.8-22.7,4.4c-4,2-8,4-12.2,5.6c-3.2,1.2-6.2,2.8-8.6,5.4c-0.9,1-2.1,1.9-3.5,1c-1.3-0.8-1.1-2.1-1-3.4
			c0.3-2.2,0.8-4.4,1.5-6.5c1.3-3.9,3.8-6.5,8.3-6.6c9.8,0.1,19-3.3,28.5-5.2c4.9-1,9.8-2.5,14.7-0.6c6,2.4,9.7,7,11.2,13.4
			C219.3,139.8,219.7,140.5,219,140.8z"/>
		<path fill="#552861" d="M102.9,146.2c-0.4,2.3-2,2.8-4,2.8c-4.7-0.1-9.4-0.5-14.1-0.3c-12.5,0.5-24.4,3.5-35.7,8.6
			c-1.5,0.7-3,1.2-4.7,2.2c0.5-2.4,1.5-3.7,3.2-5c4.6-3.6,9.7-6.2,15.1-8.3c2.8-1.1,5.2-2.7,7.7-4.2c4.5-2.6,9.3-3.8,14.5-3.5
			c5.3,0.3,10.5,0.5,15.5,2.7C102,141.9,103.2,144.2,102.9,146.2z"/>
		<path fill="#552861" d="M209,261.7c-3.5,2.3-4.8,6.2-6.7,9.6c-0.5,0.9-1,1.8-1.5,2.7c-1.8,2.9-4.3,4.5-7.8,4.2
			c-3-0.2-6-0.4-8.3,2.7c-1.1-4.5-2.2-8.3-3.7-12c-0.3-0.8-0.5-1.7-1.3-2.1c0.1-0.7-0.2-1.4,0.3-2c2.6,2.5,5.5,1.9,8.4,1.3
			c0.4,0.1,0.8,0,0.9-0.5c1.1-0.2,1.9-0.7,1.6-2c0.2,0,0.4,0,0.7-0.1c0.1,0.3,0.1,0.6,0.2,0.9c1.4,0.8,5.7,0.4,7.4-0.8
			c0.5-0.7,1-1.3,1.1-2.2c2.5,0,4.8-0.8,6.9-2c0.6-0.3,1.3-1,1.8-0.2C209.4,259.9,210.1,261,209,261.7z"/>
		<path fill="#552861" d="M122.7,225.4c-3.6,2.5-7.5,3.1-11.7,1.8c-3.8-1.1-7.8-1.8-11.8-2.6c5.6-2.4,11.1-5,16.6-7.4
			c4.2-1.8,7.7,0.6,8.3,5.1C124.2,223.6,123.8,224.7,122.7,225.4z"/>
		<path fill="#552861" d="M170.9,217.9c0,1.6-1.5,2.1-2.6,2.4c-6.8,1.7-13.5,2.1-20.2-0.5c-1.5-0.6-1.6-1.8,0-3
			c2.4-1.9,5.2-2.9,8.3-3.2c4.2-0.4,8.3-0.1,12.2,2C169.5,216.1,170.8,216.5,170.9,217.9z"/>
		<path fill="#FFFFFF" d="M230.3,294.3c-5.9,17.7-14.8,33.4-28,46.6c-0.2-0.1-0.3-0.3-0.5-0.4c3-7.5,5.9-15,8.9-22.5
			c0.7-1.8,1.5-3.6,2.3-5.5c6-13,13.3-25.5,14.9-40.2c0.2-1.9,0.5-3.9,0-5.9c2.1-0.3,2.7,1.1,3.2,2.7
			C233.4,277.7,233.1,285.9,230.3,294.3z"/>
		<path fill="#FEFEFE" d="M202.3,340.9c-0.2,0.1-0.4,0.5-0.7,0.3c-0.3-0.3,0-0.5,0.2-0.7C201.9,340.7,202.1,340.8,202.3,340.9z"/>
		<path fill="#E5B99F" d="M159.2,350.9c0.3-1.4-1.7-2.5,0.8-3.2c0.9-0.3,1-7.3,0-7.9c-1.7-1-0.9-2-0.4-3.2c0.3-0.8,0.7-1.6,1.1-2.4
			c0.5,0.5,0.1,1.3,0.7,1.6c0.5,0.2,0.8,0.9,1.4,0.7c0.6-0.2,0.4-0.8,0.4-1.2c0-0.4-0.2-1,0.5-1.1c0.8-0.1,0.7,0.8,0.8,1.2
			c0.1,1.4,0.4,2.9,0.1,4.2c-0.9,3.4-1.6,7-3.6,10C160.6,349.9,160.2,350.1,159.2,350.9z"/>
		<path fill="#E5B99F" d="M148.7,331.7c-0.7-2.8,1.6-2,2.4-2.4c1.2-0.6,1.6,1.1,1.6,1.7c0,1.3,0.3,3.4-1.8,3.3
			C149.3,334.4,149.1,332.6,148.7,331.7z"/>
		<path fill="#E5B99F" d="M151.3,327c2.6-1.2,5.3-2,8.2-1.1c1,0.3,1.5,1.1,1.7,2.5c-1.4-1.7-3.2-1.1-4.7-1.4
			C154.7,326.7,153,327.4,151.3,327z"/>
		<path fill="#E5B99F" d="M156.5,338.1c-0.9,0.2-1.9-0.1-1.9-1c-0.1-1,0.9-1.5,1.9-1.6c1-0.2,1.9,0.2,2,1.1
			C158.6,337.5,157.6,338,156.5,338.1z"/>
		<path fill="#E5B99F" d="M143,338.5c1.4,1,2.4,1.8,3.5,2.5c0.4,0.3,1.1,0.5,0.7,1.2c-0.3,0.5-0.9,0.7-1.5,0.5
			c-0.9-0.3-1.8-0.6-2-1.7C143.5,340.3,143.3,339.6,143,338.5z"/>
		<path fill="#E5B99F" d="M147.7,340.3c-0.1,0-0.9,0-1-1c-0.1-0.9,0.4-1.6,1.2-1.7c0.8-0.1,2.1,0,2.2,0.8
			C150.3,339.4,149.3,340,147.7,340.3z"/>
		<path fill="#E5B99F" d="M140.3,351.3c0.1,0,0.1,0.1,0.2,0.1c0,0.1-0.1,0.1-0.1,0.1c-0.1,0-0.1-0.1-0.2-0.1
			C140.2,351.4,140.3,351.4,140.3,351.3z"/>
		<path fill="#E5B99F" d="M106.7,277.3c-0.3,0.1-0.7,0.1-1,0.2c0.3-2.5,0.6-5,0.8-7.6c0.2,0,0.4,0,0.6,0.1
			C107.2,272.5,107.2,274.9,106.7,277.3z"/>
		<path fill="#E5B99F" d="M102.9,278.4c-2.2,0.4-4.4,0.4-6.5-0.7C98.5,278.1,100.7,277.8,102.9,278.4z"/>
		<path fill="#E5B99F" d="M105.6,277.5c-0.5,0.6-1.1,0.8-1.9,0.8C104.1,277.4,104.9,277.6,105.6,277.5z"/>
		<path fill="#E5B99F" d="M107.6,278.6c-0.3,0.1-0.5,0-0.5-0.3C107.3,278.4,107.5,278.5,107.6,278.6z"/>
		<path fill="#E5B99F" d="M199.2,263.5c-1.7,1.2-6,1.6-7.4,0.8C194.2,264.1,196.7,263.8,199.2,263.5z"/>
		<path fill="#E5B99F" d="M191.5,263.5c-0.2,0-0.4,0-0.7,0.1c-0.8-1.7-0.8-3.5-0.6-5.4C190.7,259.9,192.2,261.4,191.5,263.5z"/>
		<path fill="#E5B99F" d="M189.3,265.6c-0.2,0.5-0.5,0.5-0.9,0.5C188.5,265.5,188.7,265.1,189.3,265.6z"/>
	</g>
	<g>
		<g>
			<g>
				<g>
					<path fill="#E5B99F" d="M334,283.4c0.1-1.3,0.6-2.8,1.3-4.3c0.8-1.5,1.8-3.1,3-4.7c1.2-1.6,2.6-3.1,4.1-4.7
						c1.5-1.5,3.1-3,4.8-4.4c1.7-1.4,3.4-2.7,5-3.9c1.7-1.2,3.2-2.2,4.6-3.1c1.4-0.9,2.7-1.6,3.8-2.1c1.1-0.6,1.9-0.9,2.4-1
						c1.5-0.3,2.7-0.5,3.6-0.5c0.9,0,1.7,0.2,2.3,0.5c0.6,0.3,1,0.7,1.3,1.2c0.3,0.5,0.4,1.1,0.4,1.8c0,0.7-0.1,1.5-0.3,2.3
						s-0.4,1.6-0.7,2.5c-0.3,0.9-0.6,1.9-1,2.9c-0.4,1-0.8,2.1-1.1,3.1c-0.7,1.9-1.2,3.9-1.7,5.8c-0.4,2-0.8,3.9-0.9,5.7
						c-0.2,1.8-0.2,3.5-0.1,5.1c0.1,1.6,0.3,3.1,0.5,4.6c0.2,1.5,0.6,2.8,1,3.9c0.4,1.1,1,2.1,1.6,2.9c0.6,0.8,1.3,1.5,2,1.9
						c0.7,0.5,1.5,0.7,2.3,0.8c2.8,0,5.2-0.5,7.3-1.6c2.1-1,3.8-2.4,5.3-4.2c1.5-1.8,2.6-3.7,3.4-5.9s1.4-4.3,1.7-6.4
						c0.3-2.1,0.3-4,0-5.7c-0.3-1.7-0.8-3-1.6-3.8c-0.8-0.8-1.8-1-3.1-0.6c-1.3,0.4-2.8,1.8-4.5,4c-0.4,0.6-0.7,1.1-0.8,1.6
						c-0.1,0.5,0.1,0.9,0.3,1.1c0.3,0.3,0.6,0.6,1.1,0.9c0.4,0.3,0.9,0.6,1.3,1c0.4,0.4,0.9,0.7,1.3,1.1c0.4,0.4,0.8,0.8,1,1.4
						c0.2,0.5,0.3,1.2,0.3,1.9c-0.1,0.7-0.4,1.5-0.9,2.5c-0.8,1.6-1.6,2.8-2.4,3.8c-0.8,0.9-1.7,1.6-2.4,2.1
						c-0.8,0.5-1.5,0.7-2.3,0.6c-0.7-0.1-1.4-0.3-2-0.6c-0.6-0.3-1.2-0.8-1.7-1.4c-0.5-0.6-0.9-1.3-1.3-2c-0.3-0.8-0.6-1.6-0.8-2.4
						c-0.2-0.8-0.3-1.5-0.3-2.2c0-4,0.2-7.7,0.7-11.1c0.4-3.4,1.1-6.4,1.9-9.2c0.8-2.8,1.8-5.3,2.9-7.6c1.1-2.3,2.4-4.3,3.7-6.1
						c1.4-1.9,2.7-3.6,4.2-5c1.5-1.4,2.9-2.7,4.3-3.9c1.4-1.1,2.7-2.2,4-3.1c1.3-0.9,2.5-1.9,3.6-2.7c1.3-1,2.6-1.8,3.8-2.4
						c1.2-0.6,2.4-1.2,3.6-1.7c1.2-0.5,2.5-0.9,3.9-1.3c1.3-0.3,2.9-0.7,4.5-1.1c3.6-0.7,6.4-0.6,8.5,0c2.1,0.6,3.6,1.7,4.7,3.1
						c1.1,1.4,1.7,3,2,4.9c0.3,1.8,0.4,3.8,0.4,5.8c0,3.6-0.1,7.4-0.2,11.5c-0.1,4.1-0.3,8.2-0.5,12.4c-0.2,4.3-0.5,8.7-0.8,13.1
						c-0.3,4.4-0.5,8.8-0.8,13.1c-0.3,5.1-0.6,9.9-0.8,14.4c-0.2,4.5-0.3,8.6-0.3,12.1c0,3.5,0.2,6.4,0.6,8.9
						c0.4,2.4,0.8,4.3,1.3,5.5c0.7,1.5,1.3,3.2,1.8,4.8c0.6,1.7,1,3.4,1.3,5.1c0.3,1.7,0.6,3.3,0.8,5c0.2,1.7,0.2,3.2,0.2,4.8
						c-0.1,1.5-0.3,3-0.6,4.4s-0.8,2.7-1.4,3.9c-0.6,1.2-1.4,2.2-2.4,3.1c-1,0.9-2,1.6-3.3,2.2c-1.9,0.8-4,1.7-6.3,2.6
						c-2.3,1-4.6,1.9-6.8,2.8c-2.2,0.9-4.4,1.7-6.4,2.3c-2,0.7-3.7,1.2-5,1.5c-2.2,0.4-4.1,0.6-5.5,0.8c-1.5,0.1-2.6,0.1-3.5,0
						c-0.9-0.1-1.5-0.4-1.9-0.8c-0.4-0.4-0.6-0.9-0.7-1.6c-0.1-0.6,0-1.3,0.3-2.1c0.2-0.7,0.5-1.5,0.8-2.3c0.3-0.8,0.7-1.6,1-2.5
						s0.6-1.7,0.8-2.5c1.6-6.5,2.5-12,2.9-16.5c0.4-4.5,0.4-8,0-10.8c-0.4-2.7-1.1-4.7-2.3-5.8c-1.1-1.1-2.4-1.7-3.8-1.7
						c-1.4,0-2.9,0.5-4.5,1.4c-1.6,0.9-3.1,2.1-4.5,3.5c-1.4,1.4-2.6,2.9-3.6,4.4c-1,1.6-1.7,3.1-2,4.4c-0.6,1.9-0.7,3.4-0.5,4.3
						c0.2,0.9,0.6,1.3,1.3,1.3c0.6-0.1,1.4-0.7,2.3-1.9c0.9-1.2,1.8-3,2.9-5.6c0.7-1.6,1.4-2.9,2.1-3.7c0.7-0.8,1.4-1.3,2.1-1.5
						c0.7-0.2,1.3,0,2,0.4s1.2,1.2,1.7,2.2c0.4,1,0.8,2.2,1.2,3.5s0.5,2.8,0.5,4.5s-0.1,3.5-0.4,5.4c-0.3,1.9-0.8,3.9-1.4,5.9
						c-1.7,4.8-3.6,9.3-5.8,13.8c-2.2,4.4-4.6,8.6-7.1,12.3c-2.5,3.7-5.3,7-8.1,9.9c-2.8,2.9-5.6,5.4-8.2,7.2c-3,2.2-5.9,3.9-8.7,5
						c-2.7,1.1-5.1,1.5-7.1,1.2c-2-0.3-3.4-1.5-4.5-3.4c-1-2-1.2-5-0.8-8.9c0.5-5.5,0.8-11,0.9-16.1c0.2-5.1,0.1-10.1,0.1-14.9
						c-0.1-4.8-0.2-9.5-0.5-13.9c-0.3-4.5-0.6-8.9-0.8-13.2c-0.4-5.4-0.9-10.8-1.3-16.2c-0.4-5.3-0.5-10.9-0.6-16.4
						c-0.1-3.7-0.1-7.5,0-11.3C333.4,291.3,333.7,287.3,334,283.4z"/>
				</g>
				<g>
					<path fill="#E5B99F" d="M499.3,244.8c3.2,1.3,6.6,3.2,10,5.8c3.4,2.6,6.8,5.7,10.1,9.4c3.3,3.7,6.4,7.8,9.4,12.3
						c3,4.5,5.6,9.2,7.8,14c2.3,4.9,4.3,10,5.8,14.9c1.5,5,2.4,9.6,2.8,14c0.3,4.3,0,8.2-1,11.6c-1,3.4-2.9,6.2-5.5,8.7
						c-1.9-1.8-3.9-3.6-5.9-5.5s-4.1-3.6-6.2-5.3c-2.1-1.7-4.3-3.4-6.4-5c-2.1-1.6-4.4-3.2-6.6-4.8c-2.1-1.6-4.3-3.3-6.5-4.9
						c-2.2-1.6-4.3-3.2-6.5-4.9c-2.1-1.6-4.3-3.3-6.4-5.2c-2.1-1.8-4.1-3.7-6-5.7c-1.2-0.8-2.4-1.8-3.5-3c-1.1-1.2-2.2-2.5-3.1-3.8
						c-1-1.3-1.9-2.8-2.8-4.3c-0.9-1.5-1.6-3.1-2.2-4.6c-0.6-1.5-1.2-3-1.7-4.4c-0.4-1.5-0.8-2.8-0.9-4.1c-0.2-1.3-0.2-2.4,0-3.4
						c0.2-1,0.5-1.8,0.9-2.4c0.7-0.8,1.6-1.1,2.7-1.1c1.1,0,2.6,0.6,4.5,1.7c1.8,1.1,4,2.8,6.5,5.3c2.5,2.4,5.3,5.8,8.6,10.2
						c1.2,0.7,2.1,0.9,2.6,0.6c0.5-0.2,0.7-0.8,0.7-1.6c-0.1-0.8-0.4-1.9-1-3.3c-0.6-1.4-1.4-2.8-2.4-4.2c-1-1.5-2-2.9-3.3-4.4
						c-1.2-1.5-2.6-2.8-4.1-4c-1.5-1.2-3.1-2.1-4.7-2.8c-1.6-0.7-3.3-1-5.1-1.1c-2.7-1-5-1-7-0.1c-2,0.9-3.4,2.4-4.4,4.4
						c-1,2-1.3,4.5-1.2,7.4c0.2,2.9,1.1,6,2.8,9.5c0.8,1.7,1.8,3.4,2.9,5c1.2,1.6,2.6,3.3,4.2,5.1c1.6,1.7,3.5,3.5,5.5,5.3
						c2.1,1.8,4.4,3.6,6.9,5.6c2.5,1.9,5.3,4,8.4,6.3c3.1,2.3,6.4,4.7,9.9,7.5c3.5,2.7,7.3,5.8,11.4,9.3c4.1,3.5,8.5,7.5,13.2,12.1
						c1.3,1.8,2.4,3.3,3.3,4.7c0.8,1.3,1.5,2.5,2,3.6c0.5,1.1,0.9,2,1.1,2.8c0.2,0.8,0.3,1.3,0.2,1.7c-0.1,0.3-0.3,0.6-0.7,0.6
						c-0.3,0.1-0.7,0.1-1.2,0c-0.4-0.1-1-0.3-1.6-0.6c-0.6-0.3-1.3-0.7-1.9-1.2c-3-4.4-6.4-8.7-10-12.7c-3.6-4-7.3-7.6-10.9-10.6
						c-3.6-3-7.3-5.5-10.8-7.5c-3.6-2-6.9-3.4-9.9-4.3c-2.9-0.8-5.4-1.1-7.6-1c-2.1,0.1-3.6,0.9-4.5,2.2c-0.8,1.3-1,3.2-0.3,5.6
						c0.6,2.4,2.3,5.5,5,9.5c2.4,3.6,4.6,6.4,6.8,8.6c2.2,2.1,4.1,3.8,5.9,4.9c1.7,1.1,3.2,1.6,4.5,1.7c1.2,0,2.1-0.3,2.7-1
						c0.6-0.7,0.7-1.7,0.5-2.9c-0.2-1.2-0.9-2.6-2-3.9c-1.1-1.3-2.8-2.6-5-3.7s-5-1.8-8.3-2c-1.5-2-2.5-3.8-3.2-5.4
						c-0.7-1.6-1-2.9-0.8-4c0.1-1.1,0.5-2,1.3-2.7c0.7-0.7,1.8-1.1,2.9-1.3c1.2-0.2,2.7-0.3,4.5,0c1.7,0.3,3.6,0.9,5.6,1.8
						c2,0.9,4.2,2.1,6.5,3.6c2.3,1.5,4.6,3.3,7,5.4c2.4,2.1,4.8,4.5,7.2,7.4c2.5,2.9,4.9,6.1,7.2,9.7s4.7,7.5,7,11.7
						c2.3,4.2,4.5,8.7,6.5,13.4c2,4.7,3.9,9.6,5.6,14.7c1.7,5.1,3.3,10.3,4.6,15.6c1.3,5.3,2.5,10.6,3.4,15.9
						c0.9,5.3,1.5,10.5,1.7,15.5c-0.2,0.3-0.5,0.6-0.8,0.9c-0.3,0.3-0.6,0.7-0.9,1.1c-0.3,0.4-0.7,0.6-1.2,0.8c-0.4,0.2-1,0.2-1.7,0
						c-0.7-0.2-1.5-0.6-2.4-1.3c-1-0.7-2.1-1.7-3.4-2.9c-1.3-1.3-2.9-2.9-4.6-4.7c-1.7-1.8-3.7-4.1-6-6.6c-6.3-7.5-13-14.5-20.2-21
						c-6.8-6-13.6-11.1-20.2-15.3c-6.6-4.2-13.2-7.6-19.7-10.3c-6.5-2.6-12.9-4.7-19.1-6.3c-0.9-0.1-1.9-0.3-2.9-0.5
						c-1.1-0.2-2.2-0.5-3.3-0.8c-1.1-0.3-2.2-0.7-3.3-1.1c-1.1-0.5-2-1-2.8-1.7c-0.8-0.7-1.4-1.5-1.9-2.4c-0.5-0.9-0.8-2.1-0.8-3.4
						s0.2-2.9,0.8-4.7c0.6-1.8,1.5-3.8,2.7-6c0.2-2.2,0.4-4.9,0.4-7.9c0.1-3,0.1-6.3,0-9.8c-0.1-3.5-0.2-7.3-0.3-11.3
						s-0.5-8.3-0.8-12.6c-0.3-4.2-0.5-8.7-0.8-13.3c-0.3-4.6-0.7-9.2-1.2-13.8c-0.5-4.6-1.2-9.2-2-13.8c-0.8-4.5-2-9-3.4-13.3
						c-0.3-1.5-0.6-3.1-0.7-4.6c-0.1-1.6-0.1-3.1-0.1-4.6c0.1-1.5,0.2-3,0.5-4.3c0.3-1.4,0.7-2.7,1.3-4c0.6-1.3,1.3-2.4,2.3-3.4
						c1-1,2.1-1.9,3.5-2.6c1.4-0.7,3-1.2,4.9-1.4c1.8-0.2,4,0,6.3,0.4c3.6,0.6,7.4,1.5,11.2,3c3.8,1.5,7.5,3.2,11.2,5.1
						c3.7,1.9,7.6,3.8,11.3,5.7C491.9,241.4,495.6,243.2,499.3,244.8z"/>
				</g>
				<g>
					<path fill="#E5B99F" d="M298.1,475.8c0.9-1,1.8-2,2.6-2.9s1.7-1.8,2.6-2.7c1.1-1.2,2.5-2.8,4.1-4.9c1.6-2,3.4-4.3,5.4-6.7
						c2-2.4,4.1-4.8,6.4-7.2c2.3-2.4,4.7-4.6,7.1-6.6c0.8-0.7,1.7-1.4,2.9-2.2c1.1-0.8,2.4-1.8,3.9-2.9c1.5-1.1,3-2.1,4.5-3.1
						c1.6-1,3.2-2,4.8-3c1.6-1,3.2-1.9,4.9-2.7c1.6-0.8,3.2-1.5,4.6-2.1c1.5-0.6,2.8-1,3.9-1.3c1.2-0.3,2.3-0.3,2.9-0.1
						c0.6,0.3,1.4,0.9,2.2,1.5c0.8,0.6,1.5,1.2,2.3,1.8c0.7,0.7,1.4,1.5,2,2.4c0.6,0.9,1.1,2,1.5,3.2c0.4,1.2,0.6,2.6,0.8,4.2
						c0.1,1.6,0.1,3.4-0.2,5.4c-0.2,2-0.6,4.2-1.3,6.7c-0.6,2.5-1.5,5.3-2.6,8.4c-2.9,4.1-5.3,7.6-7.3,10.7c-2,3.1-3.6,5.8-4.9,8.1
						c-1.3,2.3-2.3,4.3-2.9,5.9c-0.7,1.6-1.1,2.8-1.2,3.7c-0.1,0.8-0.1,1.4,0.1,1.9c0.2,0.5,0.4,0.8,0.8,1c0.4,0.2,0.9,0.3,1.5,0.3
						c0.6,0,1.3,0,1.9,0c0.7-0.1,1.3-0.1,2-0.1c0.7,0,1.3,0.1,2,0.2c0.7,0.1,1.3,0.3,1.9,0.5c0.6,0.2,1.1,0.6,1.6,1
						c0.8,0.9,1.5,1.7,2,2.5c0.6,0.8,1.1,1.6,1.7,2.4c0.6,0.8,1.1,1.7,1.6,2.6c0.5,0.9,1.1,1.8,1.6,2.8c0.6,1,1.2,2.2,1.9,3.5
						c0.7,1.2,1.4,2.6,2,4c0.6,1.4,1.1,2.9,1.4,4.5c0.3,1.6,0.4,3.2,0.3,5c0.1,1.7,0.2,3.3,0.3,4.7c0.1,1.4,0.2,2.8,0.2,4
						c0,1.2,0,2.4-0.1,3.6c-0.1,1.2-0.1,2.3-0.3,3.4c-0.1,1.1-0.3,2.3-0.5,3.5c-0.2,1.2-0.5,2.5-0.8,3.9c-0.3,1.4-0.6,2.9-0.9,4.5
						c-0.3,1.6-0.6,3.6-1.2,5.2c-0.6,1.4-2,3-3.4,4.5c-1.4,1.5-2.9,3-4.5,4.5c-1.6,1.5-3.1,2.7-4.5,3.8c-1.5,1.1-2.6,1.9-3.4,2.3
						c-1.7,1.4-3.2,2.5-4.6,3.4c-1.4,0.9-2.7,1.5-3.8,2c-1.1,0.5-2.1,0.8-3,0.8c-0.9,0-1.7,0-2.4-0.1c-0.7-0.1-1.4-0.4-1.9-0.8
						c-0.6-0.4-1.1-0.8-1.5-1.4c-0.4-0.5-0.9-1.1-1.3-1.7c-0.4-0.6-0.8-1.1-1.1-1.6c-0.7-2.7-1.1-5.3-1.4-8
						c-0.3-2.6-0.4-5.2-0.5-7.8c-0.1-2.6,0-5.2,0.1-7.7c0.1-2.6,0.2-5.1,0.3-7.5c0.1-2.4,0.2-4.8,0.3-7.2c0.1-2.3,0-4.6-0.2-6.8
						c-0.2-2.2-0.5-4.3-1-6.4c-0.5-2-1.3-4-2.3-5.8c-0.4-0.2-0.9-0.2-1.4-0.1c-0.5,0.1-1,0.4-1.3,0.8c-0.4,0.4-0.7,0.9-1,1.5
						c-0.3,0.6-0.4,1.3-0.4,2.1c0.4,2.3,0.6,4.7,0.6,7.1c-0.1,2.4-0.1,4.7-0.1,6.9s0.1,4.3,0.2,6.2c0.1,2,0.6,3.7,1.5,5.2
						c0.4,1.3,0.9,2.7,1.3,4.2c0.4,1.5,0.8,3.2,1.2,4.9s0.6,3.5,0.8,5.3c0.2,1.8,0.4,3.7,0.5,5.5c0.1,1.9,0.1,3.7,0.1,5.6
						c-0.1,1.9-0.2,3.8-0.4,5.7c-0.2,1.9-0.6,3.8-1,5.7c-0.4,1.9-1,3.7-1.5,5.4c-1.9,2.7-3.8,5.2-5.7,7.6c-1.9,2.3-3.9,4.5-6,6.5
						c-2.1,2-4.3,4-6.6,6.1c-2.4,2-4.9,4-7.6,6.1c-0.9,0.7-1.9,1.3-2.9,1.8c-1.1,0.5-2.1,0.9-3.1,1.1c-1,0.2-2,0.3-3,0.3
						c-1-0.1-1.9-0.4-2.8-0.9c-0.8-0.5-1.6-1.3-2.3-2.4c-0.7-1-1.2-2.4-1.5-4c-0.3-1.7-0.5-3.7-0.5-6s0.2-5.1,0.7-8.3
						c0.1-2.3,0.4-4.8,0.8-7.5c0.4-2.6,0.9-5.4,1.4-8.2c0.6-2.8,1.2-5.7,1.9-8.7c0.7-2.9,1.5-5.9,2.3-9c0.9-3.4,1.8-6.7,2.6-10.1
						c0.8-3.4,1.6-6.7,2.3-9.9c0.7-3.2,1.2-6.3,1.6-9.3c0.4-3,0.7-5.9,0.6-8.5c-0.1-2.1-0.4-4.2-0.8-6c-0.4-1.9-1-3.6-1.8-5.1
						c-0.8-1.5-1.9-2.7-3.3-3.7C285.3,502.3,293.5,480.3,298.1,475.8z M330.9,480.7c0.4-0.4,0.9-1.1,1.4-2c0.5-1,0.9-2.1,1.3-3.4
						c0.3-1.3,0.6-2.7,0.8-4.2c0.2-1.5,0.3-3.1,0.3-4.6c0-1.5-0.1-2.8-0.3-3.9c-0.2-1.2-0.5-2.1-0.8-2.8s-0.8-1.2-1.3-1.3
						c-0.5-0.1-1,0-1.4,0.3c-0.6,0.5-1.1,1.2-1.5,2.1c-0.4,0.9-0.8,2-1.2,3.3s-0.6,2.7-0.8,4.2c-0.2,1.5-0.3,3-0.3,4.5
						c0,1.6,0.1,2.9,0.3,4.1c0.2,1.2,0.5,2.1,0.8,2.8s0.7,1.2,1.2,1.4C329.8,481.4,330.3,481.2,330.9,480.7z"/>
				</g>
				<g>
					<path fill="#E5B99F" d="M394.9,398.9c2.2-1.8,4.5-3.3,6.9-4.5c2.3-1.3,4.8-2.4,7.2-3.3c2.3-0.8,4.6-1.4,6.9-1.8
						c2.2-0.4,4.5-0.7,6.6-0.7c2.2,0,4.2,0.3,5.8,0.7c1.6,0.5,3,1.2,4.1,2.1c1.1,0.9,2,1.9,2.5,3.1c0.6,1.2,1,2.4,1.2,3.7
						c0.3,1.8,0.4,3.6,0.1,5.6c-0.3,2-0.7,4-1.2,5.9c-0.5,2-1.1,3.9-1.8,5.8c-0.7,1.9-1.5,3.7-2.3,5.4c-1,2.4-1.8,4.8-2.3,7
						s-0.9,4.5-1.1,6.6c-0.2,2.1-0.3,4.2-0.2,6.2c0.1,2.1,0.3,4,0.7,5.8c0.7,3.2,1.6,6.3,2.7,9.3c1.1,3,2.3,6,3.5,9.1
						c1.2,3,2.5,6.1,3.7,9.3c1.2,3.1,2.2,6.3,2.9,9.5c0.6,2.5,1.1,5.1,1.7,7.6c0.6,2.5,1,5,1.3,7.4c0.3,2.4,0.6,4.6,0.7,6.7
						c0.1,2.1,0.1,4.1-0.2,6c-0.2,1.8-0.6,3.5-1.2,5.2c-0.6,1.7-1.2,3.3-2,4.7c-0.8,1.4-1.6,2.7-2.5,3.8c-0.9,1.1-1.7,1.8-2.5,2.1
						c-4.5,1.8-8.8,3.4-12.8,4.7c-4.1,1.3-8.2,2.7-12,3.8c-2.3,0.7-4.6,1.3-6.8,2.1c-2.2,0.8-4.3,1.5-6.3,2.2
						c-2,0.7-3.9,1.2-5.8,1.7s-3.6,0.6-5.3,0.5c-1.3-0.2-2.5-0.5-3.5-0.9c-1-0.5-1.9-1.1-2.6-2c-0.7-0.9-1.3-1.9-1.8-3
						c-0.5-1.1-0.9-2.4-1.1-3.7c-0.3-1.8-0.3-3.8-0.3-5.8c0.1-2,0.2-4,0.5-6.1c0.3-2.1,0.6-4.1,1.1-6.1c0.4-2,0.9-3.9,1.3-5.6
						c1.7-5.6,3.2-10.8,4.7-15.5c1.5-4.7,2.7-9.1,3.9-13.2c1.1-4.1,2.1-7.9,2.9-11.4c0.8-3.5,1.3-6.8,1.7-9.8
						c0.6-4.6,0.6-8.9,0.2-12.7c-0.4-3.8-1.6-7.3-3.4-10.5c-2.2-4.2-3.9-8-5-11.3c-1.1-3.4-1.4-6.5-1.1-9.4c0.3-2.9,1.2-5.7,2.9-8.4
						C389.1,404.2,391.6,401.6,394.9,398.9z"/>
				</g>
				<g>
					<path fill="#E5B99F" d="M461.9,387.4c3.8-0.7,7.5-0.6,11.2,0.3c3.6,0.8,7.3,2.1,10.7,3.9c3.4,1.8,6.9,4.1,10.3,6.7
						c3.4,2.6,6.9,5.4,10.3,8.3c1.2,1.7,2.5,3.4,3.7,5.1c1.2,1.7,2.5,3.5,3.7,5.3c1.2,1.8,2.4,3.7,3.5,5.7c1.1,2,2.1,3.9,3,5.9
						c0.9,2,1.6,3.9,2.2,5.8c0.6,1.9,0.9,3.7,1,5.4c0.1,1.7,0,3.3-0.4,4.9c-0.4,1.6-1.1,3-2.1,4.4c0,1.5-0.3,2.6-1,3.3
						c-0.7,0.7-1.5,1.3-2.6,1.6c-1.1,0.3-2.3,0.5-3.7,0.6c-1.4,0.1-2.9,0.1-4.5,0.1c-1.3-0.1-2.7-0.1-4.2-0.1
						c-1.5,0-2.9,0.1-4.2,0.3s-2.6,0.5-3.9,0.8c-1.2,0.3-2.4,0.8-3.4,1.3c-0.9,0.4-1.7,1-2.3,1.6c-0.6,0.6-1.1,1.4-1.4,2.2
						s-0.5,1.7-0.4,2.7c0.1,1,0.3,2.1,0.8,3.4c1.7,4.5,3.4,9.1,5.1,13.7c1.7,4.6,3.4,9.3,5.1,14c1.7,4.7,3.4,9.5,5.1,14.4
						c1.7,4.9,3.4,9.9,5.1,15c0.4,1.7,0.8,3.3,0.9,4.5c0.2,1.3,0.3,2.5,0.3,3.6c0,1.1-0.1,2.2-0.3,3.1c-0.2,1-0.5,1.9-0.9,2.9
						c-0.7,2-1.9,3.2-3.8,3.7c-1.8,0.5-4.1,0.4-6.6-0.1c-2.3-0.4-5-1.1-7.9-2.1c-2.9-1-5.9-2.1-8.9-3.3c-3-1.2-6.1-2.5-9.2-3.8
						c-3.1-1.3-6-2.7-8.7-4.2c-1.7-0.9-3.2-1.9-4.7-2.9c-1.5-1-2.8-2-4-3.2c-1.2-1.2-2.3-2.3-3.3-3.6c-1-1.2-1.7-2.6-2.3-4.1
						c-0.7-1.7-1-3.6-1.1-5.6c-0.1-2,0.3-4.2,0.9-6.5c0.3-2,0.7-4.1,1.1-6.2c0.4-2.2,0.8-4.4,1.3-6.7c0.4-2.3,0.9-4.7,1.4-7.2
						c0.5-2.5,0.9-5,1.4-7.5c0.5-2.5,1.1-5.1,1.6-7.6c0.5-2.6,1-5.1,1.4-7.6c0.4-2.5,0.8-5,1.2-7.5s0.6-4.9,0.8-7.2
						c0.3-3.2,0.5-6.3,0.6-9.2c0.1-3-0.1-5.7-0.3-8.2c-0.3-2.5-0.8-4.8-1.5-6.7c-0.7-2-1.8-3.6-3.1-4.9c-2.8-3.9-4.7-7.2-5.8-10.1
						c-1.1-2.8-1.5-5.3-1.4-7.4c0-1.2,0.2-2.3,0.5-3.3c0.3-0.9,0.8-1.8,1.3-2.6c0.5-0.8,1.1-1.5,1.8-2.1c0.7-0.6,1.5-1.1,2.3-1.5
						c0.8-0.4,1.6-0.8,2.4-1c0.8-0.2,1.5-0.4,2.3-0.5c0.7-0.1,1.4-0.2,1.9-0.2C460.9,387.2,461.4,387.3,461.9,387.4z M486.7,428.4
						c1.1,0.6,2.2,1,3.2,1.2c1,0.2,1.9,0.2,2.6-0.2c0.7-0.3,1.3-0.8,1.7-1.5c0.4-0.7,0.6-1.6,0.6-2.7c0-1.1-0.2-2.3-0.6-3.6
						c-0.4-1.3-1-2.5-1.7-3.7c-0.7-1.2-1.6-2.3-2.6-3.3c-1-1-2.1-1.8-3.2-2.4c-1.1-0.6-2.2-1-3.1-1.1c-1-0.1-1.8,0.1-2.5,0.5
						c-0.7,0.4-1.3,1-1.8,1.8c-0.4,0.8-0.7,1.8-0.7,2.9c0,1.1,0.2,2.3,0.7,3.4c0.4,1.1,1,2.3,1.8,3.4c0.7,1.1,1.6,2.1,2.5,3
						C484.6,427,485.6,427.8,486.7,428.4z"/>
				</g>
			</g>
			<g>
				<g>
					<path fill="#E5B99F" d="M294.3,458.6c-20.2,45.4-34.5,77.7-42.4,68.4c-0.3-0.4-0.6-0.9-0.9-1.3c-1.2-1.9-2.2-4.1-3.1-6.5
						c-0.8-2.4-1.6-5-2.3-7.7c-0.7-2.7-1.4-5.4-2.2-8.2c-0.7-2.8-1.4-5.5-2.2-8.2c-0.7-2.7-1.6-5.3-2.5-8c-1-2.6-2-5-3.3-7.3
						c-2.7-4.5-5.1-8.5-7.2-12c-2.2-3.5-4.3-6.9-6.3-10.1c-2-3.3-4.2-6.6-6.3-10c-2.2-3.4-4-7.5-4.6-8.8c-0.6-1.3-1-2.6-1.3-3.7
						c-0.2-1.2-0.2-2.4,0.2-3.5c0.4-1.2,1.1-2.3,2.3-3.5c1.2-1.1,2.9-2.2,5.1-3.1c2.2-1,4.9-2,8.3-3.2c4.1-1.5,7.3-3,9.6-4.3
						c2.3-1.4,3.9-2.8,4.9-4.1c1-1.3,1.3-2.5,1.1-3.4c-0.2-0.9-0.8-1.7-1.8-2.4c-1-0.7-2.2-1.2-3.6-1.6c-1.4-0.3-3-0.5-4.5-0.6
						c-1.6,0-3.1,0.1-4.5,0.4c-1.4,0.3-2.7,0.9-3.6,1.8c-1.9,1.6-3.9,3.3-5.8,5.2c-1.9,1.9-3.9,4-6,6.2c-2,2.3-3.9,4.5-5.6,6.7
						c-1.7,2.3-3.2,4.6-4.6,7c-1.3,2.4-2.4,4.9-3.3,7.4c-0.8,2.6-1.4,5.2-1.6,7.8c-0.2,2.7-0.1,5.4,0.4,8.1c0.5,2.7,1.4,5.3,2.9,7.8
						c3.4,5.9,7,11.8,10.9,17.6c3.9,5.8,7.7,11.5,11.6,17.3c3.9,5.8,7.7,11.5,11.6,17.1c3.9,5.7,7.1,12,10.1,18
						c2.8,5.6,5.8,11.7,8.1,18c2.3,6.3,4.3,12.6,6.1,18.9c1.8,6.3,3.5,12.4,5.1,18.3c1.6,5.9,2.9,11.6,4.2,17c1,3,0.9,6.8-0.2,11.4
						c-1.1,4.5-2.8,9.3-5.1,14.1c-2.3,4.8-5.2,9.8-8.7,14.9c-3.5,5.1-7.3,9.7-11.4,13.9c-6.7,6.8-13.3,12.6-19.5,17.4
						c-6.3,4.8-12.9,9.3-19.9,13c-3.6,2.1-7.5,4-11.6,5.6c-4.1,1.6-8.4,3.3-13,4.9c-4.6,1.6-9.5,3.1-14.6,4.5
						c-5.2,1.4-10.7,2.7-16.5,3.8c-4.1,0.8-8.3,0.4-12.4-1.3c-4.2-1.6-7.9-4.6-11.2-8.8c-3.3-4.2-5.9-9.4-7.8-15.5
						c-1.9-6.1-2.6-12.9-2-20.3c0.6-7.8,1.1-15.9,1.6-24c0.5-8.1,1-16.3,1.6-24.6c0.5-8.2,1.2-16.4,1.9-24.6
						c0.7-8.2,1.7-16.4,2.8-24.4c0.9-7,2.1-14.2,3.6-21.5c1.5-7.3,3.3-14.7,5.5-22.2c2.1-7.5,4.8-15.3,8-23.5
						c3.1-8.2,6.9-16.6,11.3-25.5c1-2.4,1.4-4.6,1.3-6.6c-0.1-2-0.6-3.8-1.6-5.3c-0.9-1.6-2.3-2.9-4.1-4.1c-1.8-1.1-4-2-6.5-2.7
						c-2.5-0.7-5.3-1.1-8.3-1.3c-3-0.2-6.1-0.1-9.5,0.4c-3.4,0.4-6.8,1.2-10.3,2.3c-3.5,1.1-7.1,2.4-10.8,3.9
						c-1.9,1-3.5,1.9-4.8,2.9c-1.3,1-2.4,1.9-3,2.9c-0.7,1-1.1,2-1.4,2.9c-0.3,0.9-0.1,1.8,0.4,2.6c0.5,0.8,1.4,1.4,2.6,2
						c1.2,0.5,2.9,0.8,5,0.7c2.1-0.1,4.6-0.5,7.5-1.4c2.9-0.9,6.2-2.3,10-4.6c3.3-1.7,6-2.5,8.1-2c2.1,0.5,3.7,1.4,4.8,2.9
						c1.1,1.5,1.7,3.3,1.6,5.5c0,2.2-0.5,4.1-1.5,5.6c-3,4.1-6,9.8-9.1,17c-3.1,7.2-5.8,15.3-7.9,24.3c-2.4,10.5-3.5,21.2-4.1,31.9
						c-0.9,14-0.3,28.4,0.3,42.6c0.1,3.4,0,6.7-0.2,9.7c-0.2,3-1,5.4-2.5,7c-1.4,1.6-3.6,2.3-6.4,2c-2.8-0.4-6.7-2.4-11.7-6.2
						c-4.7-3.6-9.2-8.4-13.3-14.3c-4.2-5.9-8.1-12.6-11.8-20c-3.8-7.4-7.4-15.4-10.9-23.9c-3.6-8.7-7.1-17.5-10.5-26.3
						c-6.3-16.1-12.2-32.4-17.3-48.9c-5.5-17.4-9.3-35-12-53.1c-0.1-1.6,0-3.4,0.2-5.4c0.2-2,0.7-4,1.5-6.1c0.8-2.1,2-3.9,3.9-5.6
						c1.8-1.7,4.2-3,7-4c2.8-1,6.3-1.6,10.3-1.8c4-0.3,8.7,0.2,14.1,1.1c5.4,0.9,11.4,2.4,17.9,4.3c6.5,1.9,13.7,4.4,21.4,7.1
						c11.4,3.5,21.9,6.3,33.9,5.8c10.9-0.4,21.8-2.7,31.9-6.4c11.4-4.2,22.1-9.3,32.6-15.2c12.6-7.2,24.6-15.9,36.3-24.9
						c4.3-3.5,9-7.4,14.1-11.8c5.1-4.3,10.1-8.8,15.2-13.2c5.1-4.4,10.2-8.7,15.4-13c5.2-4.2,10.2-8.2,15-11.3
						c4.7-3.1,9.3-5.3,13.4-6.8c4.1-1.5,7.8-2,11-1.5c3.2,0.5,5.9,2.3,7.9,5.5c2,3.1,3.4,7.7,4.2,13.6c1.3,14.1,2.9,19.5,3.3,33.6
						c0.1,3.6,0.7,16.4-2,25.7C314.1,410.9,298.6,448.9,294.3,458.6z"/>
				</g>
			</g>
		</g>
	</g>
</g>
</svg>
